%TF.GenerationSoftware,KiCad,Pcbnew,10.0.5*%
%TF.CreationDate,2026-08-27T17:26:03-05:00*%
%TF.ProjectId,motor_board,6d6f746f-725f-4626-9f61-72642e6b6963,rev?*%
%TF.SameCoordinates,Original*%
%TF.FileFunction,Legend,Bot*%
%TF.FilePolarity,Positive*%
%FSLAX46Y46*%
G04 Gerber Fmt 4.6, Leading zero omitted, Abs format (unit mm)*
G04 Created by KiCad (PCBNEW 10.0.5) date 2026-08-27 17:26:03*
%MOMM*%
%LPD*%
G01*
G04 APERTURE LIST*
%ADD10C,0.150000*%
%ADD11C,0.250000*%
%ADD12C,0.400000*%
%ADD13C,0.500000*%
%ADD14C,0.120000*%
G04 APERTURE END LIST*
D10*
X29616400Y-49047400D02*
X29743400Y-48895000D01*
X29743400Y-51638200D02*
X29743400Y-48895000D01*
X29895800Y-49047400D02*
X29743400Y-48895000D01*
X91084400Y-30276800D02*
X90932000Y-30429200D01*
X91084400Y-30556200D02*
X90932000Y-30429200D01*
X93675200Y-30429200D02*
X90932000Y-30429200D01*
X48018171Y-66455364D02*
X48018171Y-65705364D01*
X48018171Y-65705364D02*
X47732457Y-65705364D01*
X47732457Y-65705364D02*
X47661028Y-65741078D01*
X47661028Y-65741078D02*
X47625314Y-65776792D01*
X47625314Y-65776792D02*
X47589600Y-65848221D01*
X47589600Y-65848221D02*
X47589600Y-65955364D01*
X47589600Y-65955364D02*
X47625314Y-66026792D01*
X47625314Y-66026792D02*
X47661028Y-66062507D01*
X47661028Y-66062507D02*
X47732457Y-66098221D01*
X47732457Y-66098221D02*
X48018171Y-66098221D01*
X47339600Y-65705364D02*
X47161028Y-66455364D01*
X47161028Y-66455364D02*
X47018171Y-65919650D01*
X47018171Y-65919650D02*
X46875314Y-66455364D01*
X46875314Y-66455364D02*
X46696743Y-65705364D01*
X46411028Y-66455364D02*
X46411028Y-65705364D01*
X46411028Y-65705364D02*
X46161028Y-66241078D01*
X46161028Y-66241078D02*
X45911028Y-65705364D01*
X45911028Y-65705364D02*
X45911028Y-66455364D01*
X47301113Y-60861050D02*
X46729685Y-60861050D01*
X47326513Y-63528050D02*
X46755085Y-63528050D01*
X47040799Y-63813764D02*
X47040799Y-63242335D01*
X72620142Y-27288564D02*
X73048713Y-27288564D01*
X72834428Y-27288564D02*
X72834428Y-26538564D01*
X72834428Y-26538564D02*
X72905856Y-26645707D01*
X72905856Y-26645707D02*
X72977285Y-26717135D01*
X72977285Y-26717135D02*
X73048713Y-26752850D01*
X72334427Y-26609992D02*
X72298713Y-26574278D01*
X72298713Y-26574278D02*
X72227285Y-26538564D01*
X72227285Y-26538564D02*
X72048713Y-26538564D01*
X72048713Y-26538564D02*
X71977285Y-26574278D01*
X71977285Y-26574278D02*
X71941570Y-26609992D01*
X71941570Y-26609992D02*
X71905856Y-26681421D01*
X71905856Y-26681421D02*
X71905856Y-26752850D01*
X71905856Y-26752850D02*
X71941570Y-26859992D01*
X71941570Y-26859992D02*
X72370142Y-27288564D01*
X72370142Y-27288564D02*
X71905856Y-27288564D01*
X71691570Y-26538564D02*
X71441570Y-27288564D01*
X71441570Y-27288564D02*
X71191570Y-26538564D01*
X72834428Y-29120628D02*
X72905857Y-29084914D01*
X72905857Y-29084914D02*
X73012999Y-29084914D01*
X73012999Y-29084914D02*
X73120142Y-29120628D01*
X73120142Y-29120628D02*
X73191571Y-29192057D01*
X73191571Y-29192057D02*
X73227285Y-29263485D01*
X73227285Y-29263485D02*
X73262999Y-29406342D01*
X73262999Y-29406342D02*
X73262999Y-29513485D01*
X73262999Y-29513485D02*
X73227285Y-29656342D01*
X73227285Y-29656342D02*
X73191571Y-29727771D01*
X73191571Y-29727771D02*
X73120142Y-29799200D01*
X73120142Y-29799200D02*
X73012999Y-29834914D01*
X73012999Y-29834914D02*
X72941571Y-29834914D01*
X72941571Y-29834914D02*
X72834428Y-29799200D01*
X72834428Y-29799200D02*
X72798714Y-29763485D01*
X72798714Y-29763485D02*
X72798714Y-29513485D01*
X72798714Y-29513485D02*
X72941571Y-29513485D01*
X72477285Y-29834914D02*
X72477285Y-29084914D01*
X72477285Y-29084914D02*
X72048714Y-29834914D01*
X72048714Y-29834914D02*
X72048714Y-29084914D01*
X71691571Y-29834914D02*
X71691571Y-29084914D01*
X71691571Y-29084914D02*
X71513000Y-29084914D01*
X71513000Y-29084914D02*
X71405857Y-29120628D01*
X71405857Y-29120628D02*
X71334428Y-29192057D01*
X71334428Y-29192057D02*
X71298714Y-29263485D01*
X71298714Y-29263485D02*
X71263000Y-29406342D01*
X71263000Y-29406342D02*
X71263000Y-29513485D01*
X71263000Y-29513485D02*
X71298714Y-29656342D01*
X71298714Y-29656342D02*
X71334428Y-29727771D01*
X71334428Y-29727771D02*
X71405857Y-29799200D01*
X71405857Y-29799200D02*
X71513000Y-29834914D01*
X71513000Y-29834914D02*
X71691571Y-29834914D01*
X73262999Y-37473964D02*
X73262999Y-36723964D01*
X73262999Y-36723964D02*
X72834428Y-37473964D01*
X72834428Y-37473964D02*
X72834428Y-36723964D01*
X71941571Y-36688250D02*
X72584428Y-37652535D01*
X71263000Y-37402535D02*
X71298714Y-37438250D01*
X71298714Y-37438250D02*
X71405857Y-37473964D01*
X71405857Y-37473964D02*
X71477285Y-37473964D01*
X71477285Y-37473964D02*
X71584428Y-37438250D01*
X71584428Y-37438250D02*
X71655857Y-37366821D01*
X71655857Y-37366821D02*
X71691571Y-37295392D01*
X71691571Y-37295392D02*
X71727285Y-37152535D01*
X71727285Y-37152535D02*
X71727285Y-37045392D01*
X71727285Y-37045392D02*
X71691571Y-36902535D01*
X71691571Y-36902535D02*
X71655857Y-36831107D01*
X71655857Y-36831107D02*
X71584428Y-36759678D01*
X71584428Y-36759678D02*
X71477285Y-36723964D01*
X71477285Y-36723964D02*
X71405857Y-36723964D01*
X71405857Y-36723964D02*
X71298714Y-36759678D01*
X71298714Y-36759678D02*
X71263000Y-36795392D01*
X73298713Y-32381264D02*
X73298713Y-31631264D01*
X73298713Y-31631264D02*
X73012999Y-31631264D01*
X73012999Y-31631264D02*
X72941570Y-31666978D01*
X72941570Y-31666978D02*
X72905856Y-31702692D01*
X72905856Y-31702692D02*
X72870142Y-31774121D01*
X72870142Y-31774121D02*
X72870142Y-31881264D01*
X72870142Y-31881264D02*
X72905856Y-31952692D01*
X72905856Y-31952692D02*
X72941570Y-31988407D01*
X72941570Y-31988407D02*
X73012999Y-32024121D01*
X73012999Y-32024121D02*
X73298713Y-32024121D01*
X72620142Y-31631264D02*
X72441570Y-32381264D01*
X72441570Y-32381264D02*
X72298713Y-31845550D01*
X72298713Y-31845550D02*
X72155856Y-32381264D01*
X72155856Y-32381264D02*
X71977285Y-31631264D01*
X71262999Y-32381264D02*
X71512999Y-32024121D01*
X71691570Y-32381264D02*
X71691570Y-31631264D01*
X71691570Y-31631264D02*
X71405856Y-31631264D01*
X71405856Y-31631264D02*
X71334427Y-31666978D01*
X71334427Y-31666978D02*
X71298713Y-31702692D01*
X71298713Y-31702692D02*
X71262999Y-31774121D01*
X71262999Y-31774121D02*
X71262999Y-31881264D01*
X71262999Y-31881264D02*
X71298713Y-31952692D01*
X71298713Y-31952692D02*
X71334427Y-31988407D01*
X71334427Y-31988407D02*
X71405856Y-32024121D01*
X71405856Y-32024121D02*
X71691570Y-32024121D01*
X74129371Y-66455364D02*
X74129371Y-65705364D01*
X74129371Y-65705364D02*
X73843657Y-65705364D01*
X73843657Y-65705364D02*
X73772228Y-65741078D01*
X73772228Y-65741078D02*
X73736514Y-65776792D01*
X73736514Y-65776792D02*
X73700800Y-65848221D01*
X73700800Y-65848221D02*
X73700800Y-65955364D01*
X73700800Y-65955364D02*
X73736514Y-66026792D01*
X73736514Y-66026792D02*
X73772228Y-66062507D01*
X73772228Y-66062507D02*
X73843657Y-66098221D01*
X73843657Y-66098221D02*
X74129371Y-66098221D01*
X73450800Y-65705364D02*
X73272228Y-66455364D01*
X73272228Y-66455364D02*
X73129371Y-65919650D01*
X73129371Y-65919650D02*
X72986514Y-66455364D01*
X72986514Y-66455364D02*
X72807943Y-65705364D01*
X72522228Y-66455364D02*
X72522228Y-65705364D01*
X72522228Y-65705364D02*
X72272228Y-66241078D01*
X72272228Y-66241078D02*
X72022228Y-65705364D01*
X72022228Y-65705364D02*
X72022228Y-66455364D01*
X73412313Y-60861050D02*
X72840885Y-60861050D01*
X73437713Y-63528050D02*
X72866285Y-63528050D01*
X73151999Y-63813764D02*
X73151999Y-63242335D01*
X74655856Y-34927614D02*
X75084427Y-34927614D01*
X74870142Y-34927614D02*
X74870142Y-34177614D01*
X74870142Y-34177614D02*
X74941570Y-34284757D01*
X74941570Y-34284757D02*
X75012999Y-34356185D01*
X75012999Y-34356185D02*
X75084427Y-34391900D01*
X74370141Y-34249042D02*
X74334427Y-34213328D01*
X74334427Y-34213328D02*
X74262999Y-34177614D01*
X74262999Y-34177614D02*
X74084427Y-34177614D01*
X74084427Y-34177614D02*
X74012999Y-34213328D01*
X74012999Y-34213328D02*
X73977284Y-34249042D01*
X73977284Y-34249042D02*
X73941570Y-34320471D01*
X73941570Y-34320471D02*
X73941570Y-34391900D01*
X73941570Y-34391900D02*
X73977284Y-34499042D01*
X73977284Y-34499042D02*
X74405856Y-34927614D01*
X74405856Y-34927614D02*
X73941570Y-34927614D01*
X73727284Y-34177614D02*
X73477284Y-34927614D01*
X73477284Y-34927614D02*
X73227284Y-34177614D01*
X73155856Y-34999042D02*
X72584427Y-34999042D01*
X72405855Y-34534757D02*
X72155855Y-34534757D01*
X72048712Y-34927614D02*
X72405855Y-34927614D01*
X72405855Y-34927614D02*
X72405855Y-34177614D01*
X72405855Y-34177614D02*
X72048712Y-34177614D01*
X71727284Y-34927614D02*
X71727284Y-34177614D01*
X71727284Y-34177614D02*
X71298713Y-34927614D01*
X71298713Y-34927614D02*
X71298713Y-34177614D01*
X89180942Y-27237764D02*
X89609513Y-27237764D01*
X89395228Y-27237764D02*
X89395228Y-26487764D01*
X89395228Y-26487764D02*
X89466656Y-26594907D01*
X89466656Y-26594907D02*
X89538085Y-26666335D01*
X89538085Y-26666335D02*
X89609513Y-26702050D01*
X88895227Y-26559192D02*
X88859513Y-26523478D01*
X88859513Y-26523478D02*
X88788085Y-26487764D01*
X88788085Y-26487764D02*
X88609513Y-26487764D01*
X88609513Y-26487764D02*
X88538085Y-26523478D01*
X88538085Y-26523478D02*
X88502370Y-26559192D01*
X88502370Y-26559192D02*
X88466656Y-26630621D01*
X88466656Y-26630621D02*
X88466656Y-26702050D01*
X88466656Y-26702050D02*
X88502370Y-26809192D01*
X88502370Y-26809192D02*
X88930942Y-27237764D01*
X88930942Y-27237764D02*
X88466656Y-27237764D01*
X88252370Y-26487764D02*
X88002370Y-27237764D01*
X88002370Y-27237764D02*
X87752370Y-26487764D01*
X89395228Y-29069828D02*
X89466657Y-29034114D01*
X89466657Y-29034114D02*
X89573799Y-29034114D01*
X89573799Y-29034114D02*
X89680942Y-29069828D01*
X89680942Y-29069828D02*
X89752371Y-29141257D01*
X89752371Y-29141257D02*
X89788085Y-29212685D01*
X89788085Y-29212685D02*
X89823799Y-29355542D01*
X89823799Y-29355542D02*
X89823799Y-29462685D01*
X89823799Y-29462685D02*
X89788085Y-29605542D01*
X89788085Y-29605542D02*
X89752371Y-29676971D01*
X89752371Y-29676971D02*
X89680942Y-29748400D01*
X89680942Y-29748400D02*
X89573799Y-29784114D01*
X89573799Y-29784114D02*
X89502371Y-29784114D01*
X89502371Y-29784114D02*
X89395228Y-29748400D01*
X89395228Y-29748400D02*
X89359514Y-29712685D01*
X89359514Y-29712685D02*
X89359514Y-29462685D01*
X89359514Y-29462685D02*
X89502371Y-29462685D01*
X89038085Y-29784114D02*
X89038085Y-29034114D01*
X89038085Y-29034114D02*
X88609514Y-29784114D01*
X88609514Y-29784114D02*
X88609514Y-29034114D01*
X88252371Y-29784114D02*
X88252371Y-29034114D01*
X88252371Y-29034114D02*
X88073800Y-29034114D01*
X88073800Y-29034114D02*
X87966657Y-29069828D01*
X87966657Y-29069828D02*
X87895228Y-29141257D01*
X87895228Y-29141257D02*
X87859514Y-29212685D01*
X87859514Y-29212685D02*
X87823800Y-29355542D01*
X87823800Y-29355542D02*
X87823800Y-29462685D01*
X87823800Y-29462685D02*
X87859514Y-29605542D01*
X87859514Y-29605542D02*
X87895228Y-29676971D01*
X87895228Y-29676971D02*
X87966657Y-29748400D01*
X87966657Y-29748400D02*
X88073800Y-29784114D01*
X88073800Y-29784114D02*
X88252371Y-29784114D01*
X89823799Y-37423164D02*
X89823799Y-36673164D01*
X89823799Y-36673164D02*
X89395228Y-37423164D01*
X89395228Y-37423164D02*
X89395228Y-36673164D01*
X88502371Y-36637450D02*
X89145228Y-37601735D01*
X87823800Y-37351735D02*
X87859514Y-37387450D01*
X87859514Y-37387450D02*
X87966657Y-37423164D01*
X87966657Y-37423164D02*
X88038085Y-37423164D01*
X88038085Y-37423164D02*
X88145228Y-37387450D01*
X88145228Y-37387450D02*
X88216657Y-37316021D01*
X88216657Y-37316021D02*
X88252371Y-37244592D01*
X88252371Y-37244592D02*
X88288085Y-37101735D01*
X88288085Y-37101735D02*
X88288085Y-36994592D01*
X88288085Y-36994592D02*
X88252371Y-36851735D01*
X88252371Y-36851735D02*
X88216657Y-36780307D01*
X88216657Y-36780307D02*
X88145228Y-36708878D01*
X88145228Y-36708878D02*
X88038085Y-36673164D01*
X88038085Y-36673164D02*
X87966657Y-36673164D01*
X87966657Y-36673164D02*
X87859514Y-36708878D01*
X87859514Y-36708878D02*
X87823800Y-36744592D01*
X89859513Y-32330464D02*
X89859513Y-31580464D01*
X89859513Y-31580464D02*
X89573799Y-31580464D01*
X89573799Y-31580464D02*
X89502370Y-31616178D01*
X89502370Y-31616178D02*
X89466656Y-31651892D01*
X89466656Y-31651892D02*
X89430942Y-31723321D01*
X89430942Y-31723321D02*
X89430942Y-31830464D01*
X89430942Y-31830464D02*
X89466656Y-31901892D01*
X89466656Y-31901892D02*
X89502370Y-31937607D01*
X89502370Y-31937607D02*
X89573799Y-31973321D01*
X89573799Y-31973321D02*
X89859513Y-31973321D01*
X89180942Y-31580464D02*
X89002370Y-32330464D01*
X89002370Y-32330464D02*
X88859513Y-31794750D01*
X88859513Y-31794750D02*
X88716656Y-32330464D01*
X88716656Y-32330464D02*
X88538085Y-31580464D01*
X87823799Y-32330464D02*
X88073799Y-31973321D01*
X88252370Y-32330464D02*
X88252370Y-31580464D01*
X88252370Y-31580464D02*
X87966656Y-31580464D01*
X87966656Y-31580464D02*
X87895227Y-31616178D01*
X87895227Y-31616178D02*
X87859513Y-31651892D01*
X87859513Y-31651892D02*
X87823799Y-31723321D01*
X87823799Y-31723321D02*
X87823799Y-31830464D01*
X87823799Y-31830464D02*
X87859513Y-31901892D01*
X87859513Y-31901892D02*
X87895227Y-31937607D01*
X87895227Y-31937607D02*
X87966656Y-31973321D01*
X87966656Y-31973321D02*
X88252370Y-31973321D01*
X91216656Y-34876814D02*
X91645227Y-34876814D01*
X91430942Y-34876814D02*
X91430942Y-34126814D01*
X91430942Y-34126814D02*
X91502370Y-34233957D01*
X91502370Y-34233957D02*
X91573799Y-34305385D01*
X91573799Y-34305385D02*
X91645227Y-34341100D01*
X90930941Y-34198242D02*
X90895227Y-34162528D01*
X90895227Y-34162528D02*
X90823799Y-34126814D01*
X90823799Y-34126814D02*
X90645227Y-34126814D01*
X90645227Y-34126814D02*
X90573799Y-34162528D01*
X90573799Y-34162528D02*
X90538084Y-34198242D01*
X90538084Y-34198242D02*
X90502370Y-34269671D01*
X90502370Y-34269671D02*
X90502370Y-34341100D01*
X90502370Y-34341100D02*
X90538084Y-34448242D01*
X90538084Y-34448242D02*
X90966656Y-34876814D01*
X90966656Y-34876814D02*
X90502370Y-34876814D01*
X90288084Y-34126814D02*
X90038084Y-34876814D01*
X90038084Y-34876814D02*
X89788084Y-34126814D01*
X89716656Y-34948242D02*
X89145227Y-34948242D01*
X88966655Y-34483957D02*
X88716655Y-34483957D01*
X88609512Y-34876814D02*
X88966655Y-34876814D01*
X88966655Y-34876814D02*
X88966655Y-34126814D01*
X88966655Y-34126814D02*
X88609512Y-34126814D01*
X88288084Y-34876814D02*
X88288084Y-34126814D01*
X88288084Y-34126814D02*
X87859513Y-34876814D01*
X87859513Y-34876814D02*
X87859513Y-34126814D01*
X94545741Y-31043064D02*
X94545741Y-31793064D01*
X94545741Y-31078778D02*
X94474313Y-31043064D01*
X94474313Y-31043064D02*
X94331455Y-31043064D01*
X94331455Y-31043064D02*
X94260027Y-31078778D01*
X94260027Y-31078778D02*
X94224313Y-31114492D01*
X94224313Y-31114492D02*
X94188598Y-31185921D01*
X94188598Y-31185921D02*
X94188598Y-31400207D01*
X94188598Y-31400207D02*
X94224313Y-31471635D01*
X94224313Y-31471635D02*
X94260027Y-31507350D01*
X94260027Y-31507350D02*
X94331455Y-31543064D01*
X94331455Y-31543064D02*
X94474313Y-31543064D01*
X94474313Y-31543064D02*
X94545741Y-31507350D01*
X93867170Y-31543064D02*
X93867170Y-31043064D01*
X93867170Y-30793064D02*
X93902884Y-30828778D01*
X93902884Y-30828778D02*
X93867170Y-30864492D01*
X93867170Y-30864492D02*
X93831456Y-30828778D01*
X93831456Y-30828778D02*
X93867170Y-30793064D01*
X93867170Y-30793064D02*
X93867170Y-30864492D01*
X93510027Y-31043064D02*
X93510027Y-31543064D01*
X93510027Y-31114492D02*
X93474313Y-31078778D01*
X93474313Y-31078778D02*
X93402884Y-31043064D01*
X93402884Y-31043064D02*
X93295741Y-31043064D01*
X93295741Y-31043064D02*
X93224313Y-31078778D01*
X93224313Y-31078778D02*
X93188599Y-31150207D01*
X93188599Y-31150207D02*
X93188599Y-31543064D01*
X92724313Y-31543064D02*
X92795742Y-31507350D01*
X92795742Y-31507350D02*
X92831456Y-31471635D01*
X92831456Y-31471635D02*
X92867170Y-31400207D01*
X92867170Y-31400207D02*
X92867170Y-31185921D01*
X92867170Y-31185921D02*
X92831456Y-31114492D01*
X92831456Y-31114492D02*
X92795742Y-31078778D01*
X92795742Y-31078778D02*
X92724313Y-31043064D01*
X92724313Y-31043064D02*
X92617170Y-31043064D01*
X92617170Y-31043064D02*
X92545742Y-31078778D01*
X92545742Y-31078778D02*
X92510028Y-31114492D01*
X92510028Y-31114492D02*
X92474313Y-31185921D01*
X92474313Y-31185921D02*
X92474313Y-31400207D01*
X92474313Y-31400207D02*
X92510028Y-31471635D01*
X92510028Y-31471635D02*
X92545742Y-31507350D01*
X92545742Y-31507350D02*
X92617170Y-31543064D01*
X92617170Y-31543064D02*
X92724313Y-31543064D01*
X91831457Y-31043064D02*
X91831457Y-31543064D01*
X92152885Y-31043064D02*
X92152885Y-31435921D01*
X92152885Y-31435921D02*
X92117171Y-31507350D01*
X92117171Y-31507350D02*
X92045742Y-31543064D01*
X92045742Y-31543064D02*
X91938599Y-31543064D01*
X91938599Y-31543064D02*
X91867171Y-31507350D01*
X91867171Y-31507350D02*
X91831457Y-31471635D01*
X91581457Y-31043064D02*
X91295743Y-31043064D01*
X91474314Y-30793064D02*
X91474314Y-31435921D01*
X91474314Y-31435921D02*
X91438600Y-31507350D01*
X91438600Y-31507350D02*
X91367171Y-31543064D01*
X91367171Y-31543064D02*
X91295743Y-31543064D01*
X94914571Y-75926478D02*
X94986000Y-75890764D01*
X94986000Y-75890764D02*
X95093142Y-75890764D01*
X95093142Y-75890764D02*
X95200285Y-75926478D01*
X95200285Y-75926478D02*
X95271714Y-75997907D01*
X95271714Y-75997907D02*
X95307428Y-76069335D01*
X95307428Y-76069335D02*
X95343142Y-76212192D01*
X95343142Y-76212192D02*
X95343142Y-76319335D01*
X95343142Y-76319335D02*
X95307428Y-76462192D01*
X95307428Y-76462192D02*
X95271714Y-76533621D01*
X95271714Y-76533621D02*
X95200285Y-76605050D01*
X95200285Y-76605050D02*
X95093142Y-76640764D01*
X95093142Y-76640764D02*
X95021714Y-76640764D01*
X95021714Y-76640764D02*
X94914571Y-76605050D01*
X94914571Y-76605050D02*
X94878857Y-76569335D01*
X94878857Y-76569335D02*
X94878857Y-76319335D01*
X94878857Y-76319335D02*
X95021714Y-76319335D01*
X94557428Y-76640764D02*
X94557428Y-75890764D01*
X94557428Y-75890764D02*
X94128857Y-76640764D01*
X94128857Y-76640764D02*
X94128857Y-75890764D01*
X93771714Y-76640764D02*
X93771714Y-75890764D01*
X93771714Y-75890764D02*
X93593143Y-75890764D01*
X93593143Y-75890764D02*
X93486000Y-75926478D01*
X93486000Y-75926478D02*
X93414571Y-75997907D01*
X93414571Y-75997907D02*
X93378857Y-76069335D01*
X93378857Y-76069335D02*
X93343143Y-76212192D01*
X93343143Y-76212192D02*
X93343143Y-76319335D01*
X93343143Y-76319335D02*
X93378857Y-76462192D01*
X93378857Y-76462192D02*
X93414571Y-76533621D01*
X93414571Y-76533621D02*
X93486000Y-76605050D01*
X93486000Y-76605050D02*
X93593143Y-76640764D01*
X93593143Y-76640764D02*
X93771714Y-76640764D01*
X95343142Y-89391564D02*
X95343142Y-88641564D01*
X95343142Y-88641564D02*
X94914571Y-89391564D01*
X94914571Y-89391564D02*
X94914571Y-88641564D01*
X94021714Y-88605850D02*
X94664571Y-89570135D01*
X93343143Y-89320135D02*
X93378857Y-89355850D01*
X93378857Y-89355850D02*
X93486000Y-89391564D01*
X93486000Y-89391564D02*
X93557428Y-89391564D01*
X93557428Y-89391564D02*
X93664571Y-89355850D01*
X93664571Y-89355850D02*
X93736000Y-89284421D01*
X93736000Y-89284421D02*
X93771714Y-89212992D01*
X93771714Y-89212992D02*
X93807428Y-89070135D01*
X93807428Y-89070135D02*
X93807428Y-88962992D01*
X93807428Y-88962992D02*
X93771714Y-88820135D01*
X93771714Y-88820135D02*
X93736000Y-88748707D01*
X93736000Y-88748707D02*
X93664571Y-88677278D01*
X93664571Y-88677278D02*
X93557428Y-88641564D01*
X93557428Y-88641564D02*
X93486000Y-88641564D01*
X93486000Y-88641564D02*
X93378857Y-88677278D01*
X93378857Y-88677278D02*
X93343143Y-88712992D01*
X95322513Y-84255530D02*
X95215371Y-84291244D01*
X95215371Y-84291244D02*
X95036799Y-84291244D01*
X95036799Y-84291244D02*
X94965371Y-84255530D01*
X94965371Y-84255530D02*
X94929656Y-84219815D01*
X94929656Y-84219815D02*
X94893942Y-84148387D01*
X94893942Y-84148387D02*
X94893942Y-84076958D01*
X94893942Y-84076958D02*
X94929656Y-84005530D01*
X94929656Y-84005530D02*
X94965371Y-83969815D01*
X94965371Y-83969815D02*
X95036799Y-83934101D01*
X95036799Y-83934101D02*
X95179656Y-83898387D01*
X95179656Y-83898387D02*
X95251085Y-83862672D01*
X95251085Y-83862672D02*
X95286799Y-83826958D01*
X95286799Y-83826958D02*
X95322513Y-83755530D01*
X95322513Y-83755530D02*
X95322513Y-83684101D01*
X95322513Y-83684101D02*
X95286799Y-83612672D01*
X95286799Y-83612672D02*
X95251085Y-83576958D01*
X95251085Y-83576958D02*
X95179656Y-83541244D01*
X95179656Y-83541244D02*
X95001085Y-83541244D01*
X95001085Y-83541244D02*
X94893942Y-83576958D01*
X94572513Y-84291244D02*
X94572513Y-83541244D01*
X94572513Y-83541244D02*
X94393942Y-83541244D01*
X94393942Y-83541244D02*
X94286799Y-83576958D01*
X94286799Y-83576958D02*
X94215370Y-83648387D01*
X94215370Y-83648387D02*
X94179656Y-83719815D01*
X94179656Y-83719815D02*
X94143942Y-83862672D01*
X94143942Y-83862672D02*
X94143942Y-83969815D01*
X94143942Y-83969815D02*
X94179656Y-84112672D01*
X94179656Y-84112672D02*
X94215370Y-84184101D01*
X94215370Y-84184101D02*
X94286799Y-84255530D01*
X94286799Y-84255530D02*
X94393942Y-84291244D01*
X94393942Y-84291244D02*
X94572513Y-84291244D01*
X93858227Y-84076958D02*
X93501085Y-84076958D01*
X93929656Y-84291244D02*
X93679656Y-83541244D01*
X93679656Y-83541244D02*
X93429656Y-84291244D01*
X95521714Y-86091404D02*
X95057428Y-86091404D01*
X95057428Y-86091404D02*
X95307428Y-86377118D01*
X95307428Y-86377118D02*
X95200285Y-86377118D01*
X95200285Y-86377118D02*
X95128857Y-86412832D01*
X95128857Y-86412832D02*
X95093142Y-86448547D01*
X95093142Y-86448547D02*
X95057428Y-86519975D01*
X95057428Y-86519975D02*
X95057428Y-86698547D01*
X95057428Y-86698547D02*
X95093142Y-86769975D01*
X95093142Y-86769975D02*
X95128857Y-86805690D01*
X95128857Y-86805690D02*
X95200285Y-86841404D01*
X95200285Y-86841404D02*
X95414571Y-86841404D01*
X95414571Y-86841404D02*
X95485999Y-86805690D01*
X95485999Y-86805690D02*
X95521714Y-86769975D01*
X94735999Y-86769975D02*
X94700285Y-86805690D01*
X94700285Y-86805690D02*
X94735999Y-86841404D01*
X94735999Y-86841404D02*
X94771713Y-86805690D01*
X94771713Y-86805690D02*
X94735999Y-86769975D01*
X94735999Y-86769975D02*
X94735999Y-86841404D01*
X94450285Y-86091404D02*
X93985999Y-86091404D01*
X93985999Y-86091404D02*
X94235999Y-86377118D01*
X94235999Y-86377118D02*
X94128856Y-86377118D01*
X94128856Y-86377118D02*
X94057428Y-86412832D01*
X94057428Y-86412832D02*
X94021713Y-86448547D01*
X94021713Y-86448547D02*
X93985999Y-86519975D01*
X93985999Y-86519975D02*
X93985999Y-86698547D01*
X93985999Y-86698547D02*
X94021713Y-86769975D01*
X94021713Y-86769975D02*
X94057428Y-86805690D01*
X94057428Y-86805690D02*
X94128856Y-86841404D01*
X94128856Y-86841404D02*
X94343142Y-86841404D01*
X94343142Y-86841404D02*
X94414570Y-86805690D01*
X94414570Y-86805690D02*
X94450285Y-86769975D01*
X93771713Y-86091404D02*
X93521713Y-86841404D01*
X93521713Y-86841404D02*
X93271713Y-86091404D01*
X95330056Y-81685050D02*
X95222914Y-81720764D01*
X95222914Y-81720764D02*
X95044342Y-81720764D01*
X95044342Y-81720764D02*
X94972914Y-81685050D01*
X94972914Y-81685050D02*
X94937199Y-81649335D01*
X94937199Y-81649335D02*
X94901485Y-81577907D01*
X94901485Y-81577907D02*
X94901485Y-81506478D01*
X94901485Y-81506478D02*
X94937199Y-81435050D01*
X94937199Y-81435050D02*
X94972914Y-81399335D01*
X94972914Y-81399335D02*
X95044342Y-81363621D01*
X95044342Y-81363621D02*
X95187199Y-81327907D01*
X95187199Y-81327907D02*
X95258628Y-81292192D01*
X95258628Y-81292192D02*
X95294342Y-81256478D01*
X95294342Y-81256478D02*
X95330056Y-81185050D01*
X95330056Y-81185050D02*
X95330056Y-81113621D01*
X95330056Y-81113621D02*
X95294342Y-81042192D01*
X95294342Y-81042192D02*
X95258628Y-81006478D01*
X95258628Y-81006478D02*
X95187199Y-80970764D01*
X95187199Y-80970764D02*
X95008628Y-80970764D01*
X95008628Y-80970764D02*
X94901485Y-81006478D01*
X94151485Y-81649335D02*
X94187199Y-81685050D01*
X94187199Y-81685050D02*
X94294342Y-81720764D01*
X94294342Y-81720764D02*
X94365770Y-81720764D01*
X94365770Y-81720764D02*
X94472913Y-81685050D01*
X94472913Y-81685050D02*
X94544342Y-81613621D01*
X94544342Y-81613621D02*
X94580056Y-81542192D01*
X94580056Y-81542192D02*
X94615770Y-81399335D01*
X94615770Y-81399335D02*
X94615770Y-81292192D01*
X94615770Y-81292192D02*
X94580056Y-81149335D01*
X94580056Y-81149335D02*
X94544342Y-81077907D01*
X94544342Y-81077907D02*
X94472913Y-81006478D01*
X94472913Y-81006478D02*
X94365770Y-80970764D01*
X94365770Y-80970764D02*
X94294342Y-80970764D01*
X94294342Y-80970764D02*
X94187199Y-81006478D01*
X94187199Y-81006478D02*
X94151485Y-81042192D01*
X93472913Y-81720764D02*
X93830056Y-81720764D01*
X93830056Y-81720764D02*
X93830056Y-80970764D01*
X97914571Y-78440924D02*
X97771714Y-78440924D01*
X97771714Y-78440924D02*
X97700285Y-78476638D01*
X97700285Y-78476638D02*
X97628857Y-78548067D01*
X97628857Y-78548067D02*
X97593142Y-78690924D01*
X97593142Y-78690924D02*
X97593142Y-78940924D01*
X97593142Y-78940924D02*
X97628857Y-79083781D01*
X97628857Y-79083781D02*
X97700285Y-79155210D01*
X97700285Y-79155210D02*
X97771714Y-79190924D01*
X97771714Y-79190924D02*
X97914571Y-79190924D01*
X97914571Y-79190924D02*
X97986000Y-79155210D01*
X97986000Y-79155210D02*
X98057428Y-79083781D01*
X98057428Y-79083781D02*
X98093142Y-78940924D01*
X98093142Y-78940924D02*
X98093142Y-78690924D01*
X98093142Y-78690924D02*
X98057428Y-78548067D01*
X98057428Y-78548067D02*
X97986000Y-78476638D01*
X97986000Y-78476638D02*
X97914571Y-78440924D01*
X97271714Y-78798067D02*
X97021714Y-78798067D01*
X96914571Y-79190924D02*
X97271714Y-79190924D01*
X97271714Y-79190924D02*
X97271714Y-78440924D01*
X97271714Y-78440924D02*
X96914571Y-78440924D01*
X96628857Y-79155210D02*
X96557429Y-79190924D01*
X96557429Y-79190924D02*
X96414572Y-79190924D01*
X96414572Y-79190924D02*
X96343143Y-79155210D01*
X96343143Y-79155210D02*
X96307429Y-79083781D01*
X96307429Y-79083781D02*
X96307429Y-79048067D01*
X96307429Y-79048067D02*
X96343143Y-78976638D01*
X96343143Y-78976638D02*
X96414572Y-78940924D01*
X96414572Y-78940924D02*
X96521715Y-78940924D01*
X96521715Y-78940924D02*
X96593143Y-78905210D01*
X96593143Y-78905210D02*
X96628857Y-78833781D01*
X96628857Y-78833781D02*
X96628857Y-78798067D01*
X96628857Y-78798067D02*
X96593143Y-78726638D01*
X96593143Y-78726638D02*
X96521715Y-78690924D01*
X96521715Y-78690924D02*
X96414572Y-78690924D01*
X96414572Y-78690924D02*
X96343143Y-78726638D01*
X95700286Y-79155210D02*
X95771714Y-79190924D01*
X95771714Y-79190924D02*
X95914572Y-79190924D01*
X95914572Y-79190924D02*
X95986000Y-79155210D01*
X95986000Y-79155210D02*
X96021714Y-79083781D01*
X96021714Y-79083781D02*
X96021714Y-78798067D01*
X96021714Y-78798067D02*
X95986000Y-78726638D01*
X95986000Y-78726638D02*
X95914572Y-78690924D01*
X95914572Y-78690924D02*
X95771714Y-78690924D01*
X95771714Y-78690924D02*
X95700286Y-78726638D01*
X95700286Y-78726638D02*
X95664572Y-78798067D01*
X95664572Y-78798067D02*
X95664572Y-78869495D01*
X95664572Y-78869495D02*
X96021714Y-78940924D01*
X95343143Y-79190924D02*
X95343143Y-78690924D01*
X95343143Y-78833781D02*
X95307429Y-78762352D01*
X95307429Y-78762352D02*
X95271715Y-78726638D01*
X95271715Y-78726638D02*
X95200286Y-78690924D01*
X95200286Y-78690924D02*
X95128857Y-78690924D01*
X94950286Y-78690924D02*
X94771714Y-79190924D01*
X94771714Y-79190924D02*
X94593143Y-78690924D01*
X94200285Y-79190924D02*
X94271714Y-79155210D01*
X94271714Y-79155210D02*
X94307428Y-79119495D01*
X94307428Y-79119495D02*
X94343142Y-79048067D01*
X94343142Y-79048067D02*
X94343142Y-78833781D01*
X94343142Y-78833781D02*
X94307428Y-78762352D01*
X94307428Y-78762352D02*
X94271714Y-78726638D01*
X94271714Y-78726638D02*
X94200285Y-78690924D01*
X94200285Y-78690924D02*
X94093142Y-78690924D01*
X94093142Y-78690924D02*
X94021714Y-78726638D01*
X94021714Y-78726638D02*
X93986000Y-78762352D01*
X93986000Y-78762352D02*
X93950285Y-78833781D01*
X93950285Y-78833781D02*
X93950285Y-79048067D01*
X93950285Y-79048067D02*
X93986000Y-79119495D01*
X93986000Y-79119495D02*
X94021714Y-79155210D01*
X94021714Y-79155210D02*
X94093142Y-79190924D01*
X94093142Y-79190924D02*
X94200285Y-79190924D01*
X93664571Y-79155210D02*
X93593143Y-79190924D01*
X93593143Y-79190924D02*
X93450286Y-79190924D01*
X93450286Y-79190924D02*
X93378857Y-79155210D01*
X93378857Y-79155210D02*
X93343143Y-79083781D01*
X93343143Y-79083781D02*
X93343143Y-79048067D01*
X93343143Y-79048067D02*
X93378857Y-78976638D01*
X93378857Y-78976638D02*
X93450286Y-78940924D01*
X93450286Y-78940924D02*
X93557429Y-78940924D01*
X93557429Y-78940924D02*
X93628857Y-78905210D01*
X93628857Y-78905210D02*
X93664571Y-78833781D01*
X93664571Y-78833781D02*
X93664571Y-78798067D01*
X93664571Y-78798067D02*
X93628857Y-78726638D01*
X93628857Y-78726638D02*
X93557429Y-78690924D01*
X93557429Y-78690924D02*
X93450286Y-78690924D01*
X93450286Y-78690924D02*
X93378857Y-78726638D01*
X142165800Y-29853964D02*
X142165800Y-29103964D01*
X142165800Y-29103964D02*
X141915800Y-29639678D01*
X141915800Y-29639678D02*
X141665800Y-29103964D01*
X141665800Y-29103964D02*
X141665800Y-29853964D01*
X140915800Y-29853964D02*
X141344371Y-29853964D01*
X141130086Y-29853964D02*
X141130086Y-29103964D01*
X141130086Y-29103964D02*
X141201514Y-29211107D01*
X141201514Y-29211107D02*
X141272943Y-29282535D01*
X141272943Y-29282535D02*
X141344371Y-29318250D01*
X140344371Y-29461107D02*
X140237228Y-29496821D01*
X140237228Y-29496821D02*
X140201514Y-29532535D01*
X140201514Y-29532535D02*
X140165800Y-29603964D01*
X140165800Y-29603964D02*
X140165800Y-29711107D01*
X140165800Y-29711107D02*
X140201514Y-29782535D01*
X140201514Y-29782535D02*
X140237228Y-29818250D01*
X140237228Y-29818250D02*
X140308657Y-29853964D01*
X140308657Y-29853964D02*
X140594371Y-29853964D01*
X140594371Y-29853964D02*
X140594371Y-29103964D01*
X140594371Y-29103964D02*
X140344371Y-29103964D01*
X140344371Y-29103964D02*
X140272943Y-29139678D01*
X140272943Y-29139678D02*
X140237228Y-29175392D01*
X140237228Y-29175392D02*
X140201514Y-29246821D01*
X140201514Y-29246821D02*
X140201514Y-29318250D01*
X140201514Y-29318250D02*
X140237228Y-29389678D01*
X140237228Y-29389678D02*
X140272943Y-29425392D01*
X140272943Y-29425392D02*
X140344371Y-29461107D01*
X140344371Y-29461107D02*
X140594371Y-29461107D01*
X142165800Y-42807964D02*
X142165800Y-42057964D01*
X142165800Y-42057964D02*
X141915800Y-42593678D01*
X141915800Y-42593678D02*
X141665800Y-42057964D01*
X141665800Y-42057964D02*
X141665800Y-42807964D01*
X141344371Y-42129392D02*
X141308657Y-42093678D01*
X141308657Y-42093678D02*
X141237229Y-42057964D01*
X141237229Y-42057964D02*
X141058657Y-42057964D01*
X141058657Y-42057964D02*
X140987229Y-42093678D01*
X140987229Y-42093678D02*
X140951514Y-42129392D01*
X140951514Y-42129392D02*
X140915800Y-42200821D01*
X140915800Y-42200821D02*
X140915800Y-42272250D01*
X140915800Y-42272250D02*
X140951514Y-42379392D01*
X140951514Y-42379392D02*
X141380086Y-42807964D01*
X141380086Y-42807964D02*
X140915800Y-42807964D01*
X140344371Y-42415107D02*
X140237228Y-42450821D01*
X140237228Y-42450821D02*
X140201514Y-42486535D01*
X140201514Y-42486535D02*
X140165800Y-42557964D01*
X140165800Y-42557964D02*
X140165800Y-42665107D01*
X140165800Y-42665107D02*
X140201514Y-42736535D01*
X140201514Y-42736535D02*
X140237228Y-42772250D01*
X140237228Y-42772250D02*
X140308657Y-42807964D01*
X140308657Y-42807964D02*
X140594371Y-42807964D01*
X140594371Y-42807964D02*
X140594371Y-42057964D01*
X140594371Y-42057964D02*
X140344371Y-42057964D01*
X140344371Y-42057964D02*
X140272943Y-42093678D01*
X140272943Y-42093678D02*
X140237228Y-42129392D01*
X140237228Y-42129392D02*
X140201514Y-42200821D01*
X140201514Y-42200821D02*
X140201514Y-42272250D01*
X140201514Y-42272250D02*
X140237228Y-42343678D01*
X140237228Y-42343678D02*
X140272943Y-42379392D01*
X140272943Y-42379392D02*
X140344371Y-42415107D01*
X140344371Y-42415107D02*
X140594371Y-42415107D01*
X142219371Y-33359164D02*
X142219371Y-32609164D01*
X142219371Y-32609164D02*
X141933657Y-32609164D01*
X141933657Y-32609164D02*
X141862228Y-32644878D01*
X141862228Y-32644878D02*
X141826514Y-32680592D01*
X141826514Y-32680592D02*
X141790800Y-32752021D01*
X141790800Y-32752021D02*
X141790800Y-32859164D01*
X141790800Y-32859164D02*
X141826514Y-32930592D01*
X141826514Y-32930592D02*
X141862228Y-32966307D01*
X141862228Y-32966307D02*
X141933657Y-33002021D01*
X141933657Y-33002021D02*
X142219371Y-33002021D01*
X141540800Y-32609164D02*
X141362228Y-33359164D01*
X141362228Y-33359164D02*
X141219371Y-32823450D01*
X141219371Y-32823450D02*
X141076514Y-33359164D01*
X141076514Y-33359164D02*
X140897943Y-32609164D01*
X140183657Y-33359164D02*
X140433657Y-33002021D01*
X140612228Y-33359164D02*
X140612228Y-32609164D01*
X140612228Y-32609164D02*
X140326514Y-32609164D01*
X140326514Y-32609164D02*
X140255085Y-32644878D01*
X140255085Y-32644878D02*
X140219371Y-32680592D01*
X140219371Y-32680592D02*
X140183657Y-32752021D01*
X140183657Y-32752021D02*
X140183657Y-32859164D01*
X140183657Y-32859164D02*
X140219371Y-32930592D01*
X140219371Y-32930592D02*
X140255085Y-32966307D01*
X140255085Y-32966307D02*
X140326514Y-33002021D01*
X140326514Y-33002021D02*
X140612228Y-33002021D01*
X142165800Y-27339364D02*
X142165800Y-26589364D01*
X142165800Y-26589364D02*
X141915800Y-27125078D01*
X141915800Y-27125078D02*
X141665800Y-26589364D01*
X141665800Y-26589364D02*
X141665800Y-27339364D01*
X140915800Y-27339364D02*
X141344371Y-27339364D01*
X141130086Y-27339364D02*
X141130086Y-26589364D01*
X141130086Y-26589364D02*
X141201514Y-26696507D01*
X141201514Y-26696507D02*
X141272943Y-26767935D01*
X141272943Y-26767935D02*
X141344371Y-26803650D01*
X140630085Y-27125078D02*
X140272943Y-27125078D01*
X140701514Y-27339364D02*
X140451514Y-26589364D01*
X140451514Y-26589364D02*
X140201514Y-27339364D01*
X142165800Y-40344164D02*
X142165800Y-39594164D01*
X142165800Y-39594164D02*
X141915800Y-40129878D01*
X141915800Y-40129878D02*
X141665800Y-39594164D01*
X141665800Y-39594164D02*
X141665800Y-40344164D01*
X140915800Y-40344164D02*
X141344371Y-40344164D01*
X141130086Y-40344164D02*
X141130086Y-39594164D01*
X141130086Y-39594164D02*
X141201514Y-39701307D01*
X141201514Y-39701307D02*
X141272943Y-39772735D01*
X141272943Y-39772735D02*
X141344371Y-39808450D01*
X140630085Y-40129878D02*
X140272943Y-40129878D01*
X140701514Y-40344164D02*
X140451514Y-39594164D01*
X140451514Y-39594164D02*
X140201514Y-40344164D01*
X141826514Y-36150078D02*
X141897943Y-36114364D01*
X141897943Y-36114364D02*
X142005085Y-36114364D01*
X142005085Y-36114364D02*
X142112228Y-36150078D01*
X142112228Y-36150078D02*
X142183657Y-36221507D01*
X142183657Y-36221507D02*
X142219371Y-36292935D01*
X142219371Y-36292935D02*
X142255085Y-36435792D01*
X142255085Y-36435792D02*
X142255085Y-36542935D01*
X142255085Y-36542935D02*
X142219371Y-36685792D01*
X142219371Y-36685792D02*
X142183657Y-36757221D01*
X142183657Y-36757221D02*
X142112228Y-36828650D01*
X142112228Y-36828650D02*
X142005085Y-36864364D01*
X142005085Y-36864364D02*
X141933657Y-36864364D01*
X141933657Y-36864364D02*
X141826514Y-36828650D01*
X141826514Y-36828650D02*
X141790800Y-36792935D01*
X141790800Y-36792935D02*
X141790800Y-36542935D01*
X141790800Y-36542935D02*
X141933657Y-36542935D01*
X141469371Y-36864364D02*
X141469371Y-36114364D01*
X141469371Y-36114364D02*
X141040800Y-36864364D01*
X141040800Y-36864364D02*
X141040800Y-36114364D01*
X140683657Y-36864364D02*
X140683657Y-36114364D01*
X140683657Y-36114364D02*
X140505086Y-36114364D01*
X140505086Y-36114364D02*
X140397943Y-36150078D01*
X140397943Y-36150078D02*
X140326514Y-36221507D01*
X140326514Y-36221507D02*
X140290800Y-36292935D01*
X140290800Y-36292935D02*
X140255086Y-36435792D01*
X140255086Y-36435792D02*
X140255086Y-36542935D01*
X140255086Y-36542935D02*
X140290800Y-36685792D01*
X140290800Y-36685792D02*
X140326514Y-36757221D01*
X140326514Y-36757221D02*
X140397943Y-36828650D01*
X140397943Y-36828650D02*
X140505086Y-36864364D01*
X140505086Y-36864364D02*
X140683657Y-36864364D01*
X210362029Y-72068764D02*
X210362029Y-71318764D01*
X210362029Y-71318764D02*
X210112029Y-71854478D01*
X210112029Y-71854478D02*
X209862029Y-71318764D01*
X209862029Y-71318764D02*
X209862029Y-72068764D01*
X209540600Y-71390192D02*
X209504886Y-71354478D01*
X209504886Y-71354478D02*
X209433458Y-71318764D01*
X209433458Y-71318764D02*
X209254886Y-71318764D01*
X209254886Y-71318764D02*
X209183458Y-71354478D01*
X209183458Y-71354478D02*
X209147743Y-71390192D01*
X209147743Y-71390192D02*
X209112029Y-71461621D01*
X209112029Y-71461621D02*
X209112029Y-71533050D01*
X209112029Y-71533050D02*
X209147743Y-71640192D01*
X209147743Y-71640192D02*
X209576315Y-72068764D01*
X209576315Y-72068764D02*
X209112029Y-72068764D01*
X208826314Y-71854478D02*
X208469172Y-71854478D01*
X208897743Y-72068764D02*
X208647743Y-71318764D01*
X208647743Y-71318764D02*
X208397743Y-72068764D01*
X210362029Y-85022764D02*
X210362029Y-84272764D01*
X210362029Y-84272764D02*
X210112029Y-84808478D01*
X210112029Y-84808478D02*
X209862029Y-84272764D01*
X209862029Y-84272764D02*
X209862029Y-85022764D01*
X209112029Y-85022764D02*
X209540600Y-85022764D01*
X209326315Y-85022764D02*
X209326315Y-84272764D01*
X209326315Y-84272764D02*
X209397743Y-84379907D01*
X209397743Y-84379907D02*
X209469172Y-84451335D01*
X209469172Y-84451335D02*
X209540600Y-84487050D01*
X208826314Y-84808478D02*
X208469172Y-84808478D01*
X208897743Y-85022764D02*
X208647743Y-84272764D01*
X208647743Y-84272764D02*
X208397743Y-85022764D01*
X210040600Y-74859678D02*
X210112029Y-74823964D01*
X210112029Y-74823964D02*
X210219171Y-74823964D01*
X210219171Y-74823964D02*
X210326314Y-74859678D01*
X210326314Y-74859678D02*
X210397743Y-74931107D01*
X210397743Y-74931107D02*
X210433457Y-75002535D01*
X210433457Y-75002535D02*
X210469171Y-75145392D01*
X210469171Y-75145392D02*
X210469171Y-75252535D01*
X210469171Y-75252535D02*
X210433457Y-75395392D01*
X210433457Y-75395392D02*
X210397743Y-75466821D01*
X210397743Y-75466821D02*
X210326314Y-75538250D01*
X210326314Y-75538250D02*
X210219171Y-75573964D01*
X210219171Y-75573964D02*
X210147743Y-75573964D01*
X210147743Y-75573964D02*
X210040600Y-75538250D01*
X210040600Y-75538250D02*
X210004886Y-75502535D01*
X210004886Y-75502535D02*
X210004886Y-75252535D01*
X210004886Y-75252535D02*
X210147743Y-75252535D01*
X209683457Y-75573964D02*
X209683457Y-74823964D01*
X209683457Y-74823964D02*
X209254886Y-75573964D01*
X209254886Y-75573964D02*
X209254886Y-74823964D01*
X208897743Y-75573964D02*
X208897743Y-74823964D01*
X208897743Y-74823964D02*
X208719172Y-74823964D01*
X208719172Y-74823964D02*
X208612029Y-74859678D01*
X208612029Y-74859678D02*
X208540600Y-74931107D01*
X208540600Y-74931107D02*
X208504886Y-75002535D01*
X208504886Y-75002535D02*
X208469172Y-75145392D01*
X208469172Y-75145392D02*
X208469172Y-75252535D01*
X208469172Y-75252535D02*
X208504886Y-75395392D01*
X208504886Y-75395392D02*
X208540600Y-75466821D01*
X208540600Y-75466821D02*
X208612029Y-75538250D01*
X208612029Y-75538250D02*
X208719172Y-75573964D01*
X208719172Y-75573964D02*
X208897743Y-75573964D01*
X210469171Y-69554164D02*
X210469171Y-68804164D01*
X210469171Y-68804164D02*
X210219171Y-69339878D01*
X210219171Y-69339878D02*
X209969171Y-68804164D01*
X209969171Y-68804164D02*
X209969171Y-69554164D01*
X209647742Y-68875592D02*
X209612028Y-68839878D01*
X209612028Y-68839878D02*
X209540600Y-68804164D01*
X209540600Y-68804164D02*
X209362028Y-68804164D01*
X209362028Y-68804164D02*
X209290600Y-68839878D01*
X209290600Y-68839878D02*
X209254885Y-68875592D01*
X209254885Y-68875592D02*
X209219171Y-68947021D01*
X209219171Y-68947021D02*
X209219171Y-69018450D01*
X209219171Y-69018450D02*
X209254885Y-69125592D01*
X209254885Y-69125592D02*
X209683457Y-69554164D01*
X209683457Y-69554164D02*
X209219171Y-69554164D01*
X208647742Y-69161307D02*
X208540599Y-69197021D01*
X208540599Y-69197021D02*
X208504885Y-69232735D01*
X208504885Y-69232735D02*
X208469171Y-69304164D01*
X208469171Y-69304164D02*
X208469171Y-69411307D01*
X208469171Y-69411307D02*
X208504885Y-69482735D01*
X208504885Y-69482735D02*
X208540599Y-69518450D01*
X208540599Y-69518450D02*
X208612028Y-69554164D01*
X208612028Y-69554164D02*
X208897742Y-69554164D01*
X208897742Y-69554164D02*
X208897742Y-68804164D01*
X208897742Y-68804164D02*
X208647742Y-68804164D01*
X208647742Y-68804164D02*
X208576314Y-68839878D01*
X208576314Y-68839878D02*
X208540599Y-68875592D01*
X208540599Y-68875592D02*
X208504885Y-68947021D01*
X208504885Y-68947021D02*
X208504885Y-69018450D01*
X208504885Y-69018450D02*
X208540599Y-69089878D01*
X208540599Y-69089878D02*
X208576314Y-69125592D01*
X208576314Y-69125592D02*
X208647742Y-69161307D01*
X208647742Y-69161307D02*
X208897742Y-69161307D01*
X210469171Y-82558964D02*
X210469171Y-81808964D01*
X210469171Y-81808964D02*
X210219171Y-82344678D01*
X210219171Y-82344678D02*
X209969171Y-81808964D01*
X209969171Y-81808964D02*
X209969171Y-82558964D01*
X209219171Y-82558964D02*
X209647742Y-82558964D01*
X209433457Y-82558964D02*
X209433457Y-81808964D01*
X209433457Y-81808964D02*
X209504885Y-81916107D01*
X209504885Y-81916107D02*
X209576314Y-81987535D01*
X209576314Y-81987535D02*
X209647742Y-82023250D01*
X208647742Y-82166107D02*
X208540599Y-82201821D01*
X208540599Y-82201821D02*
X208504885Y-82237535D01*
X208504885Y-82237535D02*
X208469171Y-82308964D01*
X208469171Y-82308964D02*
X208469171Y-82416107D01*
X208469171Y-82416107D02*
X208504885Y-82487535D01*
X208504885Y-82487535D02*
X208540599Y-82523250D01*
X208540599Y-82523250D02*
X208612028Y-82558964D01*
X208612028Y-82558964D02*
X208897742Y-82558964D01*
X208897742Y-82558964D02*
X208897742Y-81808964D01*
X208897742Y-81808964D02*
X208647742Y-81808964D01*
X208647742Y-81808964D02*
X208576314Y-81844678D01*
X208576314Y-81844678D02*
X208540599Y-81880392D01*
X208540599Y-81880392D02*
X208504885Y-81951821D01*
X208504885Y-81951821D02*
X208504885Y-82023250D01*
X208504885Y-82023250D02*
X208540599Y-82094678D01*
X208540599Y-82094678D02*
X208576314Y-82130392D01*
X208576314Y-82130392D02*
X208647742Y-82166107D01*
X208647742Y-82166107D02*
X208897742Y-82166107D01*
X210504885Y-79079164D02*
X210504885Y-78329164D01*
X210504885Y-78329164D02*
X210219171Y-78329164D01*
X210219171Y-78329164D02*
X210147742Y-78364878D01*
X210147742Y-78364878D02*
X210112028Y-78400592D01*
X210112028Y-78400592D02*
X210076314Y-78472021D01*
X210076314Y-78472021D02*
X210076314Y-78579164D01*
X210076314Y-78579164D02*
X210112028Y-78650592D01*
X210112028Y-78650592D02*
X210147742Y-78686307D01*
X210147742Y-78686307D02*
X210219171Y-78722021D01*
X210219171Y-78722021D02*
X210504885Y-78722021D01*
X209826314Y-78329164D02*
X209647742Y-79079164D01*
X209647742Y-79079164D02*
X209504885Y-78543450D01*
X209504885Y-78543450D02*
X209362028Y-79079164D01*
X209362028Y-79079164D02*
X209183457Y-78329164D01*
X208469171Y-79079164D02*
X208719171Y-78722021D01*
X208897742Y-79079164D02*
X208897742Y-78329164D01*
X208897742Y-78329164D02*
X208612028Y-78329164D01*
X208612028Y-78329164D02*
X208540599Y-78364878D01*
X208540599Y-78364878D02*
X208504885Y-78400592D01*
X208504885Y-78400592D02*
X208469171Y-78472021D01*
X208469171Y-78472021D02*
X208469171Y-78579164D01*
X208469171Y-78579164D02*
X208504885Y-78650592D01*
X208504885Y-78650592D02*
X208540599Y-78686307D01*
X208540599Y-78686307D02*
X208612028Y-78722021D01*
X208612028Y-78722021D02*
X208897742Y-78722021D01*
X26030564Y-47312343D02*
X26030564Y-46955200D01*
X26030564Y-46955200D02*
X26387707Y-46919486D01*
X26387707Y-46919486D02*
X26351992Y-46955200D01*
X26351992Y-46955200D02*
X26316278Y-47026629D01*
X26316278Y-47026629D02*
X26316278Y-47205200D01*
X26316278Y-47205200D02*
X26351992Y-47276629D01*
X26351992Y-47276629D02*
X26387707Y-47312343D01*
X26387707Y-47312343D02*
X26459135Y-47348057D01*
X26459135Y-47348057D02*
X26637707Y-47348057D01*
X26637707Y-47348057D02*
X26709135Y-47312343D01*
X26709135Y-47312343D02*
X26744850Y-47276629D01*
X26744850Y-47276629D02*
X26780564Y-47205200D01*
X26780564Y-47205200D02*
X26780564Y-47026629D01*
X26780564Y-47026629D02*
X26744850Y-46955200D01*
X26744850Y-46955200D02*
X26709135Y-46919486D01*
X26030564Y-47562343D02*
X26780564Y-47812343D01*
X26780564Y-47812343D02*
X26030564Y-48062343D01*
X28595964Y-47312343D02*
X28595964Y-46955200D01*
X28595964Y-46955200D02*
X28953107Y-46919486D01*
X28953107Y-46919486D02*
X28917392Y-46955200D01*
X28917392Y-46955200D02*
X28881678Y-47026629D01*
X28881678Y-47026629D02*
X28881678Y-47205200D01*
X28881678Y-47205200D02*
X28917392Y-47276629D01*
X28917392Y-47276629D02*
X28953107Y-47312343D01*
X28953107Y-47312343D02*
X29024535Y-47348057D01*
X29024535Y-47348057D02*
X29203107Y-47348057D01*
X29203107Y-47348057D02*
X29274535Y-47312343D01*
X29274535Y-47312343D02*
X29310250Y-47276629D01*
X29310250Y-47276629D02*
X29345964Y-47205200D01*
X29345964Y-47205200D02*
X29345964Y-47026629D01*
X29345964Y-47026629D02*
X29310250Y-46955200D01*
X29310250Y-46955200D02*
X29274535Y-46919486D01*
X28595964Y-47562343D02*
X29345964Y-47812343D01*
X29345964Y-47812343D02*
X28595964Y-48062343D01*
X30319164Y-49558772D02*
X31069164Y-49558772D01*
X30354878Y-49558772D02*
X30319164Y-49630201D01*
X30319164Y-49630201D02*
X30319164Y-49773058D01*
X30319164Y-49773058D02*
X30354878Y-49844486D01*
X30354878Y-49844486D02*
X30390592Y-49880201D01*
X30390592Y-49880201D02*
X30462021Y-49915915D01*
X30462021Y-49915915D02*
X30676307Y-49915915D01*
X30676307Y-49915915D02*
X30747735Y-49880201D01*
X30747735Y-49880201D02*
X30783450Y-49844486D01*
X30783450Y-49844486D02*
X30819164Y-49773058D01*
X30819164Y-49773058D02*
X30819164Y-49630201D01*
X30819164Y-49630201D02*
X30783450Y-49558772D01*
X30819164Y-50237343D02*
X30319164Y-50237343D01*
X30069164Y-50237343D02*
X30104878Y-50201629D01*
X30104878Y-50201629D02*
X30140592Y-50237343D01*
X30140592Y-50237343D02*
X30104878Y-50273057D01*
X30104878Y-50273057D02*
X30069164Y-50237343D01*
X30069164Y-50237343D02*
X30140592Y-50237343D01*
X30319164Y-50594486D02*
X30819164Y-50594486D01*
X30390592Y-50594486D02*
X30354878Y-50630200D01*
X30354878Y-50630200D02*
X30319164Y-50701629D01*
X30319164Y-50701629D02*
X30319164Y-50808772D01*
X30319164Y-50808772D02*
X30354878Y-50880200D01*
X30354878Y-50880200D02*
X30426307Y-50915915D01*
X30426307Y-50915915D02*
X30819164Y-50915915D01*
X30819164Y-51380200D02*
X30783450Y-51308771D01*
X30783450Y-51308771D02*
X30747735Y-51273057D01*
X30747735Y-51273057D02*
X30676307Y-51237343D01*
X30676307Y-51237343D02*
X30462021Y-51237343D01*
X30462021Y-51237343D02*
X30390592Y-51273057D01*
X30390592Y-51273057D02*
X30354878Y-51308771D01*
X30354878Y-51308771D02*
X30319164Y-51380200D01*
X30319164Y-51380200D02*
X30319164Y-51487343D01*
X30319164Y-51487343D02*
X30354878Y-51558771D01*
X30354878Y-51558771D02*
X30390592Y-51594486D01*
X30390592Y-51594486D02*
X30462021Y-51630200D01*
X30462021Y-51630200D02*
X30676307Y-51630200D01*
X30676307Y-51630200D02*
X30747735Y-51594486D01*
X30747735Y-51594486D02*
X30783450Y-51558771D01*
X30783450Y-51558771D02*
X30819164Y-51487343D01*
X30819164Y-51487343D02*
X30819164Y-51380200D01*
X30319164Y-52273057D02*
X30819164Y-52273057D01*
X30319164Y-51951628D02*
X30712021Y-51951628D01*
X30712021Y-51951628D02*
X30783450Y-51987342D01*
X30783450Y-51987342D02*
X30819164Y-52058771D01*
X30819164Y-52058771D02*
X30819164Y-52165914D01*
X30819164Y-52165914D02*
X30783450Y-52237342D01*
X30783450Y-52237342D02*
X30747735Y-52273057D01*
X30319164Y-52523056D02*
X30319164Y-52808770D01*
X30069164Y-52630199D02*
X30712021Y-52630199D01*
X30712021Y-52630199D02*
X30783450Y-52665913D01*
X30783450Y-52665913D02*
X30819164Y-52737342D01*
X30819164Y-52737342D02*
X30819164Y-52808770D01*
X31197078Y-47348056D02*
X31161364Y-47276628D01*
X31161364Y-47276628D02*
X31161364Y-47169485D01*
X31161364Y-47169485D02*
X31197078Y-47062342D01*
X31197078Y-47062342D02*
X31268507Y-46990913D01*
X31268507Y-46990913D02*
X31339935Y-46955199D01*
X31339935Y-46955199D02*
X31482792Y-46919485D01*
X31482792Y-46919485D02*
X31589935Y-46919485D01*
X31589935Y-46919485D02*
X31732792Y-46955199D01*
X31732792Y-46955199D02*
X31804221Y-46990913D01*
X31804221Y-46990913D02*
X31875650Y-47062342D01*
X31875650Y-47062342D02*
X31911364Y-47169485D01*
X31911364Y-47169485D02*
X31911364Y-47240913D01*
X31911364Y-47240913D02*
X31875650Y-47348056D01*
X31875650Y-47348056D02*
X31839935Y-47383770D01*
X31839935Y-47383770D02*
X31589935Y-47383770D01*
X31589935Y-47383770D02*
X31589935Y-47240913D01*
X31911364Y-47705199D02*
X31161364Y-47705199D01*
X31161364Y-47705199D02*
X31911364Y-48133770D01*
X31911364Y-48133770D02*
X31161364Y-48133770D01*
X31911364Y-48490913D02*
X31161364Y-48490913D01*
X31161364Y-48490913D02*
X31161364Y-48669484D01*
X31161364Y-48669484D02*
X31197078Y-48776627D01*
X31197078Y-48776627D02*
X31268507Y-48848056D01*
X31268507Y-48848056D02*
X31339935Y-48883770D01*
X31339935Y-48883770D02*
X31482792Y-48919484D01*
X31482792Y-48919484D02*
X31589935Y-48919484D01*
X31589935Y-48919484D02*
X31732792Y-48883770D01*
X31732792Y-48883770D02*
X31804221Y-48848056D01*
X31804221Y-48848056D02*
X31875650Y-48776627D01*
X31875650Y-48776627D02*
X31911364Y-48669484D01*
X31911364Y-48669484D02*
X31911364Y-48490913D01*
X33762478Y-47348056D02*
X33726764Y-47276628D01*
X33726764Y-47276628D02*
X33726764Y-47169485D01*
X33726764Y-47169485D02*
X33762478Y-47062342D01*
X33762478Y-47062342D02*
X33833907Y-46990913D01*
X33833907Y-46990913D02*
X33905335Y-46955199D01*
X33905335Y-46955199D02*
X34048192Y-46919485D01*
X34048192Y-46919485D02*
X34155335Y-46919485D01*
X34155335Y-46919485D02*
X34298192Y-46955199D01*
X34298192Y-46955199D02*
X34369621Y-46990913D01*
X34369621Y-46990913D02*
X34441050Y-47062342D01*
X34441050Y-47062342D02*
X34476764Y-47169485D01*
X34476764Y-47169485D02*
X34476764Y-47240913D01*
X34476764Y-47240913D02*
X34441050Y-47348056D01*
X34441050Y-47348056D02*
X34405335Y-47383770D01*
X34405335Y-47383770D02*
X34155335Y-47383770D01*
X34155335Y-47383770D02*
X34155335Y-47240913D01*
X34476764Y-47705199D02*
X33726764Y-47705199D01*
X33726764Y-47705199D02*
X34476764Y-48133770D01*
X34476764Y-48133770D02*
X33726764Y-48133770D01*
X34476764Y-48490913D02*
X33726764Y-48490913D01*
X33726764Y-48490913D02*
X33726764Y-48669484D01*
X33726764Y-48669484D02*
X33762478Y-48776627D01*
X33762478Y-48776627D02*
X33833907Y-48848056D01*
X33833907Y-48848056D02*
X33905335Y-48883770D01*
X33905335Y-48883770D02*
X34048192Y-48919484D01*
X34048192Y-48919484D02*
X34155335Y-48919484D01*
X34155335Y-48919484D02*
X34298192Y-48883770D01*
X34298192Y-48883770D02*
X34369621Y-48848056D01*
X34369621Y-48848056D02*
X34441050Y-48776627D01*
X34441050Y-48776627D02*
X34476764Y-48669484D01*
X34476764Y-48669484D02*
X34476764Y-48490913D01*
X37042164Y-46759542D02*
X36292164Y-46759542D01*
X36292164Y-46759542D02*
X37042164Y-47188113D01*
X37042164Y-47188113D02*
X36292164Y-47188113D01*
X36256450Y-48080970D02*
X37220735Y-47438113D01*
X36970735Y-48759541D02*
X37006450Y-48723827D01*
X37006450Y-48723827D02*
X37042164Y-48616684D01*
X37042164Y-48616684D02*
X37042164Y-48545256D01*
X37042164Y-48545256D02*
X37006450Y-48438113D01*
X37006450Y-48438113D02*
X36935021Y-48366684D01*
X36935021Y-48366684D02*
X36863592Y-48330970D01*
X36863592Y-48330970D02*
X36720735Y-48295256D01*
X36720735Y-48295256D02*
X36613592Y-48295256D01*
X36613592Y-48295256D02*
X36470735Y-48330970D01*
X36470735Y-48330970D02*
X36399307Y-48366684D01*
X36399307Y-48366684D02*
X36327878Y-48438113D01*
X36327878Y-48438113D02*
X36292164Y-48545256D01*
X36292164Y-48545256D02*
X36292164Y-48616684D01*
X36292164Y-48616684D02*
X36327878Y-48723827D01*
X36327878Y-48723827D02*
X36363592Y-48759541D01*
X39588514Y-46759542D02*
X38838514Y-46759542D01*
X38838514Y-46759542D02*
X39588514Y-47188113D01*
X39588514Y-47188113D02*
X38838514Y-47188113D01*
X38802800Y-48080970D02*
X39767085Y-47438113D01*
X39517085Y-48759541D02*
X39552800Y-48723827D01*
X39552800Y-48723827D02*
X39588514Y-48616684D01*
X39588514Y-48616684D02*
X39588514Y-48545256D01*
X39588514Y-48545256D02*
X39552800Y-48438113D01*
X39552800Y-48438113D02*
X39481371Y-48366684D01*
X39481371Y-48366684D02*
X39409942Y-48330970D01*
X39409942Y-48330970D02*
X39267085Y-48295256D01*
X39267085Y-48295256D02*
X39159942Y-48295256D01*
X39159942Y-48295256D02*
X39017085Y-48330970D01*
X39017085Y-48330970D02*
X38945657Y-48366684D01*
X38945657Y-48366684D02*
X38874228Y-48438113D01*
X38874228Y-48438113D02*
X38838514Y-48545256D01*
X38838514Y-48545256D02*
X38838514Y-48616684D01*
X38838514Y-48616684D02*
X38874228Y-48723827D01*
X38874228Y-48723827D02*
X38909942Y-48759541D01*
X42134864Y-46759542D02*
X41384864Y-46759542D01*
X41384864Y-46759542D02*
X42134864Y-47188113D01*
X42134864Y-47188113D02*
X41384864Y-47188113D01*
X41349150Y-48080970D02*
X42313435Y-47438113D01*
X42063435Y-48759541D02*
X42099150Y-48723827D01*
X42099150Y-48723827D02*
X42134864Y-48616684D01*
X42134864Y-48616684D02*
X42134864Y-48545256D01*
X42134864Y-48545256D02*
X42099150Y-48438113D01*
X42099150Y-48438113D02*
X42027721Y-48366684D01*
X42027721Y-48366684D02*
X41956292Y-48330970D01*
X41956292Y-48330970D02*
X41813435Y-48295256D01*
X41813435Y-48295256D02*
X41706292Y-48295256D01*
X41706292Y-48295256D02*
X41563435Y-48330970D01*
X41563435Y-48330970D02*
X41492007Y-48366684D01*
X41492007Y-48366684D02*
X41420578Y-48438113D01*
X41420578Y-48438113D02*
X41384864Y-48545256D01*
X41384864Y-48545256D02*
X41384864Y-48616684D01*
X41384864Y-48616684D02*
X41420578Y-48723827D01*
X41420578Y-48723827D02*
X41456292Y-48759541D01*
X44681214Y-46759542D02*
X43931214Y-46759542D01*
X43931214Y-46759542D02*
X44681214Y-47188113D01*
X44681214Y-47188113D02*
X43931214Y-47188113D01*
X43895500Y-48080970D02*
X44859785Y-47438113D01*
X44609785Y-48759541D02*
X44645500Y-48723827D01*
X44645500Y-48723827D02*
X44681214Y-48616684D01*
X44681214Y-48616684D02*
X44681214Y-48545256D01*
X44681214Y-48545256D02*
X44645500Y-48438113D01*
X44645500Y-48438113D02*
X44574071Y-48366684D01*
X44574071Y-48366684D02*
X44502642Y-48330970D01*
X44502642Y-48330970D02*
X44359785Y-48295256D01*
X44359785Y-48295256D02*
X44252642Y-48295256D01*
X44252642Y-48295256D02*
X44109785Y-48330970D01*
X44109785Y-48330970D02*
X44038357Y-48366684D01*
X44038357Y-48366684D02*
X43966928Y-48438113D01*
X43966928Y-48438113D02*
X43931214Y-48545256D01*
X43931214Y-48545256D02*
X43931214Y-48616684D01*
X43931214Y-48616684D02*
X43966928Y-48723827D01*
X43966928Y-48723827D02*
X44002642Y-48759541D01*
X47227564Y-46759542D02*
X46477564Y-46759542D01*
X46477564Y-46759542D02*
X47227564Y-47188113D01*
X47227564Y-47188113D02*
X46477564Y-47188113D01*
X46441850Y-48080970D02*
X47406135Y-47438113D01*
X47156135Y-48759541D02*
X47191850Y-48723827D01*
X47191850Y-48723827D02*
X47227564Y-48616684D01*
X47227564Y-48616684D02*
X47227564Y-48545256D01*
X47227564Y-48545256D02*
X47191850Y-48438113D01*
X47191850Y-48438113D02*
X47120421Y-48366684D01*
X47120421Y-48366684D02*
X47048992Y-48330970D01*
X47048992Y-48330970D02*
X46906135Y-48295256D01*
X46906135Y-48295256D02*
X46798992Y-48295256D01*
X46798992Y-48295256D02*
X46656135Y-48330970D01*
X46656135Y-48330970D02*
X46584707Y-48366684D01*
X46584707Y-48366684D02*
X46513278Y-48438113D01*
X46513278Y-48438113D02*
X46477564Y-48545256D01*
X46477564Y-48545256D02*
X46477564Y-48616684D01*
X46477564Y-48616684D02*
X46513278Y-48723827D01*
X46513278Y-48723827D02*
X46548992Y-48759541D01*
X48977078Y-47348056D02*
X48941364Y-47276628D01*
X48941364Y-47276628D02*
X48941364Y-47169485D01*
X48941364Y-47169485D02*
X48977078Y-47062342D01*
X48977078Y-47062342D02*
X49048507Y-46990913D01*
X49048507Y-46990913D02*
X49119935Y-46955199D01*
X49119935Y-46955199D02*
X49262792Y-46919485D01*
X49262792Y-46919485D02*
X49369935Y-46919485D01*
X49369935Y-46919485D02*
X49512792Y-46955199D01*
X49512792Y-46955199D02*
X49584221Y-46990913D01*
X49584221Y-46990913D02*
X49655650Y-47062342D01*
X49655650Y-47062342D02*
X49691364Y-47169485D01*
X49691364Y-47169485D02*
X49691364Y-47240913D01*
X49691364Y-47240913D02*
X49655650Y-47348056D01*
X49655650Y-47348056D02*
X49619935Y-47383770D01*
X49619935Y-47383770D02*
X49369935Y-47383770D01*
X49369935Y-47383770D02*
X49369935Y-47240913D01*
X49691364Y-47705199D02*
X48941364Y-47705199D01*
X48941364Y-47705199D02*
X49691364Y-48133770D01*
X49691364Y-48133770D02*
X48941364Y-48133770D01*
X49691364Y-48490913D02*
X48941364Y-48490913D01*
X48941364Y-48490913D02*
X48941364Y-48669484D01*
X48941364Y-48669484D02*
X48977078Y-48776627D01*
X48977078Y-48776627D02*
X49048507Y-48848056D01*
X49048507Y-48848056D02*
X49119935Y-48883770D01*
X49119935Y-48883770D02*
X49262792Y-48919484D01*
X49262792Y-48919484D02*
X49369935Y-48919484D01*
X49369935Y-48919484D02*
X49512792Y-48883770D01*
X49512792Y-48883770D02*
X49584221Y-48848056D01*
X49584221Y-48848056D02*
X49655650Y-48776627D01*
X49655650Y-48776627D02*
X49691364Y-48669484D01*
X49691364Y-48669484D02*
X49691364Y-48490913D01*
X50051735Y-68036742D02*
X50087450Y-68001028D01*
X50087450Y-68001028D02*
X50123164Y-67893885D01*
X50123164Y-67893885D02*
X50123164Y-67822457D01*
X50123164Y-67822457D02*
X50087450Y-67715314D01*
X50087450Y-67715314D02*
X50016021Y-67643885D01*
X50016021Y-67643885D02*
X49944592Y-67608171D01*
X49944592Y-67608171D02*
X49801735Y-67572457D01*
X49801735Y-67572457D02*
X49694592Y-67572457D01*
X49694592Y-67572457D02*
X49551735Y-67608171D01*
X49551735Y-67608171D02*
X49480307Y-67643885D01*
X49480307Y-67643885D02*
X49408878Y-67715314D01*
X49408878Y-67715314D02*
X49373164Y-67822457D01*
X49373164Y-67822457D02*
X49373164Y-67893885D01*
X49373164Y-67893885D02*
X49408878Y-68001028D01*
X49408878Y-68001028D02*
X49444592Y-68036742D01*
X50123164Y-68358171D02*
X49373164Y-68358171D01*
X49730307Y-68358171D02*
X49730307Y-68786742D01*
X50123164Y-68786742D02*
X49373164Y-68786742D01*
X49694592Y-69251028D02*
X49658878Y-69179599D01*
X49658878Y-69179599D02*
X49623164Y-69143885D01*
X49623164Y-69143885D02*
X49551735Y-69108171D01*
X49551735Y-69108171D02*
X49516021Y-69108171D01*
X49516021Y-69108171D02*
X49444592Y-69143885D01*
X49444592Y-69143885D02*
X49408878Y-69179599D01*
X49408878Y-69179599D02*
X49373164Y-69251028D01*
X49373164Y-69251028D02*
X49373164Y-69393885D01*
X49373164Y-69393885D02*
X49408878Y-69465314D01*
X49408878Y-69465314D02*
X49444592Y-69501028D01*
X49444592Y-69501028D02*
X49516021Y-69536742D01*
X49516021Y-69536742D02*
X49551735Y-69536742D01*
X49551735Y-69536742D02*
X49623164Y-69501028D01*
X49623164Y-69501028D02*
X49658878Y-69465314D01*
X49658878Y-69465314D02*
X49694592Y-69393885D01*
X49694592Y-69393885D02*
X49694592Y-69251028D01*
X49694592Y-69251028D02*
X49730307Y-69179599D01*
X49730307Y-69179599D02*
X49766021Y-69143885D01*
X49766021Y-69143885D02*
X49837450Y-69108171D01*
X49837450Y-69108171D02*
X49980307Y-69108171D01*
X49980307Y-69108171D02*
X50051735Y-69143885D01*
X50051735Y-69143885D02*
X50087450Y-69179599D01*
X50087450Y-69179599D02*
X50123164Y-69251028D01*
X50123164Y-69251028D02*
X50123164Y-69393885D01*
X50123164Y-69393885D02*
X50087450Y-69465314D01*
X50087450Y-69465314D02*
X50051735Y-69501028D01*
X50051735Y-69501028D02*
X49980307Y-69536742D01*
X49980307Y-69536742D02*
X49837450Y-69536742D01*
X49837450Y-69536742D02*
X49766021Y-69501028D01*
X49766021Y-69501028D02*
X49730307Y-69465314D01*
X49730307Y-69465314D02*
X49694592Y-69393885D01*
X51517078Y-47348056D02*
X51481364Y-47276628D01*
X51481364Y-47276628D02*
X51481364Y-47169485D01*
X51481364Y-47169485D02*
X51517078Y-47062342D01*
X51517078Y-47062342D02*
X51588507Y-46990913D01*
X51588507Y-46990913D02*
X51659935Y-46955199D01*
X51659935Y-46955199D02*
X51802792Y-46919485D01*
X51802792Y-46919485D02*
X51909935Y-46919485D01*
X51909935Y-46919485D02*
X52052792Y-46955199D01*
X52052792Y-46955199D02*
X52124221Y-46990913D01*
X52124221Y-46990913D02*
X52195650Y-47062342D01*
X52195650Y-47062342D02*
X52231364Y-47169485D01*
X52231364Y-47169485D02*
X52231364Y-47240913D01*
X52231364Y-47240913D02*
X52195650Y-47348056D01*
X52195650Y-47348056D02*
X52159935Y-47383770D01*
X52159935Y-47383770D02*
X51909935Y-47383770D01*
X51909935Y-47383770D02*
X51909935Y-47240913D01*
X52231364Y-47705199D02*
X51481364Y-47705199D01*
X51481364Y-47705199D02*
X52231364Y-48133770D01*
X52231364Y-48133770D02*
X51481364Y-48133770D01*
X52231364Y-48490913D02*
X51481364Y-48490913D01*
X51481364Y-48490913D02*
X51481364Y-48669484D01*
X51481364Y-48669484D02*
X51517078Y-48776627D01*
X51517078Y-48776627D02*
X51588507Y-48848056D01*
X51588507Y-48848056D02*
X51659935Y-48883770D01*
X51659935Y-48883770D02*
X51802792Y-48919484D01*
X51802792Y-48919484D02*
X51909935Y-48919484D01*
X51909935Y-48919484D02*
X52052792Y-48883770D01*
X52052792Y-48883770D02*
X52124221Y-48848056D01*
X52124221Y-48848056D02*
X52195650Y-48776627D01*
X52195650Y-48776627D02*
X52231364Y-48669484D01*
X52231364Y-48669484D02*
X52231364Y-48490913D01*
X52591735Y-68036742D02*
X52627450Y-68001028D01*
X52627450Y-68001028D02*
X52663164Y-67893885D01*
X52663164Y-67893885D02*
X52663164Y-67822457D01*
X52663164Y-67822457D02*
X52627450Y-67715314D01*
X52627450Y-67715314D02*
X52556021Y-67643885D01*
X52556021Y-67643885D02*
X52484592Y-67608171D01*
X52484592Y-67608171D02*
X52341735Y-67572457D01*
X52341735Y-67572457D02*
X52234592Y-67572457D01*
X52234592Y-67572457D02*
X52091735Y-67608171D01*
X52091735Y-67608171D02*
X52020307Y-67643885D01*
X52020307Y-67643885D02*
X51948878Y-67715314D01*
X51948878Y-67715314D02*
X51913164Y-67822457D01*
X51913164Y-67822457D02*
X51913164Y-67893885D01*
X51913164Y-67893885D02*
X51948878Y-68001028D01*
X51948878Y-68001028D02*
X51984592Y-68036742D01*
X52663164Y-68358171D02*
X51913164Y-68358171D01*
X52270307Y-68358171D02*
X52270307Y-68786742D01*
X52663164Y-68786742D02*
X51913164Y-68786742D01*
X52663164Y-69179599D02*
X52663164Y-69322456D01*
X52663164Y-69322456D02*
X52627450Y-69393885D01*
X52627450Y-69393885D02*
X52591735Y-69429599D01*
X52591735Y-69429599D02*
X52484592Y-69501028D01*
X52484592Y-69501028D02*
X52341735Y-69536742D01*
X52341735Y-69536742D02*
X52056021Y-69536742D01*
X52056021Y-69536742D02*
X51984592Y-69501028D01*
X51984592Y-69501028D02*
X51948878Y-69465314D01*
X51948878Y-69465314D02*
X51913164Y-69393885D01*
X51913164Y-69393885D02*
X51913164Y-69251028D01*
X51913164Y-69251028D02*
X51948878Y-69179599D01*
X51948878Y-69179599D02*
X51984592Y-69143885D01*
X51984592Y-69143885D02*
X52056021Y-69108171D01*
X52056021Y-69108171D02*
X52234592Y-69108171D01*
X52234592Y-69108171D02*
X52306021Y-69143885D01*
X52306021Y-69143885D02*
X52341735Y-69179599D01*
X52341735Y-69179599D02*
X52377450Y-69251028D01*
X52377450Y-69251028D02*
X52377450Y-69393885D01*
X52377450Y-69393885D02*
X52341735Y-69465314D01*
X52341735Y-69465314D02*
X52306021Y-69501028D01*
X52306021Y-69501028D02*
X52234592Y-69536742D01*
X54771364Y-46955200D02*
X54021364Y-46955200D01*
X54021364Y-46955200D02*
X54021364Y-47240914D01*
X54021364Y-47240914D02*
X54057078Y-47312343D01*
X54057078Y-47312343D02*
X54092792Y-47348057D01*
X54092792Y-47348057D02*
X54164221Y-47383771D01*
X54164221Y-47383771D02*
X54271364Y-47383771D01*
X54271364Y-47383771D02*
X54342792Y-47348057D01*
X54342792Y-47348057D02*
X54378507Y-47312343D01*
X54378507Y-47312343D02*
X54414221Y-47240914D01*
X54414221Y-47240914D02*
X54414221Y-46955200D01*
X54021364Y-47633771D02*
X54771364Y-47812343D01*
X54771364Y-47812343D02*
X54235650Y-47955200D01*
X54235650Y-47955200D02*
X54771364Y-48098057D01*
X54771364Y-48098057D02*
X54021364Y-48276629D01*
X54771364Y-48990914D02*
X54414221Y-48740914D01*
X54771364Y-48562343D02*
X54021364Y-48562343D01*
X54021364Y-48562343D02*
X54021364Y-48848057D01*
X54021364Y-48848057D02*
X54057078Y-48919486D01*
X54057078Y-48919486D02*
X54092792Y-48955200D01*
X54092792Y-48955200D02*
X54164221Y-48990914D01*
X54164221Y-48990914D02*
X54271364Y-48990914D01*
X54271364Y-48990914D02*
X54342792Y-48955200D01*
X54342792Y-48955200D02*
X54378507Y-48919486D01*
X54378507Y-48919486D02*
X54414221Y-48848057D01*
X54414221Y-48848057D02*
X54414221Y-48562343D01*
X55131735Y-68035199D02*
X55167450Y-67999485D01*
X55167450Y-67999485D02*
X55203164Y-67892342D01*
X55203164Y-67892342D02*
X55203164Y-67820914D01*
X55203164Y-67820914D02*
X55167450Y-67713771D01*
X55167450Y-67713771D02*
X55096021Y-67642342D01*
X55096021Y-67642342D02*
X55024592Y-67606628D01*
X55024592Y-67606628D02*
X54881735Y-67570914D01*
X54881735Y-67570914D02*
X54774592Y-67570914D01*
X54774592Y-67570914D02*
X54631735Y-67606628D01*
X54631735Y-67606628D02*
X54560307Y-67642342D01*
X54560307Y-67642342D02*
X54488878Y-67713771D01*
X54488878Y-67713771D02*
X54453164Y-67820914D01*
X54453164Y-67820914D02*
X54453164Y-67892342D01*
X54453164Y-67892342D02*
X54488878Y-67999485D01*
X54488878Y-67999485D02*
X54524592Y-68035199D01*
X55203164Y-68356628D02*
X54453164Y-68356628D01*
X54810307Y-68356628D02*
X54810307Y-68785199D01*
X55203164Y-68785199D02*
X54453164Y-68785199D01*
X55203164Y-69535199D02*
X55203164Y-69106628D01*
X55203164Y-69320913D02*
X54453164Y-69320913D01*
X54453164Y-69320913D02*
X54560307Y-69249485D01*
X54560307Y-69249485D02*
X54631735Y-69178056D01*
X54631735Y-69178056D02*
X54667450Y-69106628D01*
X54453164Y-69999485D02*
X54453164Y-70070914D01*
X54453164Y-70070914D02*
X54488878Y-70142342D01*
X54488878Y-70142342D02*
X54524592Y-70178057D01*
X54524592Y-70178057D02*
X54596021Y-70213771D01*
X54596021Y-70213771D02*
X54738878Y-70249485D01*
X54738878Y-70249485D02*
X54917450Y-70249485D01*
X54917450Y-70249485D02*
X55060307Y-70213771D01*
X55060307Y-70213771D02*
X55131735Y-70178057D01*
X55131735Y-70178057D02*
X55167450Y-70142342D01*
X55167450Y-70142342D02*
X55203164Y-70070914D01*
X55203164Y-70070914D02*
X55203164Y-69999485D01*
X55203164Y-69999485D02*
X55167450Y-69928057D01*
X55167450Y-69928057D02*
X55131735Y-69892342D01*
X55131735Y-69892342D02*
X55060307Y-69856628D01*
X55060307Y-69856628D02*
X54917450Y-69820914D01*
X54917450Y-69820914D02*
X54738878Y-69820914D01*
X54738878Y-69820914D02*
X54596021Y-69856628D01*
X54596021Y-69856628D02*
X54524592Y-69892342D01*
X54524592Y-69892342D02*
X54488878Y-69928057D01*
X54488878Y-69928057D02*
X54453164Y-69999485D01*
X57311364Y-46955200D02*
X56561364Y-46955200D01*
X56561364Y-46955200D02*
X56561364Y-47240914D01*
X56561364Y-47240914D02*
X56597078Y-47312343D01*
X56597078Y-47312343D02*
X56632792Y-47348057D01*
X56632792Y-47348057D02*
X56704221Y-47383771D01*
X56704221Y-47383771D02*
X56811364Y-47383771D01*
X56811364Y-47383771D02*
X56882792Y-47348057D01*
X56882792Y-47348057D02*
X56918507Y-47312343D01*
X56918507Y-47312343D02*
X56954221Y-47240914D01*
X56954221Y-47240914D02*
X56954221Y-46955200D01*
X56561364Y-47633771D02*
X57311364Y-47812343D01*
X57311364Y-47812343D02*
X56775650Y-47955200D01*
X56775650Y-47955200D02*
X57311364Y-48098057D01*
X57311364Y-48098057D02*
X56561364Y-48276629D01*
X57311364Y-48990914D02*
X56954221Y-48740914D01*
X57311364Y-48562343D02*
X56561364Y-48562343D01*
X56561364Y-48562343D02*
X56561364Y-48848057D01*
X56561364Y-48848057D02*
X56597078Y-48919486D01*
X56597078Y-48919486D02*
X56632792Y-48955200D01*
X56632792Y-48955200D02*
X56704221Y-48990914D01*
X56704221Y-48990914D02*
X56811364Y-48990914D01*
X56811364Y-48990914D02*
X56882792Y-48955200D01*
X56882792Y-48955200D02*
X56918507Y-48919486D01*
X56918507Y-48919486D02*
X56954221Y-48848057D01*
X56954221Y-48848057D02*
X56954221Y-48562343D01*
X57671735Y-68035199D02*
X57707450Y-67999485D01*
X57707450Y-67999485D02*
X57743164Y-67892342D01*
X57743164Y-67892342D02*
X57743164Y-67820914D01*
X57743164Y-67820914D02*
X57707450Y-67713771D01*
X57707450Y-67713771D02*
X57636021Y-67642342D01*
X57636021Y-67642342D02*
X57564592Y-67606628D01*
X57564592Y-67606628D02*
X57421735Y-67570914D01*
X57421735Y-67570914D02*
X57314592Y-67570914D01*
X57314592Y-67570914D02*
X57171735Y-67606628D01*
X57171735Y-67606628D02*
X57100307Y-67642342D01*
X57100307Y-67642342D02*
X57028878Y-67713771D01*
X57028878Y-67713771D02*
X56993164Y-67820914D01*
X56993164Y-67820914D02*
X56993164Y-67892342D01*
X56993164Y-67892342D02*
X57028878Y-67999485D01*
X57028878Y-67999485D02*
X57064592Y-68035199D01*
X57743164Y-68356628D02*
X56993164Y-68356628D01*
X57350307Y-68356628D02*
X57350307Y-68785199D01*
X57743164Y-68785199D02*
X56993164Y-68785199D01*
X57743164Y-69535199D02*
X57743164Y-69106628D01*
X57743164Y-69320913D02*
X56993164Y-69320913D01*
X56993164Y-69320913D02*
X57100307Y-69249485D01*
X57100307Y-69249485D02*
X57171735Y-69178056D01*
X57171735Y-69178056D02*
X57207450Y-69106628D01*
X57743164Y-70249485D02*
X57743164Y-69820914D01*
X57743164Y-70035199D02*
X56993164Y-70035199D01*
X56993164Y-70035199D02*
X57100307Y-69963771D01*
X57100307Y-69963771D02*
X57171735Y-69892342D01*
X57171735Y-69892342D02*
X57207450Y-69820914D01*
X76112135Y-68112942D02*
X76147850Y-68077228D01*
X76147850Y-68077228D02*
X76183564Y-67970085D01*
X76183564Y-67970085D02*
X76183564Y-67898657D01*
X76183564Y-67898657D02*
X76147850Y-67791514D01*
X76147850Y-67791514D02*
X76076421Y-67720085D01*
X76076421Y-67720085D02*
X76004992Y-67684371D01*
X76004992Y-67684371D02*
X75862135Y-67648657D01*
X75862135Y-67648657D02*
X75754992Y-67648657D01*
X75754992Y-67648657D02*
X75612135Y-67684371D01*
X75612135Y-67684371D02*
X75540707Y-67720085D01*
X75540707Y-67720085D02*
X75469278Y-67791514D01*
X75469278Y-67791514D02*
X75433564Y-67898657D01*
X75433564Y-67898657D02*
X75433564Y-67970085D01*
X75433564Y-67970085D02*
X75469278Y-68077228D01*
X75469278Y-68077228D02*
X75504992Y-68112942D01*
X76183564Y-68434371D02*
X75433564Y-68434371D01*
X75790707Y-68434371D02*
X75790707Y-68862942D01*
X76183564Y-68862942D02*
X75433564Y-68862942D01*
X75683564Y-69541514D02*
X76183564Y-69541514D01*
X75397850Y-69362942D02*
X75933564Y-69184371D01*
X75933564Y-69184371D02*
X75933564Y-69648656D01*
X78652135Y-68112942D02*
X78687850Y-68077228D01*
X78687850Y-68077228D02*
X78723564Y-67970085D01*
X78723564Y-67970085D02*
X78723564Y-67898657D01*
X78723564Y-67898657D02*
X78687850Y-67791514D01*
X78687850Y-67791514D02*
X78616421Y-67720085D01*
X78616421Y-67720085D02*
X78544992Y-67684371D01*
X78544992Y-67684371D02*
X78402135Y-67648657D01*
X78402135Y-67648657D02*
X78294992Y-67648657D01*
X78294992Y-67648657D02*
X78152135Y-67684371D01*
X78152135Y-67684371D02*
X78080707Y-67720085D01*
X78080707Y-67720085D02*
X78009278Y-67791514D01*
X78009278Y-67791514D02*
X77973564Y-67898657D01*
X77973564Y-67898657D02*
X77973564Y-67970085D01*
X77973564Y-67970085D02*
X78009278Y-68077228D01*
X78009278Y-68077228D02*
X78044992Y-68112942D01*
X78723564Y-68434371D02*
X77973564Y-68434371D01*
X78330707Y-68434371D02*
X78330707Y-68862942D01*
X78723564Y-68862942D02*
X77973564Y-68862942D01*
X77973564Y-69577228D02*
X77973564Y-69220085D01*
X77973564Y-69220085D02*
X78330707Y-69184371D01*
X78330707Y-69184371D02*
X78294992Y-69220085D01*
X78294992Y-69220085D02*
X78259278Y-69291514D01*
X78259278Y-69291514D02*
X78259278Y-69470085D01*
X78259278Y-69470085D02*
X78294992Y-69541514D01*
X78294992Y-69541514D02*
X78330707Y-69577228D01*
X78330707Y-69577228D02*
X78402135Y-69612942D01*
X78402135Y-69612942D02*
X78580707Y-69612942D01*
X78580707Y-69612942D02*
X78652135Y-69577228D01*
X78652135Y-69577228D02*
X78687850Y-69541514D01*
X78687850Y-69541514D02*
X78723564Y-69470085D01*
X78723564Y-69470085D02*
X78723564Y-69291514D01*
X78723564Y-69291514D02*
X78687850Y-69220085D01*
X78687850Y-69220085D02*
X78652135Y-69184371D01*
X81192135Y-68112942D02*
X81227850Y-68077228D01*
X81227850Y-68077228D02*
X81263564Y-67970085D01*
X81263564Y-67970085D02*
X81263564Y-67898657D01*
X81263564Y-67898657D02*
X81227850Y-67791514D01*
X81227850Y-67791514D02*
X81156421Y-67720085D01*
X81156421Y-67720085D02*
X81084992Y-67684371D01*
X81084992Y-67684371D02*
X80942135Y-67648657D01*
X80942135Y-67648657D02*
X80834992Y-67648657D01*
X80834992Y-67648657D02*
X80692135Y-67684371D01*
X80692135Y-67684371D02*
X80620707Y-67720085D01*
X80620707Y-67720085D02*
X80549278Y-67791514D01*
X80549278Y-67791514D02*
X80513564Y-67898657D01*
X80513564Y-67898657D02*
X80513564Y-67970085D01*
X80513564Y-67970085D02*
X80549278Y-68077228D01*
X80549278Y-68077228D02*
X80584992Y-68112942D01*
X81263564Y-68434371D02*
X80513564Y-68434371D01*
X80870707Y-68434371D02*
X80870707Y-68862942D01*
X81263564Y-68862942D02*
X80513564Y-68862942D01*
X80513564Y-69541514D02*
X80513564Y-69398656D01*
X80513564Y-69398656D02*
X80549278Y-69327228D01*
X80549278Y-69327228D02*
X80584992Y-69291514D01*
X80584992Y-69291514D02*
X80692135Y-69220085D01*
X80692135Y-69220085D02*
X80834992Y-69184371D01*
X80834992Y-69184371D02*
X81120707Y-69184371D01*
X81120707Y-69184371D02*
X81192135Y-69220085D01*
X81192135Y-69220085D02*
X81227850Y-69255799D01*
X81227850Y-69255799D02*
X81263564Y-69327228D01*
X81263564Y-69327228D02*
X81263564Y-69470085D01*
X81263564Y-69470085D02*
X81227850Y-69541514D01*
X81227850Y-69541514D02*
X81192135Y-69577228D01*
X81192135Y-69577228D02*
X81120707Y-69612942D01*
X81120707Y-69612942D02*
X80942135Y-69612942D01*
X80942135Y-69612942D02*
X80870707Y-69577228D01*
X80870707Y-69577228D02*
X80834992Y-69541514D01*
X80834992Y-69541514D02*
X80799278Y-69470085D01*
X80799278Y-69470085D02*
X80799278Y-69327228D01*
X80799278Y-69327228D02*
X80834992Y-69255799D01*
X80834992Y-69255799D02*
X80870707Y-69220085D01*
X80870707Y-69220085D02*
X80942135Y-69184371D01*
X83732135Y-68112942D02*
X83767850Y-68077228D01*
X83767850Y-68077228D02*
X83803564Y-67970085D01*
X83803564Y-67970085D02*
X83803564Y-67898657D01*
X83803564Y-67898657D02*
X83767850Y-67791514D01*
X83767850Y-67791514D02*
X83696421Y-67720085D01*
X83696421Y-67720085D02*
X83624992Y-67684371D01*
X83624992Y-67684371D02*
X83482135Y-67648657D01*
X83482135Y-67648657D02*
X83374992Y-67648657D01*
X83374992Y-67648657D02*
X83232135Y-67684371D01*
X83232135Y-67684371D02*
X83160707Y-67720085D01*
X83160707Y-67720085D02*
X83089278Y-67791514D01*
X83089278Y-67791514D02*
X83053564Y-67898657D01*
X83053564Y-67898657D02*
X83053564Y-67970085D01*
X83053564Y-67970085D02*
X83089278Y-68077228D01*
X83089278Y-68077228D02*
X83124992Y-68112942D01*
X83803564Y-68434371D02*
X83053564Y-68434371D01*
X83410707Y-68434371D02*
X83410707Y-68862942D01*
X83803564Y-68862942D02*
X83053564Y-68862942D01*
X83053564Y-69148656D02*
X83053564Y-69648656D01*
X83053564Y-69648656D02*
X83803564Y-69327228D01*
X111870564Y-41453715D02*
X111120564Y-41453715D01*
X111120564Y-41453715D02*
X111120564Y-41739429D01*
X111120564Y-41739429D02*
X111156278Y-41810858D01*
X111156278Y-41810858D02*
X111191992Y-41846572D01*
X111191992Y-41846572D02*
X111263421Y-41882286D01*
X111263421Y-41882286D02*
X111370564Y-41882286D01*
X111370564Y-41882286D02*
X111441992Y-41846572D01*
X111441992Y-41846572D02*
X111477707Y-41810858D01*
X111477707Y-41810858D02*
X111513421Y-41739429D01*
X111513421Y-41739429D02*
X111513421Y-41453715D01*
X111120564Y-42132286D02*
X111870564Y-42310858D01*
X111870564Y-42310858D02*
X111334850Y-42453715D01*
X111334850Y-42453715D02*
X111870564Y-42596572D01*
X111870564Y-42596572D02*
X111120564Y-42775144D01*
X111870564Y-43489429D02*
X111513421Y-43239429D01*
X111870564Y-43060858D02*
X111120564Y-43060858D01*
X111120564Y-43060858D02*
X111120564Y-43346572D01*
X111120564Y-43346572D02*
X111156278Y-43418001D01*
X111156278Y-43418001D02*
X111191992Y-43453715D01*
X111191992Y-43453715D02*
X111263421Y-43489429D01*
X111263421Y-43489429D02*
X111370564Y-43489429D01*
X111370564Y-43489429D02*
X111441992Y-43453715D01*
X111441992Y-43453715D02*
X111477707Y-43418001D01*
X111477707Y-43418001D02*
X111513421Y-43346572D01*
X111513421Y-43346572D02*
X111513421Y-43060858D01*
X114414192Y-41453715D02*
X113664192Y-41453715D01*
X113664192Y-41453715D02*
X114199906Y-41703715D01*
X114199906Y-41703715D02*
X113664192Y-41953715D01*
X113664192Y-41953715D02*
X114414192Y-41953715D01*
X114414192Y-42310858D02*
X113664192Y-42310858D01*
X113664192Y-42310858D02*
X114199906Y-42560858D01*
X114199906Y-42560858D02*
X113664192Y-42810858D01*
X113664192Y-42810858D02*
X114414192Y-42810858D01*
X114414192Y-43525144D02*
X114414192Y-43168001D01*
X114414192Y-43168001D02*
X113664192Y-43168001D01*
X113664192Y-43918001D02*
X113664192Y-44060858D01*
X113664192Y-44060858D02*
X113699906Y-44132287D01*
X113699906Y-44132287D02*
X113771335Y-44203715D01*
X113771335Y-44203715D02*
X113914192Y-44239430D01*
X113914192Y-44239430D02*
X114164192Y-44239430D01*
X114164192Y-44239430D02*
X114307049Y-44203715D01*
X114307049Y-44203715D02*
X114378478Y-44132287D01*
X114378478Y-44132287D02*
X114414192Y-44060858D01*
X114414192Y-44060858D02*
X114414192Y-43918001D01*
X114414192Y-43918001D02*
X114378478Y-43846573D01*
X114378478Y-43846573D02*
X114307049Y-43775144D01*
X114307049Y-43775144D02*
X114164192Y-43739430D01*
X114164192Y-43739430D02*
X113914192Y-43739430D01*
X113914192Y-43739430D02*
X113771335Y-43775144D01*
X113771335Y-43775144D02*
X113699906Y-43846573D01*
X113699906Y-43846573D02*
X113664192Y-43918001D01*
X114199906Y-44525144D02*
X114199906Y-44882287D01*
X114414192Y-44453715D02*
X113664192Y-44703715D01*
X113664192Y-44703715D02*
X114414192Y-44953715D01*
X114414192Y-45203715D02*
X113664192Y-45203715D01*
X113664192Y-45203715D02*
X113664192Y-45382286D01*
X113664192Y-45382286D02*
X113699906Y-45489429D01*
X113699906Y-45489429D02*
X113771335Y-45560858D01*
X113771335Y-45560858D02*
X113842763Y-45596572D01*
X113842763Y-45596572D02*
X113985620Y-45632286D01*
X113985620Y-45632286D02*
X114092763Y-45632286D01*
X114092763Y-45632286D02*
X114235620Y-45596572D01*
X114235620Y-45596572D02*
X114307049Y-45560858D01*
X114307049Y-45560858D02*
X114378478Y-45489429D01*
X114378478Y-45489429D02*
X114414192Y-45382286D01*
X114414192Y-45382286D02*
X114414192Y-45203715D01*
X114128478Y-45953715D02*
X114128478Y-46525144D01*
X114414192Y-46239429D02*
X113842763Y-46239429D01*
X116957820Y-41453715D02*
X116207820Y-41453715D01*
X116207820Y-41453715D02*
X116957820Y-41882286D01*
X116957820Y-41882286D02*
X116207820Y-41882286D01*
X116172106Y-42775143D02*
X117136391Y-42132286D01*
X116886391Y-43453714D02*
X116922106Y-43418000D01*
X116922106Y-43418000D02*
X116957820Y-43310857D01*
X116957820Y-43310857D02*
X116957820Y-43239429D01*
X116957820Y-43239429D02*
X116922106Y-43132286D01*
X116922106Y-43132286D02*
X116850677Y-43060857D01*
X116850677Y-43060857D02*
X116779248Y-43025143D01*
X116779248Y-43025143D02*
X116636391Y-42989429D01*
X116636391Y-42989429D02*
X116529248Y-42989429D01*
X116529248Y-42989429D02*
X116386391Y-43025143D01*
X116386391Y-43025143D02*
X116314963Y-43060857D01*
X116314963Y-43060857D02*
X116243534Y-43132286D01*
X116243534Y-43132286D02*
X116207820Y-43239429D01*
X116207820Y-43239429D02*
X116207820Y-43310857D01*
X116207820Y-43310857D02*
X116243534Y-43418000D01*
X116243534Y-43418000D02*
X116279248Y-43453714D01*
X119287364Y-41766829D02*
X118894507Y-41766829D01*
X118894507Y-41766829D02*
X118823078Y-41731114D01*
X118823078Y-41731114D02*
X118787364Y-41659686D01*
X118787364Y-41659686D02*
X118787364Y-41516829D01*
X118787364Y-41516829D02*
X118823078Y-41445400D01*
X119251650Y-41766829D02*
X119287364Y-41695400D01*
X119287364Y-41695400D02*
X119287364Y-41516829D01*
X119287364Y-41516829D02*
X119251650Y-41445400D01*
X119251650Y-41445400D02*
X119180221Y-41409686D01*
X119180221Y-41409686D02*
X119108792Y-41409686D01*
X119108792Y-41409686D02*
X119037364Y-41445400D01*
X119037364Y-41445400D02*
X119001650Y-41516829D01*
X119001650Y-41516829D02*
X119001650Y-41695400D01*
X119001650Y-41695400D02*
X118965935Y-41766829D01*
X119287364Y-42231114D02*
X119251650Y-42159685D01*
X119251650Y-42159685D02*
X119180221Y-42123971D01*
X119180221Y-42123971D02*
X118537364Y-42123971D01*
X119251650Y-42802542D02*
X119287364Y-42731114D01*
X119287364Y-42731114D02*
X119287364Y-42588257D01*
X119287364Y-42588257D02*
X119251650Y-42516828D01*
X119251650Y-42516828D02*
X119180221Y-42481114D01*
X119180221Y-42481114D02*
X118894507Y-42481114D01*
X118894507Y-42481114D02*
X118823078Y-42516828D01*
X118823078Y-42516828D02*
X118787364Y-42588257D01*
X118787364Y-42588257D02*
X118787364Y-42731114D01*
X118787364Y-42731114D02*
X118823078Y-42802542D01*
X118823078Y-42802542D02*
X118894507Y-42838257D01*
X118894507Y-42838257D02*
X118965935Y-42838257D01*
X118965935Y-42838257D02*
X119037364Y-42481114D01*
X119287364Y-43159685D02*
X118787364Y-43159685D01*
X118930221Y-43159685D02*
X118858792Y-43195399D01*
X118858792Y-43195399D02*
X118823078Y-43231114D01*
X118823078Y-43231114D02*
X118787364Y-43302542D01*
X118787364Y-43302542D02*
X118787364Y-43373971D01*
X118787364Y-43516828D02*
X118787364Y-43802542D01*
X118537364Y-43623971D02*
X119180221Y-43623971D01*
X119180221Y-43623971D02*
X119251650Y-43659685D01*
X119251650Y-43659685D02*
X119287364Y-43731114D01*
X119287364Y-43731114D02*
X119287364Y-43802542D01*
X121918650Y-41405686D02*
X121954364Y-41512829D01*
X121954364Y-41512829D02*
X121954364Y-41691400D01*
X121954364Y-41691400D02*
X121918650Y-41762829D01*
X121918650Y-41762829D02*
X121882935Y-41798543D01*
X121882935Y-41798543D02*
X121811507Y-41834257D01*
X121811507Y-41834257D02*
X121740078Y-41834257D01*
X121740078Y-41834257D02*
X121668650Y-41798543D01*
X121668650Y-41798543D02*
X121632935Y-41762829D01*
X121632935Y-41762829D02*
X121597221Y-41691400D01*
X121597221Y-41691400D02*
X121561507Y-41548543D01*
X121561507Y-41548543D02*
X121525792Y-41477114D01*
X121525792Y-41477114D02*
X121490078Y-41441400D01*
X121490078Y-41441400D02*
X121418650Y-41405686D01*
X121418650Y-41405686D02*
X121347221Y-41405686D01*
X121347221Y-41405686D02*
X121275792Y-41441400D01*
X121275792Y-41441400D02*
X121240078Y-41477114D01*
X121240078Y-41477114D02*
X121204364Y-41548543D01*
X121204364Y-41548543D02*
X121204364Y-41727114D01*
X121204364Y-41727114D02*
X121240078Y-41834257D01*
X121954364Y-42155686D02*
X121204364Y-42155686D01*
X121204364Y-42155686D02*
X121204364Y-42334257D01*
X121204364Y-42334257D02*
X121240078Y-42441400D01*
X121240078Y-42441400D02*
X121311507Y-42512829D01*
X121311507Y-42512829D02*
X121382935Y-42548543D01*
X121382935Y-42548543D02*
X121525792Y-42584257D01*
X121525792Y-42584257D02*
X121632935Y-42584257D01*
X121632935Y-42584257D02*
X121775792Y-42548543D01*
X121775792Y-42548543D02*
X121847221Y-42512829D01*
X121847221Y-42512829D02*
X121918650Y-42441400D01*
X121918650Y-42441400D02*
X121954364Y-42334257D01*
X121954364Y-42334257D02*
X121954364Y-42155686D01*
X121740078Y-42869972D02*
X121740078Y-43227115D01*
X121954364Y-42798543D02*
X121204364Y-43048543D01*
X121204364Y-43048543D02*
X121954364Y-43298543D01*
X124484050Y-41398143D02*
X124519764Y-41505286D01*
X124519764Y-41505286D02*
X124519764Y-41683857D01*
X124519764Y-41683857D02*
X124484050Y-41755286D01*
X124484050Y-41755286D02*
X124448335Y-41791000D01*
X124448335Y-41791000D02*
X124376907Y-41826714D01*
X124376907Y-41826714D02*
X124305478Y-41826714D01*
X124305478Y-41826714D02*
X124234050Y-41791000D01*
X124234050Y-41791000D02*
X124198335Y-41755286D01*
X124198335Y-41755286D02*
X124162621Y-41683857D01*
X124162621Y-41683857D02*
X124126907Y-41541000D01*
X124126907Y-41541000D02*
X124091192Y-41469571D01*
X124091192Y-41469571D02*
X124055478Y-41433857D01*
X124055478Y-41433857D02*
X123984050Y-41398143D01*
X123984050Y-41398143D02*
X123912621Y-41398143D01*
X123912621Y-41398143D02*
X123841192Y-41433857D01*
X123841192Y-41433857D02*
X123805478Y-41469571D01*
X123805478Y-41469571D02*
X123769764Y-41541000D01*
X123769764Y-41541000D02*
X123769764Y-41719571D01*
X123769764Y-41719571D02*
X123805478Y-41826714D01*
X124448335Y-42576714D02*
X124484050Y-42541000D01*
X124484050Y-42541000D02*
X124519764Y-42433857D01*
X124519764Y-42433857D02*
X124519764Y-42362429D01*
X124519764Y-42362429D02*
X124484050Y-42255286D01*
X124484050Y-42255286D02*
X124412621Y-42183857D01*
X124412621Y-42183857D02*
X124341192Y-42148143D01*
X124341192Y-42148143D02*
X124198335Y-42112429D01*
X124198335Y-42112429D02*
X124091192Y-42112429D01*
X124091192Y-42112429D02*
X123948335Y-42148143D01*
X123948335Y-42148143D02*
X123876907Y-42183857D01*
X123876907Y-42183857D02*
X123805478Y-42255286D01*
X123805478Y-42255286D02*
X123769764Y-42362429D01*
X123769764Y-42362429D02*
X123769764Y-42433857D01*
X123769764Y-42433857D02*
X123805478Y-42541000D01*
X123805478Y-42541000D02*
X123841192Y-42576714D01*
X124519764Y-43255286D02*
X124519764Y-42898143D01*
X124519764Y-42898143D02*
X123769764Y-42898143D01*
X126418046Y-41846571D02*
X126382332Y-41775143D01*
X126382332Y-41775143D02*
X126382332Y-41668000D01*
X126382332Y-41668000D02*
X126418046Y-41560857D01*
X126418046Y-41560857D02*
X126489475Y-41489428D01*
X126489475Y-41489428D02*
X126560903Y-41453714D01*
X126560903Y-41453714D02*
X126703760Y-41418000D01*
X126703760Y-41418000D02*
X126810903Y-41418000D01*
X126810903Y-41418000D02*
X126953760Y-41453714D01*
X126953760Y-41453714D02*
X127025189Y-41489428D01*
X127025189Y-41489428D02*
X127096618Y-41560857D01*
X127096618Y-41560857D02*
X127132332Y-41668000D01*
X127132332Y-41668000D02*
X127132332Y-41739428D01*
X127132332Y-41739428D02*
X127096618Y-41846571D01*
X127096618Y-41846571D02*
X127060903Y-41882285D01*
X127060903Y-41882285D02*
X126810903Y-41882285D01*
X126810903Y-41882285D02*
X126810903Y-41739428D01*
X127132332Y-42203714D02*
X126382332Y-42203714D01*
X126382332Y-42203714D02*
X127132332Y-42632285D01*
X127132332Y-42632285D02*
X126382332Y-42632285D01*
X127132332Y-42989428D02*
X126382332Y-42989428D01*
X126382332Y-42989428D02*
X126382332Y-43167999D01*
X126382332Y-43167999D02*
X126418046Y-43275142D01*
X126418046Y-43275142D02*
X126489475Y-43346571D01*
X126489475Y-43346571D02*
X126560903Y-43382285D01*
X126560903Y-43382285D02*
X126703760Y-43417999D01*
X126703760Y-43417999D02*
X126810903Y-43417999D01*
X126810903Y-43417999D02*
X126953760Y-43382285D01*
X126953760Y-43382285D02*
X127025189Y-43346571D01*
X127025189Y-43346571D02*
X127096618Y-43275142D01*
X127096618Y-43275142D02*
X127132332Y-43167999D01*
X127132332Y-43167999D02*
X127132332Y-42989428D01*
X128925964Y-41361656D02*
X128925964Y-41825942D01*
X128925964Y-41825942D02*
X129211678Y-41575942D01*
X129211678Y-41575942D02*
X129211678Y-41683085D01*
X129211678Y-41683085D02*
X129247392Y-41754514D01*
X129247392Y-41754514D02*
X129283107Y-41790228D01*
X129283107Y-41790228D02*
X129354535Y-41825942D01*
X129354535Y-41825942D02*
X129533107Y-41825942D01*
X129533107Y-41825942D02*
X129604535Y-41790228D01*
X129604535Y-41790228D02*
X129640250Y-41754514D01*
X129640250Y-41754514D02*
X129675964Y-41683085D01*
X129675964Y-41683085D02*
X129675964Y-41468799D01*
X129675964Y-41468799D02*
X129640250Y-41397371D01*
X129640250Y-41397371D02*
X129604535Y-41361656D01*
X129604535Y-42147371D02*
X129640250Y-42183085D01*
X129640250Y-42183085D02*
X129675964Y-42147371D01*
X129675964Y-42147371D02*
X129640250Y-42111657D01*
X129640250Y-42111657D02*
X129604535Y-42147371D01*
X129604535Y-42147371D02*
X129675964Y-42147371D01*
X128925964Y-42433085D02*
X128925964Y-42897371D01*
X128925964Y-42897371D02*
X129211678Y-42647371D01*
X129211678Y-42647371D02*
X129211678Y-42754514D01*
X129211678Y-42754514D02*
X129247392Y-42825943D01*
X129247392Y-42825943D02*
X129283107Y-42861657D01*
X129283107Y-42861657D02*
X129354535Y-42897371D01*
X129354535Y-42897371D02*
X129533107Y-42897371D01*
X129533107Y-42897371D02*
X129604535Y-42861657D01*
X129604535Y-42861657D02*
X129640250Y-42825943D01*
X129640250Y-42825943D02*
X129675964Y-42754514D01*
X129675964Y-42754514D02*
X129675964Y-42540228D01*
X129675964Y-42540228D02*
X129640250Y-42468800D01*
X129640250Y-42468800D02*
X129604535Y-42433085D01*
X128925964Y-43111657D02*
X129675964Y-43361657D01*
X129675964Y-43361657D02*
X128925964Y-43611657D01*
X7302476Y-37783419D02*
X7778666Y-37783419D01*
X7778666Y-37783419D02*
X7826285Y-38259609D01*
X7826285Y-38259609D02*
X7778666Y-38211990D01*
X7778666Y-38211990D02*
X7683428Y-38164371D01*
X7683428Y-38164371D02*
X7445333Y-38164371D01*
X7445333Y-38164371D02*
X7350095Y-38211990D01*
X7350095Y-38211990D02*
X7302476Y-38259609D01*
X7302476Y-38259609D02*
X7254857Y-38354847D01*
X7254857Y-38354847D02*
X7254857Y-38592942D01*
X7254857Y-38592942D02*
X7302476Y-38688180D01*
X7302476Y-38688180D02*
X7350095Y-38735800D01*
X7350095Y-38735800D02*
X7445333Y-38783419D01*
X7445333Y-38783419D02*
X7683428Y-38783419D01*
X7683428Y-38783419D02*
X7778666Y-38735800D01*
X7778666Y-38735800D02*
X7826285Y-38688180D01*
X6969142Y-37783419D02*
X6635809Y-38783419D01*
X6635809Y-38783419D02*
X6302476Y-37783419D01*
X8724732Y-56411019D02*
X8724732Y-55411019D01*
X8724732Y-55411019D02*
X8343780Y-55411019D01*
X8343780Y-55411019D02*
X8248542Y-55458638D01*
X8248542Y-55458638D02*
X8200923Y-55506257D01*
X8200923Y-55506257D02*
X8153304Y-55601495D01*
X8153304Y-55601495D02*
X8153304Y-55744352D01*
X8153304Y-55744352D02*
X8200923Y-55839590D01*
X8200923Y-55839590D02*
X8248542Y-55887209D01*
X8248542Y-55887209D02*
X8343780Y-55934828D01*
X8343780Y-55934828D02*
X8724732Y-55934828D01*
X7819970Y-55411019D02*
X7581875Y-56411019D01*
X7581875Y-56411019D02*
X7391399Y-55696733D01*
X7391399Y-55696733D02*
X7200923Y-56411019D01*
X7200923Y-56411019D02*
X6962828Y-55411019D01*
X6010447Y-56411019D02*
X6343780Y-55934828D01*
X6581875Y-56411019D02*
X6581875Y-55411019D01*
X6581875Y-55411019D02*
X6200923Y-55411019D01*
X6200923Y-55411019D02*
X6105685Y-55458638D01*
X6105685Y-55458638D02*
X6058066Y-55506257D01*
X6058066Y-55506257D02*
X6010447Y-55601495D01*
X6010447Y-55601495D02*
X6010447Y-55744352D01*
X6010447Y-55744352D02*
X6058066Y-55839590D01*
X6058066Y-55839590D02*
X6105685Y-55887209D01*
X6105685Y-55887209D02*
X6200923Y-55934828D01*
X6200923Y-55934828D02*
X6581875Y-55934828D01*
X8407304Y-26096238D02*
X8502542Y-26048619D01*
X8502542Y-26048619D02*
X8645399Y-26048619D01*
X8645399Y-26048619D02*
X8788256Y-26096238D01*
X8788256Y-26096238D02*
X8883494Y-26191476D01*
X8883494Y-26191476D02*
X8931113Y-26286714D01*
X8931113Y-26286714D02*
X8978732Y-26477190D01*
X8978732Y-26477190D02*
X8978732Y-26620047D01*
X8978732Y-26620047D02*
X8931113Y-26810523D01*
X8931113Y-26810523D02*
X8883494Y-26905761D01*
X8883494Y-26905761D02*
X8788256Y-27001000D01*
X8788256Y-27001000D02*
X8645399Y-27048619D01*
X8645399Y-27048619D02*
X8550161Y-27048619D01*
X8550161Y-27048619D02*
X8407304Y-27001000D01*
X8407304Y-27001000D02*
X8359685Y-26953380D01*
X8359685Y-26953380D02*
X8359685Y-26620047D01*
X8359685Y-26620047D02*
X8550161Y-26620047D01*
X7931113Y-27048619D02*
X7931113Y-26048619D01*
X7931113Y-26048619D02*
X7359685Y-27048619D01*
X7359685Y-27048619D02*
X7359685Y-26048619D01*
X6883494Y-27048619D02*
X6883494Y-26048619D01*
X6883494Y-26048619D02*
X6645399Y-26048619D01*
X6645399Y-26048619D02*
X6502542Y-26096238D01*
X6502542Y-26096238D02*
X6407304Y-26191476D01*
X6407304Y-26191476D02*
X6359685Y-26286714D01*
X6359685Y-26286714D02*
X6312066Y-26477190D01*
X6312066Y-26477190D02*
X6312066Y-26620047D01*
X6312066Y-26620047D02*
X6359685Y-26810523D01*
X6359685Y-26810523D02*
X6407304Y-26905761D01*
X6407304Y-26905761D02*
X6502542Y-27001000D01*
X6502542Y-27001000D02*
X6645399Y-27048619D01*
X6645399Y-27048619D02*
X6883494Y-27048619D01*
X8264447Y-44696539D02*
X8835875Y-44696539D01*
X8550161Y-44696539D02*
X8550161Y-43696539D01*
X8550161Y-43696539D02*
X8645399Y-43839396D01*
X8645399Y-43839396D02*
X8740637Y-43934634D01*
X8740637Y-43934634D02*
X8835875Y-43982253D01*
X7883494Y-43791777D02*
X7835875Y-43744158D01*
X7835875Y-43744158D02*
X7740637Y-43696539D01*
X7740637Y-43696539D02*
X7502542Y-43696539D01*
X7502542Y-43696539D02*
X7407304Y-43744158D01*
X7407304Y-43744158D02*
X7359685Y-43791777D01*
X7359685Y-43791777D02*
X7312066Y-43887015D01*
X7312066Y-43887015D02*
X7312066Y-43982253D01*
X7312066Y-43982253D02*
X7359685Y-44125110D01*
X7359685Y-44125110D02*
X7931113Y-44696539D01*
X7931113Y-44696539D02*
X7312066Y-44696539D01*
X7026351Y-43696539D02*
X6693018Y-44696539D01*
X6693018Y-44696539D02*
X6359685Y-43696539D01*
X9223189Y-31890619D02*
X8604142Y-31890619D01*
X8604142Y-31890619D02*
X8937475Y-32271571D01*
X8937475Y-32271571D02*
X8794618Y-32271571D01*
X8794618Y-32271571D02*
X8699380Y-32319190D01*
X8699380Y-32319190D02*
X8651761Y-32366809D01*
X8651761Y-32366809D02*
X8604142Y-32462047D01*
X8604142Y-32462047D02*
X8604142Y-32700142D01*
X8604142Y-32700142D02*
X8651761Y-32795380D01*
X8651761Y-32795380D02*
X8699380Y-32843000D01*
X8699380Y-32843000D02*
X8794618Y-32890619D01*
X8794618Y-32890619D02*
X9080332Y-32890619D01*
X9080332Y-32890619D02*
X9175570Y-32843000D01*
X9175570Y-32843000D02*
X9223189Y-32795380D01*
X8175570Y-32795380D02*
X8127951Y-32843000D01*
X8127951Y-32843000D02*
X8175570Y-32890619D01*
X8175570Y-32890619D02*
X8223189Y-32843000D01*
X8223189Y-32843000D02*
X8175570Y-32795380D01*
X8175570Y-32795380D02*
X8175570Y-32890619D01*
X7794618Y-31890619D02*
X7175571Y-31890619D01*
X7175571Y-31890619D02*
X7508904Y-32271571D01*
X7508904Y-32271571D02*
X7366047Y-32271571D01*
X7366047Y-32271571D02*
X7270809Y-32319190D01*
X7270809Y-32319190D02*
X7223190Y-32366809D01*
X7223190Y-32366809D02*
X7175571Y-32462047D01*
X7175571Y-32462047D02*
X7175571Y-32700142D01*
X7175571Y-32700142D02*
X7223190Y-32795380D01*
X7223190Y-32795380D02*
X7270809Y-32843000D01*
X7270809Y-32843000D02*
X7366047Y-32890619D01*
X7366047Y-32890619D02*
X7651761Y-32890619D01*
X7651761Y-32890619D02*
X7746999Y-32843000D01*
X7746999Y-32843000D02*
X7794618Y-32795380D01*
X6889856Y-31890619D02*
X6556523Y-32890619D01*
X6556523Y-32890619D02*
X6223190Y-31890619D01*
X9496228Y-48953009D02*
X9353371Y-49000628D01*
X9353371Y-49000628D02*
X9305752Y-49048247D01*
X9305752Y-49048247D02*
X9258133Y-49143485D01*
X9258133Y-49143485D02*
X9258133Y-49286342D01*
X9258133Y-49286342D02*
X9305752Y-49381580D01*
X9305752Y-49381580D02*
X9353371Y-49429200D01*
X9353371Y-49429200D02*
X9448609Y-49476819D01*
X9448609Y-49476819D02*
X9829561Y-49476819D01*
X9829561Y-49476819D02*
X9829561Y-48476819D01*
X9829561Y-48476819D02*
X9496228Y-48476819D01*
X9496228Y-48476819D02*
X9400990Y-48524438D01*
X9400990Y-48524438D02*
X9353371Y-48572057D01*
X9353371Y-48572057D02*
X9305752Y-48667295D01*
X9305752Y-48667295D02*
X9305752Y-48762533D01*
X9305752Y-48762533D02*
X9353371Y-48857771D01*
X9353371Y-48857771D02*
X9400990Y-48905390D01*
X9400990Y-48905390D02*
X9496228Y-48953009D01*
X9496228Y-48953009D02*
X9829561Y-48953009D01*
X8400990Y-49476819D02*
X8400990Y-48953009D01*
X8400990Y-48953009D02*
X8448609Y-48857771D01*
X8448609Y-48857771D02*
X8543847Y-48810152D01*
X8543847Y-48810152D02*
X8734323Y-48810152D01*
X8734323Y-48810152D02*
X8829561Y-48857771D01*
X8400990Y-49429200D02*
X8496228Y-49476819D01*
X8496228Y-49476819D02*
X8734323Y-49476819D01*
X8734323Y-49476819D02*
X8829561Y-49429200D01*
X8829561Y-49429200D02*
X8877180Y-49333961D01*
X8877180Y-49333961D02*
X8877180Y-49238723D01*
X8877180Y-49238723D02*
X8829561Y-49143485D01*
X8829561Y-49143485D02*
X8734323Y-49095866D01*
X8734323Y-49095866D02*
X8496228Y-49095866D01*
X8496228Y-49095866D02*
X8400990Y-49048247D01*
X8067656Y-48810152D02*
X7686704Y-48810152D01*
X7924799Y-48476819D02*
X7924799Y-49333961D01*
X7924799Y-49333961D02*
X7877180Y-49429200D01*
X7877180Y-49429200D02*
X7781942Y-49476819D01*
X7781942Y-49476819D02*
X7686704Y-49476819D01*
X7496227Y-48810152D02*
X7115275Y-48810152D01*
X7353370Y-48476819D02*
X7353370Y-49333961D01*
X7353370Y-49333961D02*
X7305751Y-49429200D01*
X7305751Y-49429200D02*
X7210513Y-49476819D01*
X7210513Y-49476819D02*
X7115275Y-49476819D01*
X6781941Y-49095866D02*
X6020037Y-49095866D01*
X6400989Y-49476819D02*
X6400989Y-48714914D01*
X139443619Y-28136008D02*
X138967428Y-27802675D01*
X139443619Y-27564580D02*
X138443619Y-27564580D01*
X138443619Y-27564580D02*
X138443619Y-27945532D01*
X138443619Y-27945532D02*
X138491238Y-28040770D01*
X138491238Y-28040770D02*
X138538857Y-28088389D01*
X138538857Y-28088389D02*
X138634095Y-28136008D01*
X138634095Y-28136008D02*
X138776952Y-28136008D01*
X138776952Y-28136008D02*
X138872190Y-28088389D01*
X138872190Y-28088389D02*
X138919809Y-28040770D01*
X138919809Y-28040770D02*
X138967428Y-27945532D01*
X138967428Y-27945532D02*
X138967428Y-27564580D01*
X139348380Y-29136008D02*
X139396000Y-29088389D01*
X139396000Y-29088389D02*
X139443619Y-28945532D01*
X139443619Y-28945532D02*
X139443619Y-28850294D01*
X139443619Y-28850294D02*
X139396000Y-28707437D01*
X139396000Y-28707437D02*
X139300761Y-28612199D01*
X139300761Y-28612199D02*
X139205523Y-28564580D01*
X139205523Y-28564580D02*
X139015047Y-28516961D01*
X139015047Y-28516961D02*
X138872190Y-28516961D01*
X138872190Y-28516961D02*
X138681714Y-28564580D01*
X138681714Y-28564580D02*
X138586476Y-28612199D01*
X138586476Y-28612199D02*
X138491238Y-28707437D01*
X138491238Y-28707437D02*
X138443619Y-28850294D01*
X138443619Y-28850294D02*
X138443619Y-28945532D01*
X138443619Y-28945532D02*
X138491238Y-29088389D01*
X138491238Y-29088389D02*
X138538857Y-29136008D01*
X138443619Y-29469342D02*
X138443619Y-30088389D01*
X138443619Y-30088389D02*
X138824571Y-29755056D01*
X138824571Y-29755056D02*
X138824571Y-29897913D01*
X138824571Y-29897913D02*
X138872190Y-29993151D01*
X138872190Y-29993151D02*
X138919809Y-30040770D01*
X138919809Y-30040770D02*
X139015047Y-30088389D01*
X139015047Y-30088389D02*
X139253142Y-30088389D01*
X139253142Y-30088389D02*
X139348380Y-30040770D01*
X139348380Y-30040770D02*
X139396000Y-29993151D01*
X139396000Y-29993151D02*
X139443619Y-29897913D01*
X139443619Y-29897913D02*
X139443619Y-29612199D01*
X139443619Y-29612199D02*
X139396000Y-29516961D01*
X139396000Y-29516961D02*
X139348380Y-29469342D01*
X139443619Y-31278866D02*
X138443619Y-31278866D01*
X138443619Y-31278866D02*
X139157904Y-31612199D01*
X139157904Y-31612199D02*
X138443619Y-31945532D01*
X138443619Y-31945532D02*
X139443619Y-31945532D01*
X139443619Y-32564580D02*
X139396000Y-32469342D01*
X139396000Y-32469342D02*
X139348380Y-32421723D01*
X139348380Y-32421723D02*
X139253142Y-32374104D01*
X139253142Y-32374104D02*
X138967428Y-32374104D01*
X138967428Y-32374104D02*
X138872190Y-32421723D01*
X138872190Y-32421723D02*
X138824571Y-32469342D01*
X138824571Y-32469342D02*
X138776952Y-32564580D01*
X138776952Y-32564580D02*
X138776952Y-32707437D01*
X138776952Y-32707437D02*
X138824571Y-32802675D01*
X138824571Y-32802675D02*
X138872190Y-32850294D01*
X138872190Y-32850294D02*
X138967428Y-32897913D01*
X138967428Y-32897913D02*
X139253142Y-32897913D01*
X139253142Y-32897913D02*
X139348380Y-32850294D01*
X139348380Y-32850294D02*
X139396000Y-32802675D01*
X139396000Y-32802675D02*
X139443619Y-32707437D01*
X139443619Y-32707437D02*
X139443619Y-32564580D01*
X138776952Y-33183628D02*
X138776952Y-33564580D01*
X138443619Y-33326485D02*
X139300761Y-33326485D01*
X139300761Y-33326485D02*
X139396000Y-33374104D01*
X139396000Y-33374104D02*
X139443619Y-33469342D01*
X139443619Y-33469342D02*
X139443619Y-33564580D01*
X139443619Y-34040771D02*
X139396000Y-33945533D01*
X139396000Y-33945533D02*
X139348380Y-33897914D01*
X139348380Y-33897914D02*
X139253142Y-33850295D01*
X139253142Y-33850295D02*
X138967428Y-33850295D01*
X138967428Y-33850295D02*
X138872190Y-33897914D01*
X138872190Y-33897914D02*
X138824571Y-33945533D01*
X138824571Y-33945533D02*
X138776952Y-34040771D01*
X138776952Y-34040771D02*
X138776952Y-34183628D01*
X138776952Y-34183628D02*
X138824571Y-34278866D01*
X138824571Y-34278866D02*
X138872190Y-34326485D01*
X138872190Y-34326485D02*
X138967428Y-34374104D01*
X138967428Y-34374104D02*
X139253142Y-34374104D01*
X139253142Y-34374104D02*
X139348380Y-34326485D01*
X139348380Y-34326485D02*
X139396000Y-34278866D01*
X139396000Y-34278866D02*
X139443619Y-34183628D01*
X139443619Y-34183628D02*
X139443619Y-34040771D01*
X139443619Y-34802676D02*
X138776952Y-34802676D01*
X138967428Y-34802676D02*
X138872190Y-34850295D01*
X138872190Y-34850295D02*
X138824571Y-34897914D01*
X138824571Y-34897914D02*
X138776952Y-34993152D01*
X138776952Y-34993152D02*
X138776952Y-35088390D01*
X139396000Y-36136010D02*
X139443619Y-36278867D01*
X139443619Y-36278867D02*
X139443619Y-36516962D01*
X139443619Y-36516962D02*
X139396000Y-36612200D01*
X139396000Y-36612200D02*
X139348380Y-36659819D01*
X139348380Y-36659819D02*
X139253142Y-36707438D01*
X139253142Y-36707438D02*
X139157904Y-36707438D01*
X139157904Y-36707438D02*
X139062666Y-36659819D01*
X139062666Y-36659819D02*
X139015047Y-36612200D01*
X139015047Y-36612200D02*
X138967428Y-36516962D01*
X138967428Y-36516962D02*
X138919809Y-36326486D01*
X138919809Y-36326486D02*
X138872190Y-36231248D01*
X138872190Y-36231248D02*
X138824571Y-36183629D01*
X138824571Y-36183629D02*
X138729333Y-36136010D01*
X138729333Y-36136010D02*
X138634095Y-36136010D01*
X138634095Y-36136010D02*
X138538857Y-36183629D01*
X138538857Y-36183629D02*
X138491238Y-36231248D01*
X138491238Y-36231248D02*
X138443619Y-36326486D01*
X138443619Y-36326486D02*
X138443619Y-36564581D01*
X138443619Y-36564581D02*
X138491238Y-36707438D01*
X138776952Y-37564581D02*
X139443619Y-37564581D01*
X138776952Y-37136010D02*
X139300761Y-37136010D01*
X139300761Y-37136010D02*
X139396000Y-37183629D01*
X139396000Y-37183629D02*
X139443619Y-37278867D01*
X139443619Y-37278867D02*
X139443619Y-37421724D01*
X139443619Y-37421724D02*
X139396000Y-37516962D01*
X139396000Y-37516962D02*
X139348380Y-37564581D01*
X138776952Y-38040772D02*
X139776952Y-38040772D01*
X138824571Y-38040772D02*
X138776952Y-38136010D01*
X138776952Y-38136010D02*
X138776952Y-38326486D01*
X138776952Y-38326486D02*
X138824571Y-38421724D01*
X138824571Y-38421724D02*
X138872190Y-38469343D01*
X138872190Y-38469343D02*
X138967428Y-38516962D01*
X138967428Y-38516962D02*
X139253142Y-38516962D01*
X139253142Y-38516962D02*
X139348380Y-38469343D01*
X139348380Y-38469343D02*
X139396000Y-38421724D01*
X139396000Y-38421724D02*
X139443619Y-38326486D01*
X139443619Y-38326486D02*
X139443619Y-38136010D01*
X139443619Y-38136010D02*
X139396000Y-38040772D01*
X138776952Y-38945534D02*
X139776952Y-38945534D01*
X138824571Y-38945534D02*
X138776952Y-39040772D01*
X138776952Y-39040772D02*
X138776952Y-39231248D01*
X138776952Y-39231248D02*
X138824571Y-39326486D01*
X138824571Y-39326486D02*
X138872190Y-39374105D01*
X138872190Y-39374105D02*
X138967428Y-39421724D01*
X138967428Y-39421724D02*
X139253142Y-39421724D01*
X139253142Y-39421724D02*
X139348380Y-39374105D01*
X139348380Y-39374105D02*
X139396000Y-39326486D01*
X139396000Y-39326486D02*
X139443619Y-39231248D01*
X139443619Y-39231248D02*
X139443619Y-39040772D01*
X139443619Y-39040772D02*
X139396000Y-38945534D01*
X139443619Y-39993153D02*
X139396000Y-39897915D01*
X139396000Y-39897915D02*
X139300761Y-39850296D01*
X139300761Y-39850296D02*
X138443619Y-39850296D01*
X138776952Y-40278868D02*
X139443619Y-40516963D01*
X138776952Y-40755058D02*
X139443619Y-40516963D01*
X139443619Y-40516963D02*
X139681714Y-40421725D01*
X139681714Y-40421725D02*
X139729333Y-40374106D01*
X139729333Y-40374106D02*
X139776952Y-40278868D01*
X215227475Y-61944353D02*
X214751284Y-61611020D01*
X215227475Y-61372925D02*
X214227475Y-61372925D01*
X214227475Y-61372925D02*
X214227475Y-61753877D01*
X214227475Y-61753877D02*
X214275094Y-61849115D01*
X214275094Y-61849115D02*
X214322713Y-61896734D01*
X214322713Y-61896734D02*
X214417951Y-61944353D01*
X214417951Y-61944353D02*
X214560808Y-61944353D01*
X214560808Y-61944353D02*
X214656046Y-61896734D01*
X214656046Y-61896734D02*
X214703665Y-61849115D01*
X214703665Y-61849115D02*
X214751284Y-61753877D01*
X214751284Y-61753877D02*
X214751284Y-61372925D01*
X215132236Y-62944353D02*
X215179856Y-62896734D01*
X215179856Y-62896734D02*
X215227475Y-62753877D01*
X215227475Y-62753877D02*
X215227475Y-62658639D01*
X215227475Y-62658639D02*
X215179856Y-62515782D01*
X215179856Y-62515782D02*
X215084617Y-62420544D01*
X215084617Y-62420544D02*
X214989379Y-62372925D01*
X214989379Y-62372925D02*
X214798903Y-62325306D01*
X214798903Y-62325306D02*
X214656046Y-62325306D01*
X214656046Y-62325306D02*
X214465570Y-62372925D01*
X214465570Y-62372925D02*
X214370332Y-62420544D01*
X214370332Y-62420544D02*
X214275094Y-62515782D01*
X214275094Y-62515782D02*
X214227475Y-62658639D01*
X214227475Y-62658639D02*
X214227475Y-62753877D01*
X214227475Y-62753877D02*
X214275094Y-62896734D01*
X214275094Y-62896734D02*
X214322713Y-62944353D01*
X214322713Y-63325306D02*
X214275094Y-63372925D01*
X214275094Y-63372925D02*
X214227475Y-63468163D01*
X214227475Y-63468163D02*
X214227475Y-63706258D01*
X214227475Y-63706258D02*
X214275094Y-63801496D01*
X214275094Y-63801496D02*
X214322713Y-63849115D01*
X214322713Y-63849115D02*
X214417951Y-63896734D01*
X214417951Y-63896734D02*
X214513189Y-63896734D01*
X214513189Y-63896734D02*
X214656046Y-63849115D01*
X214656046Y-63849115D02*
X215227475Y-63277687D01*
X215227475Y-63277687D02*
X215227475Y-63896734D01*
X216837419Y-60182448D02*
X215837419Y-60182448D01*
X215837419Y-60182448D02*
X216551704Y-60515781D01*
X216551704Y-60515781D02*
X215837419Y-60849114D01*
X215837419Y-60849114D02*
X216837419Y-60849114D01*
X216837419Y-61468162D02*
X216789800Y-61372924D01*
X216789800Y-61372924D02*
X216742180Y-61325305D01*
X216742180Y-61325305D02*
X216646942Y-61277686D01*
X216646942Y-61277686D02*
X216361228Y-61277686D01*
X216361228Y-61277686D02*
X216265990Y-61325305D01*
X216265990Y-61325305D02*
X216218371Y-61372924D01*
X216218371Y-61372924D02*
X216170752Y-61468162D01*
X216170752Y-61468162D02*
X216170752Y-61611019D01*
X216170752Y-61611019D02*
X216218371Y-61706257D01*
X216218371Y-61706257D02*
X216265990Y-61753876D01*
X216265990Y-61753876D02*
X216361228Y-61801495D01*
X216361228Y-61801495D02*
X216646942Y-61801495D01*
X216646942Y-61801495D02*
X216742180Y-61753876D01*
X216742180Y-61753876D02*
X216789800Y-61706257D01*
X216789800Y-61706257D02*
X216837419Y-61611019D01*
X216837419Y-61611019D02*
X216837419Y-61468162D01*
X216170752Y-62087210D02*
X216170752Y-62468162D01*
X215837419Y-62230067D02*
X216694561Y-62230067D01*
X216694561Y-62230067D02*
X216789800Y-62277686D01*
X216789800Y-62277686D02*
X216837419Y-62372924D01*
X216837419Y-62372924D02*
X216837419Y-62468162D01*
X216837419Y-62944353D02*
X216789800Y-62849115D01*
X216789800Y-62849115D02*
X216742180Y-62801496D01*
X216742180Y-62801496D02*
X216646942Y-62753877D01*
X216646942Y-62753877D02*
X216361228Y-62753877D01*
X216361228Y-62753877D02*
X216265990Y-62801496D01*
X216265990Y-62801496D02*
X216218371Y-62849115D01*
X216218371Y-62849115D02*
X216170752Y-62944353D01*
X216170752Y-62944353D02*
X216170752Y-63087210D01*
X216170752Y-63087210D02*
X216218371Y-63182448D01*
X216218371Y-63182448D02*
X216265990Y-63230067D01*
X216265990Y-63230067D02*
X216361228Y-63277686D01*
X216361228Y-63277686D02*
X216646942Y-63277686D01*
X216646942Y-63277686D02*
X216742180Y-63230067D01*
X216742180Y-63230067D02*
X216789800Y-63182448D01*
X216789800Y-63182448D02*
X216837419Y-63087210D01*
X216837419Y-63087210D02*
X216837419Y-62944353D01*
X216837419Y-63706258D02*
X216170752Y-63706258D01*
X216361228Y-63706258D02*
X216265990Y-63753877D01*
X216265990Y-63753877D02*
X216218371Y-63801496D01*
X216218371Y-63801496D02*
X216170752Y-63896734D01*
X216170752Y-63896734D02*
X216170752Y-63991972D01*
X218399744Y-60087210D02*
X218447363Y-60230067D01*
X218447363Y-60230067D02*
X218447363Y-60468162D01*
X218447363Y-60468162D02*
X218399744Y-60563400D01*
X218399744Y-60563400D02*
X218352124Y-60611019D01*
X218352124Y-60611019D02*
X218256886Y-60658638D01*
X218256886Y-60658638D02*
X218161648Y-60658638D01*
X218161648Y-60658638D02*
X218066410Y-60611019D01*
X218066410Y-60611019D02*
X218018791Y-60563400D01*
X218018791Y-60563400D02*
X217971172Y-60468162D01*
X217971172Y-60468162D02*
X217923553Y-60277686D01*
X217923553Y-60277686D02*
X217875934Y-60182448D01*
X217875934Y-60182448D02*
X217828315Y-60134829D01*
X217828315Y-60134829D02*
X217733077Y-60087210D01*
X217733077Y-60087210D02*
X217637839Y-60087210D01*
X217637839Y-60087210D02*
X217542601Y-60134829D01*
X217542601Y-60134829D02*
X217494982Y-60182448D01*
X217494982Y-60182448D02*
X217447363Y-60277686D01*
X217447363Y-60277686D02*
X217447363Y-60515781D01*
X217447363Y-60515781D02*
X217494982Y-60658638D01*
X217780696Y-61515781D02*
X218447363Y-61515781D01*
X217780696Y-61087210D02*
X218304505Y-61087210D01*
X218304505Y-61087210D02*
X218399744Y-61134829D01*
X218399744Y-61134829D02*
X218447363Y-61230067D01*
X218447363Y-61230067D02*
X218447363Y-61372924D01*
X218447363Y-61372924D02*
X218399744Y-61468162D01*
X218399744Y-61468162D02*
X218352124Y-61515781D01*
X217780696Y-61991972D02*
X218780696Y-61991972D01*
X217828315Y-61991972D02*
X217780696Y-62087210D01*
X217780696Y-62087210D02*
X217780696Y-62277686D01*
X217780696Y-62277686D02*
X217828315Y-62372924D01*
X217828315Y-62372924D02*
X217875934Y-62420543D01*
X217875934Y-62420543D02*
X217971172Y-62468162D01*
X217971172Y-62468162D02*
X218256886Y-62468162D01*
X218256886Y-62468162D02*
X218352124Y-62420543D01*
X218352124Y-62420543D02*
X218399744Y-62372924D01*
X218399744Y-62372924D02*
X218447363Y-62277686D01*
X218447363Y-62277686D02*
X218447363Y-62087210D01*
X218447363Y-62087210D02*
X218399744Y-61991972D01*
X217780696Y-62896734D02*
X218780696Y-62896734D01*
X217828315Y-62896734D02*
X217780696Y-62991972D01*
X217780696Y-62991972D02*
X217780696Y-63182448D01*
X217780696Y-63182448D02*
X217828315Y-63277686D01*
X217828315Y-63277686D02*
X217875934Y-63325305D01*
X217875934Y-63325305D02*
X217971172Y-63372924D01*
X217971172Y-63372924D02*
X218256886Y-63372924D01*
X218256886Y-63372924D02*
X218352124Y-63325305D01*
X218352124Y-63325305D02*
X218399744Y-63277686D01*
X218399744Y-63277686D02*
X218447363Y-63182448D01*
X218447363Y-63182448D02*
X218447363Y-62991972D01*
X218447363Y-62991972D02*
X218399744Y-62896734D01*
X218447363Y-63944353D02*
X218399744Y-63849115D01*
X218399744Y-63849115D02*
X218304505Y-63801496D01*
X218304505Y-63801496D02*
X217447363Y-63801496D01*
X217780696Y-64230068D02*
X218447363Y-64468163D01*
X217780696Y-64706258D02*
X218447363Y-64468163D01*
X218447363Y-64468163D02*
X218685458Y-64372925D01*
X218685458Y-64372925D02*
X218733077Y-64325306D01*
X218733077Y-64325306D02*
X218780696Y-64230068D01*
D11*
X42501770Y-12693728D02*
X43216056Y-12693728D01*
X43216056Y-12693728D02*
X43287484Y-13408014D01*
X43287484Y-13408014D02*
X43216056Y-13336585D01*
X43216056Y-13336585D02*
X43073199Y-13265157D01*
X43073199Y-13265157D02*
X42716056Y-13265157D01*
X42716056Y-13265157D02*
X42573199Y-13336585D01*
X42573199Y-13336585D02*
X42501770Y-13408014D01*
X42501770Y-13408014D02*
X42430341Y-13550871D01*
X42430341Y-13550871D02*
X42430341Y-13908014D01*
X42430341Y-13908014D02*
X42501770Y-14050871D01*
X42501770Y-14050871D02*
X42573199Y-14122300D01*
X42573199Y-14122300D02*
X42716056Y-14193728D01*
X42716056Y-14193728D02*
X43073199Y-14193728D01*
X43073199Y-14193728D02*
X43216056Y-14122300D01*
X43216056Y-14122300D02*
X43287484Y-14050871D01*
X42001770Y-12693728D02*
X41501770Y-14193728D01*
X41501770Y-14193728D02*
X41001770Y-12693728D01*
X38501771Y-14193728D02*
X39001771Y-13479442D01*
X39358914Y-14193728D02*
X39358914Y-12693728D01*
X39358914Y-12693728D02*
X38787485Y-12693728D01*
X38787485Y-12693728D02*
X38644628Y-12765157D01*
X38644628Y-12765157D02*
X38573199Y-12836585D01*
X38573199Y-12836585D02*
X38501771Y-12979442D01*
X38501771Y-12979442D02*
X38501771Y-13193728D01*
X38501771Y-13193728D02*
X38573199Y-13336585D01*
X38573199Y-13336585D02*
X38644628Y-13408014D01*
X38644628Y-13408014D02*
X38787485Y-13479442D01*
X38787485Y-13479442D02*
X39358914Y-13479442D01*
X37287485Y-14122300D02*
X37430342Y-14193728D01*
X37430342Y-14193728D02*
X37716057Y-14193728D01*
X37716057Y-14193728D02*
X37858914Y-14122300D01*
X37858914Y-14122300D02*
X37930342Y-13979442D01*
X37930342Y-13979442D02*
X37930342Y-13408014D01*
X37930342Y-13408014D02*
X37858914Y-13265157D01*
X37858914Y-13265157D02*
X37716057Y-13193728D01*
X37716057Y-13193728D02*
X37430342Y-13193728D01*
X37430342Y-13193728D02*
X37287485Y-13265157D01*
X37287485Y-13265157D02*
X37216057Y-13408014D01*
X37216057Y-13408014D02*
X37216057Y-13550871D01*
X37216057Y-13550871D02*
X37930342Y-13693728D01*
X35930343Y-13193728D02*
X35930343Y-14408014D01*
X35930343Y-14408014D02*
X36001771Y-14550871D01*
X36001771Y-14550871D02*
X36073200Y-14622300D01*
X36073200Y-14622300D02*
X36216057Y-14693728D01*
X36216057Y-14693728D02*
X36430343Y-14693728D01*
X36430343Y-14693728D02*
X36573200Y-14622300D01*
X35930343Y-14122300D02*
X36073200Y-14193728D01*
X36073200Y-14193728D02*
X36358914Y-14193728D01*
X36358914Y-14193728D02*
X36501771Y-14122300D01*
X36501771Y-14122300D02*
X36573200Y-14050871D01*
X36573200Y-14050871D02*
X36644628Y-13908014D01*
X36644628Y-13908014D02*
X36644628Y-13479442D01*
X36644628Y-13479442D02*
X36573200Y-13336585D01*
X36573200Y-13336585D02*
X36501771Y-13265157D01*
X36501771Y-13265157D02*
X36358914Y-13193728D01*
X36358914Y-13193728D02*
X36073200Y-13193728D01*
X36073200Y-13193728D02*
X35930343Y-13265157D01*
X77968027Y-19603928D02*
X78825170Y-19603928D01*
X78396599Y-19603928D02*
X78396599Y-18103928D01*
X78396599Y-18103928D02*
X78539456Y-18318214D01*
X78539456Y-18318214D02*
X78682313Y-18461071D01*
X78682313Y-18461071D02*
X78825170Y-18532500D01*
X77396599Y-18246785D02*
X77325171Y-18175357D01*
X77325171Y-18175357D02*
X77182314Y-18103928D01*
X77182314Y-18103928D02*
X76825171Y-18103928D01*
X76825171Y-18103928D02*
X76682314Y-18175357D01*
X76682314Y-18175357D02*
X76610885Y-18246785D01*
X76610885Y-18246785D02*
X76539456Y-18389642D01*
X76539456Y-18389642D02*
X76539456Y-18532500D01*
X76539456Y-18532500D02*
X76610885Y-18746785D01*
X76610885Y-18746785D02*
X77468028Y-19603928D01*
X77468028Y-19603928D02*
X76539456Y-19603928D01*
X76110885Y-18103928D02*
X75610885Y-19603928D01*
X75610885Y-19603928D02*
X75110885Y-18103928D01*
X72610886Y-19603928D02*
X73110886Y-18889642D01*
X73468029Y-19603928D02*
X73468029Y-18103928D01*
X73468029Y-18103928D02*
X72896600Y-18103928D01*
X72896600Y-18103928D02*
X72753743Y-18175357D01*
X72753743Y-18175357D02*
X72682314Y-18246785D01*
X72682314Y-18246785D02*
X72610886Y-18389642D01*
X72610886Y-18389642D02*
X72610886Y-18603928D01*
X72610886Y-18603928D02*
X72682314Y-18746785D01*
X72682314Y-18746785D02*
X72753743Y-18818214D01*
X72753743Y-18818214D02*
X72896600Y-18889642D01*
X72896600Y-18889642D02*
X73468029Y-18889642D01*
X71396600Y-19532500D02*
X71539457Y-19603928D01*
X71539457Y-19603928D02*
X71825172Y-19603928D01*
X71825172Y-19603928D02*
X71968029Y-19532500D01*
X71968029Y-19532500D02*
X72039457Y-19389642D01*
X72039457Y-19389642D02*
X72039457Y-18818214D01*
X72039457Y-18818214D02*
X71968029Y-18675357D01*
X71968029Y-18675357D02*
X71825172Y-18603928D01*
X71825172Y-18603928D02*
X71539457Y-18603928D01*
X71539457Y-18603928D02*
X71396600Y-18675357D01*
X71396600Y-18675357D02*
X71325172Y-18818214D01*
X71325172Y-18818214D02*
X71325172Y-18961071D01*
X71325172Y-18961071D02*
X72039457Y-19103928D01*
X70039458Y-18603928D02*
X70039458Y-19818214D01*
X70039458Y-19818214D02*
X70110886Y-19961071D01*
X70110886Y-19961071D02*
X70182315Y-20032500D01*
X70182315Y-20032500D02*
X70325172Y-20103928D01*
X70325172Y-20103928D02*
X70539458Y-20103928D01*
X70539458Y-20103928D02*
X70682315Y-20032500D01*
X70039458Y-19532500D02*
X70182315Y-19603928D01*
X70182315Y-19603928D02*
X70468029Y-19603928D01*
X70468029Y-19603928D02*
X70610886Y-19532500D01*
X70610886Y-19532500D02*
X70682315Y-19461071D01*
X70682315Y-19461071D02*
X70753743Y-19318214D01*
X70753743Y-19318214D02*
X70753743Y-18889642D01*
X70753743Y-18889642D02*
X70682315Y-18746785D01*
X70682315Y-18746785D02*
X70610886Y-18675357D01*
X70610886Y-18675357D02*
X70468029Y-18603928D01*
X70468029Y-18603928D02*
X70182315Y-18603928D01*
X70182315Y-18603928D02*
X70039458Y-18675357D01*
X102890056Y-70251528D02*
X102890056Y-68751528D01*
X102890056Y-68751528D02*
X102318627Y-68751528D01*
X102318627Y-68751528D02*
X102175770Y-68822957D01*
X102175770Y-68822957D02*
X102104341Y-68894385D01*
X102104341Y-68894385D02*
X102032913Y-69037242D01*
X102032913Y-69037242D02*
X102032913Y-69251528D01*
X102032913Y-69251528D02*
X102104341Y-69394385D01*
X102104341Y-69394385D02*
X102175770Y-69465814D01*
X102175770Y-69465814D02*
X102318627Y-69537242D01*
X102318627Y-69537242D02*
X102890056Y-69537242D01*
X100532913Y-70108671D02*
X100604341Y-70180100D01*
X100604341Y-70180100D02*
X100818627Y-70251528D01*
X100818627Y-70251528D02*
X100961484Y-70251528D01*
X100961484Y-70251528D02*
X101175770Y-70180100D01*
X101175770Y-70180100D02*
X101318627Y-70037242D01*
X101318627Y-70037242D02*
X101390056Y-69894385D01*
X101390056Y-69894385D02*
X101461484Y-69608671D01*
X101461484Y-69608671D02*
X101461484Y-69394385D01*
X101461484Y-69394385D02*
X101390056Y-69108671D01*
X101390056Y-69108671D02*
X101318627Y-68965814D01*
X101318627Y-68965814D02*
X101175770Y-68822957D01*
X101175770Y-68822957D02*
X100961484Y-68751528D01*
X100961484Y-68751528D02*
X100818627Y-68751528D01*
X100818627Y-68751528D02*
X100604341Y-68822957D01*
X100604341Y-68822957D02*
X100532913Y-68894385D01*
X99961484Y-69822957D02*
X99247199Y-69822957D01*
X100104341Y-70251528D02*
X99604341Y-68751528D01*
X99604341Y-68751528D02*
X99104341Y-70251528D01*
X98532913Y-70251528D02*
X98247199Y-70251528D01*
X98247199Y-70251528D02*
X98104342Y-70180100D01*
X98104342Y-70180100D02*
X98032913Y-70108671D01*
X98032913Y-70108671D02*
X97890056Y-69894385D01*
X97890056Y-69894385D02*
X97818627Y-69608671D01*
X97818627Y-69608671D02*
X97818627Y-69037242D01*
X97818627Y-69037242D02*
X97890056Y-68894385D01*
X97890056Y-68894385D02*
X97961485Y-68822957D01*
X97961485Y-68822957D02*
X98104342Y-68751528D01*
X98104342Y-68751528D02*
X98390056Y-68751528D01*
X98390056Y-68751528D02*
X98532913Y-68822957D01*
X98532913Y-68822957D02*
X98604342Y-68894385D01*
X98604342Y-68894385D02*
X98675770Y-69037242D01*
X98675770Y-69037242D02*
X98675770Y-69394385D01*
X98675770Y-69394385D02*
X98604342Y-69537242D01*
X98604342Y-69537242D02*
X98532913Y-69608671D01*
X98532913Y-69608671D02*
X98390056Y-69680100D01*
X98390056Y-69680100D02*
X98104342Y-69680100D01*
X98104342Y-69680100D02*
X97961485Y-69608671D01*
X97961485Y-69608671D02*
X97890056Y-69537242D01*
X97890056Y-69537242D02*
X97818627Y-69394385D01*
X96532914Y-68751528D02*
X96818628Y-68751528D01*
X96818628Y-68751528D02*
X96961485Y-68822957D01*
X96961485Y-68822957D02*
X97032914Y-68894385D01*
X97032914Y-68894385D02*
X97175771Y-69108671D01*
X97175771Y-69108671D02*
X97247199Y-69394385D01*
X97247199Y-69394385D02*
X97247199Y-69965814D01*
X97247199Y-69965814D02*
X97175771Y-70108671D01*
X97175771Y-70108671D02*
X97104342Y-70180100D01*
X97104342Y-70180100D02*
X96961485Y-70251528D01*
X96961485Y-70251528D02*
X96675771Y-70251528D01*
X96675771Y-70251528D02*
X96532914Y-70180100D01*
X96532914Y-70180100D02*
X96461485Y-70108671D01*
X96461485Y-70108671D02*
X96390056Y-69965814D01*
X96390056Y-69965814D02*
X96390056Y-69608671D01*
X96390056Y-69608671D02*
X96461485Y-69465814D01*
X96461485Y-69465814D02*
X96532914Y-69394385D01*
X96532914Y-69394385D02*
X96675771Y-69322957D01*
X96675771Y-69322957D02*
X96961485Y-69322957D01*
X96961485Y-69322957D02*
X97104342Y-69394385D01*
X97104342Y-69394385D02*
X97175771Y-69465814D01*
X97175771Y-69465814D02*
X97247199Y-69608671D01*
X95532914Y-69394385D02*
X95675771Y-69322957D01*
X95675771Y-69322957D02*
X95747200Y-69251528D01*
X95747200Y-69251528D02*
X95818628Y-69108671D01*
X95818628Y-69108671D02*
X95818628Y-69037242D01*
X95818628Y-69037242D02*
X95747200Y-68894385D01*
X95747200Y-68894385D02*
X95675771Y-68822957D01*
X95675771Y-68822957D02*
X95532914Y-68751528D01*
X95532914Y-68751528D02*
X95247200Y-68751528D01*
X95247200Y-68751528D02*
X95104343Y-68822957D01*
X95104343Y-68822957D02*
X95032914Y-68894385D01*
X95032914Y-68894385D02*
X94961485Y-69037242D01*
X94961485Y-69037242D02*
X94961485Y-69108671D01*
X94961485Y-69108671D02*
X95032914Y-69251528D01*
X95032914Y-69251528D02*
X95104343Y-69322957D01*
X95104343Y-69322957D02*
X95247200Y-69394385D01*
X95247200Y-69394385D02*
X95532914Y-69394385D01*
X95532914Y-69394385D02*
X95675771Y-69465814D01*
X95675771Y-69465814D02*
X95747200Y-69537242D01*
X95747200Y-69537242D02*
X95818628Y-69680100D01*
X95818628Y-69680100D02*
X95818628Y-69965814D01*
X95818628Y-69965814D02*
X95747200Y-70108671D01*
X95747200Y-70108671D02*
X95675771Y-70180100D01*
X95675771Y-70180100D02*
X95532914Y-70251528D01*
X95532914Y-70251528D02*
X95247200Y-70251528D01*
X95247200Y-70251528D02*
X95104343Y-70180100D01*
X95104343Y-70180100D02*
X95032914Y-70108671D01*
X95032914Y-70108671D02*
X94961485Y-69965814D01*
X94961485Y-69965814D02*
X94961485Y-69680100D01*
X94961485Y-69680100D02*
X95032914Y-69537242D01*
X95032914Y-69537242D02*
X95104343Y-69465814D01*
X95104343Y-69465814D02*
X95247200Y-69394385D01*
X93604343Y-68751528D02*
X94318629Y-68751528D01*
X94318629Y-68751528D02*
X94390057Y-69465814D01*
X94390057Y-69465814D02*
X94318629Y-69394385D01*
X94318629Y-69394385D02*
X94175772Y-69322957D01*
X94175772Y-69322957D02*
X93818629Y-69322957D01*
X93818629Y-69322957D02*
X93675772Y-69394385D01*
X93675772Y-69394385D02*
X93604343Y-69465814D01*
X93604343Y-69465814D02*
X93532914Y-69608671D01*
X93532914Y-69608671D02*
X93532914Y-69965814D01*
X93532914Y-69965814D02*
X93604343Y-70108671D01*
X93604343Y-70108671D02*
X93675772Y-70180100D01*
X93675772Y-70180100D02*
X93818629Y-70251528D01*
X93818629Y-70251528D02*
X94175772Y-70251528D01*
X94175772Y-70251528D02*
X94318629Y-70180100D01*
X94318629Y-70180100D02*
X94390057Y-70108671D01*
X123891228Y-17622728D02*
X123891228Y-16122728D01*
X123176942Y-17622728D02*
X123176942Y-16122728D01*
X123176942Y-16122728D02*
X122319799Y-17622728D01*
X122319799Y-17622728D02*
X122319799Y-16122728D01*
X121676941Y-17194157D02*
X120962656Y-17194157D01*
X121819798Y-17622728D02*
X121319798Y-16122728D01*
X121319798Y-16122728D02*
X120819798Y-17622728D01*
X120391227Y-16265585D02*
X120319799Y-16194157D01*
X120319799Y-16194157D02*
X120176942Y-16122728D01*
X120176942Y-16122728D02*
X119819799Y-16122728D01*
X119819799Y-16122728D02*
X119676942Y-16194157D01*
X119676942Y-16194157D02*
X119605513Y-16265585D01*
X119605513Y-16265585D02*
X119534084Y-16408442D01*
X119534084Y-16408442D02*
X119534084Y-16551300D01*
X119534084Y-16551300D02*
X119605513Y-16765585D01*
X119605513Y-16765585D02*
X120462656Y-17622728D01*
X120462656Y-17622728D02*
X119534084Y-17622728D01*
X118248371Y-16122728D02*
X118534085Y-16122728D01*
X118534085Y-16122728D02*
X118676942Y-16194157D01*
X118676942Y-16194157D02*
X118748371Y-16265585D01*
X118748371Y-16265585D02*
X118891228Y-16479871D01*
X118891228Y-16479871D02*
X118962656Y-16765585D01*
X118962656Y-16765585D02*
X118962656Y-17337014D01*
X118962656Y-17337014D02*
X118891228Y-17479871D01*
X118891228Y-17479871D02*
X118819799Y-17551300D01*
X118819799Y-17551300D02*
X118676942Y-17622728D01*
X118676942Y-17622728D02*
X118391228Y-17622728D01*
X118391228Y-17622728D02*
X118248371Y-17551300D01*
X118248371Y-17551300D02*
X118176942Y-17479871D01*
X118176942Y-17479871D02*
X118105513Y-17337014D01*
X118105513Y-17337014D02*
X118105513Y-16979871D01*
X118105513Y-16979871D02*
X118176942Y-16837014D01*
X118176942Y-16837014D02*
X118248371Y-16765585D01*
X118248371Y-16765585D02*
X118391228Y-16694157D01*
X118391228Y-16694157D02*
X118676942Y-16694157D01*
X118676942Y-16694157D02*
X118819799Y-16765585D01*
X118819799Y-16765585D02*
X118891228Y-16837014D01*
X118891228Y-16837014D02*
X118962656Y-16979871D01*
X117176942Y-16122728D02*
X117034085Y-16122728D01*
X117034085Y-16122728D02*
X116891228Y-16194157D01*
X116891228Y-16194157D02*
X116819800Y-16265585D01*
X116819800Y-16265585D02*
X116748371Y-16408442D01*
X116748371Y-16408442D02*
X116676942Y-16694157D01*
X116676942Y-16694157D02*
X116676942Y-17051300D01*
X116676942Y-17051300D02*
X116748371Y-17337014D01*
X116748371Y-17337014D02*
X116819800Y-17479871D01*
X116819800Y-17479871D02*
X116891228Y-17551300D01*
X116891228Y-17551300D02*
X117034085Y-17622728D01*
X117034085Y-17622728D02*
X117176942Y-17622728D01*
X117176942Y-17622728D02*
X117319800Y-17551300D01*
X117319800Y-17551300D02*
X117391228Y-17479871D01*
X117391228Y-17479871D02*
X117462657Y-17337014D01*
X117462657Y-17337014D02*
X117534085Y-17051300D01*
X117534085Y-17051300D02*
X117534085Y-16694157D01*
X117534085Y-16694157D02*
X117462657Y-16408442D01*
X117462657Y-16408442D02*
X117391228Y-16265585D01*
X117391228Y-16265585D02*
X117319800Y-16194157D01*
X117319800Y-16194157D02*
X117176942Y-16122728D01*
D12*
X155587533Y-55717638D02*
X156254200Y-54765257D01*
X156730390Y-55717638D02*
X156730390Y-53717638D01*
X156730390Y-53717638D02*
X155968485Y-53717638D01*
X155968485Y-53717638D02*
X155778009Y-53812876D01*
X155778009Y-53812876D02*
X155682771Y-53908114D01*
X155682771Y-53908114D02*
X155587533Y-54098590D01*
X155587533Y-54098590D02*
X155587533Y-54384304D01*
X155587533Y-54384304D02*
X155682771Y-54574780D01*
X155682771Y-54574780D02*
X155778009Y-54670019D01*
X155778009Y-54670019D02*
X155968485Y-54765257D01*
X155968485Y-54765257D02*
X156730390Y-54765257D01*
X153587533Y-55527161D02*
X153682771Y-55622400D01*
X153682771Y-55622400D02*
X153968485Y-55717638D01*
X153968485Y-55717638D02*
X154158961Y-55717638D01*
X154158961Y-55717638D02*
X154444676Y-55622400D01*
X154444676Y-55622400D02*
X154635152Y-55431923D01*
X154635152Y-55431923D02*
X154730390Y-55241447D01*
X154730390Y-55241447D02*
X154825628Y-54860495D01*
X154825628Y-54860495D02*
X154825628Y-54574780D01*
X154825628Y-54574780D02*
X154730390Y-54193828D01*
X154730390Y-54193828D02*
X154635152Y-54003352D01*
X154635152Y-54003352D02*
X154444676Y-53812876D01*
X154444676Y-53812876D02*
X154158961Y-53717638D01*
X154158961Y-53717638D02*
X153968485Y-53717638D01*
X153968485Y-53717638D02*
X153682771Y-53812876D01*
X153682771Y-53812876D02*
X153587533Y-53908114D01*
X152825628Y-53908114D02*
X152730390Y-53812876D01*
X152730390Y-53812876D02*
X152539914Y-53717638D01*
X152539914Y-53717638D02*
X152063723Y-53717638D01*
X152063723Y-53717638D02*
X151873247Y-53812876D01*
X151873247Y-53812876D02*
X151778009Y-53908114D01*
X151778009Y-53908114D02*
X151682771Y-54098590D01*
X151682771Y-54098590D02*
X151682771Y-54289066D01*
X151682771Y-54289066D02*
X151778009Y-54574780D01*
X151778009Y-54574780D02*
X152920866Y-55717638D01*
X152920866Y-55717638D02*
X151682771Y-55717638D01*
X194500333Y-12664638D02*
X195167000Y-11712257D01*
X195643190Y-12664638D02*
X195643190Y-10664638D01*
X195643190Y-10664638D02*
X194881285Y-10664638D01*
X194881285Y-10664638D02*
X194690809Y-10759876D01*
X194690809Y-10759876D02*
X194595571Y-10855114D01*
X194595571Y-10855114D02*
X194500333Y-11045590D01*
X194500333Y-11045590D02*
X194500333Y-11331304D01*
X194500333Y-11331304D02*
X194595571Y-11521780D01*
X194595571Y-11521780D02*
X194690809Y-11617019D01*
X194690809Y-11617019D02*
X194881285Y-11712257D01*
X194881285Y-11712257D02*
X195643190Y-11712257D01*
X192500333Y-12474161D02*
X192595571Y-12569400D01*
X192595571Y-12569400D02*
X192881285Y-12664638D01*
X192881285Y-12664638D02*
X193071761Y-12664638D01*
X193071761Y-12664638D02*
X193357476Y-12569400D01*
X193357476Y-12569400D02*
X193547952Y-12378923D01*
X193547952Y-12378923D02*
X193643190Y-12188447D01*
X193643190Y-12188447D02*
X193738428Y-11807495D01*
X193738428Y-11807495D02*
X193738428Y-11521780D01*
X193738428Y-11521780D02*
X193643190Y-11140828D01*
X193643190Y-11140828D02*
X193547952Y-10950352D01*
X193547952Y-10950352D02*
X193357476Y-10759876D01*
X193357476Y-10759876D02*
X193071761Y-10664638D01*
X193071761Y-10664638D02*
X192881285Y-10664638D01*
X192881285Y-10664638D02*
X192595571Y-10759876D01*
X192595571Y-10759876D02*
X192500333Y-10855114D01*
X191833666Y-10664638D02*
X190595571Y-10664638D01*
X190595571Y-10664638D02*
X191262238Y-11426542D01*
X191262238Y-11426542D02*
X190976523Y-11426542D01*
X190976523Y-11426542D02*
X190786047Y-11521780D01*
X190786047Y-11521780D02*
X190690809Y-11617019D01*
X190690809Y-11617019D02*
X190595571Y-11807495D01*
X190595571Y-11807495D02*
X190595571Y-12283685D01*
X190595571Y-12283685D02*
X190690809Y-12474161D01*
X190690809Y-12474161D02*
X190786047Y-12569400D01*
X190786047Y-12569400D02*
X190976523Y-12664638D01*
X190976523Y-12664638D02*
X191547952Y-12664638D01*
X191547952Y-12664638D02*
X191738428Y-12569400D01*
X191738428Y-12569400D02*
X191833666Y-12474161D01*
D10*
X119045980Y-46518533D02*
X119093600Y-46470914D01*
X119093600Y-46470914D02*
X119141219Y-46328057D01*
X119141219Y-46328057D02*
X119141219Y-46232819D01*
X119141219Y-46232819D02*
X119093600Y-46089962D01*
X119093600Y-46089962D02*
X118998361Y-45994724D01*
X118998361Y-45994724D02*
X118903123Y-45947105D01*
X118903123Y-45947105D02*
X118712647Y-45899486D01*
X118712647Y-45899486D02*
X118569790Y-45899486D01*
X118569790Y-45899486D02*
X118379314Y-45947105D01*
X118379314Y-45947105D02*
X118284076Y-45994724D01*
X118284076Y-45994724D02*
X118188838Y-46089962D01*
X118188838Y-46089962D02*
X118141219Y-46232819D01*
X118141219Y-46232819D02*
X118141219Y-46328057D01*
X118141219Y-46328057D02*
X118188838Y-46470914D01*
X118188838Y-46470914D02*
X118236457Y-46518533D01*
X119141219Y-47470914D02*
X119141219Y-46899486D01*
X119141219Y-47185200D02*
X118141219Y-47185200D01*
X118141219Y-47185200D02*
X118284076Y-47089962D01*
X118284076Y-47089962D02*
X118379314Y-46994724D01*
X118379314Y-46994724D02*
X118426933Y-46899486D01*
X101002180Y56529266D02*
X101049800Y56576885D01*
X101049800Y56576885D02*
X101097419Y56719742D01*
X101097419Y56719742D02*
X101097419Y56814980D01*
X101097419Y56814980D02*
X101049800Y56957837D01*
X101049800Y56957837D02*
X100954561Y57053075D01*
X100954561Y57053075D02*
X100859323Y57100694D01*
X100859323Y57100694D02*
X100668847Y57148313D01*
X100668847Y57148313D02*
X100525990Y57148313D01*
X100525990Y57148313D02*
X100335514Y57100694D01*
X100335514Y57100694D02*
X100240276Y57053075D01*
X100240276Y57053075D02*
X100145038Y56957837D01*
X100145038Y56957837D02*
X100097419Y56814980D01*
X100097419Y56814980D02*
X100097419Y56719742D01*
X100097419Y56719742D02*
X100145038Y56576885D01*
X100145038Y56576885D02*
X100192657Y56529266D01*
X100097419Y55672123D02*
X100097419Y55862599D01*
X100097419Y55862599D02*
X100145038Y55957837D01*
X100145038Y55957837D02*
X100192657Y56005456D01*
X100192657Y56005456D02*
X100335514Y56100694D01*
X100335514Y56100694D02*
X100525990Y56148313D01*
X100525990Y56148313D02*
X100906942Y56148313D01*
X100906942Y56148313D02*
X101002180Y56100694D01*
X101002180Y56100694D02*
X101049800Y56053075D01*
X101049800Y56053075D02*
X101097419Y55957837D01*
X101097419Y55957837D02*
X101097419Y55767361D01*
X101097419Y55767361D02*
X101049800Y55672123D01*
X101049800Y55672123D02*
X101002180Y55624504D01*
X101002180Y55624504D02*
X100906942Y55576885D01*
X100906942Y55576885D02*
X100668847Y55576885D01*
X100668847Y55576885D02*
X100573609Y55624504D01*
X100573609Y55624504D02*
X100525990Y55672123D01*
X100525990Y55672123D02*
X100478371Y55767361D01*
X100478371Y55767361D02*
X100478371Y55957837D01*
X100478371Y55957837D02*
X100525990Y56053075D01*
X100525990Y56053075D02*
X100573609Y56100694D01*
X100573609Y56100694D02*
X100668847Y56148313D01*
X104939180Y56529266D02*
X104986800Y56576885D01*
X104986800Y56576885D02*
X105034419Y56719742D01*
X105034419Y56719742D02*
X105034419Y56814980D01*
X105034419Y56814980D02*
X104986800Y56957837D01*
X104986800Y56957837D02*
X104891561Y57053075D01*
X104891561Y57053075D02*
X104796323Y57100694D01*
X104796323Y57100694D02*
X104605847Y57148313D01*
X104605847Y57148313D02*
X104462990Y57148313D01*
X104462990Y57148313D02*
X104272514Y57100694D01*
X104272514Y57100694D02*
X104177276Y57053075D01*
X104177276Y57053075D02*
X104082038Y56957837D01*
X104082038Y56957837D02*
X104034419Y56814980D01*
X104034419Y56814980D02*
X104034419Y56719742D01*
X104034419Y56719742D02*
X104082038Y56576885D01*
X104082038Y56576885D02*
X104129657Y56529266D01*
X104034419Y55624504D02*
X104034419Y56100694D01*
X104034419Y56100694D02*
X104510609Y56148313D01*
X104510609Y56148313D02*
X104462990Y56100694D01*
X104462990Y56100694D02*
X104415371Y56005456D01*
X104415371Y56005456D02*
X104415371Y55767361D01*
X104415371Y55767361D02*
X104462990Y55672123D01*
X104462990Y55672123D02*
X104510609Y55624504D01*
X104510609Y55624504D02*
X104605847Y55576885D01*
X104605847Y55576885D02*
X104843942Y55576885D01*
X104843942Y55576885D02*
X104939180Y55624504D01*
X104939180Y55624504D02*
X104986800Y55672123D01*
X104986800Y55672123D02*
X105034419Y55767361D01*
X105034419Y55767361D02*
X105034419Y56005456D01*
X105034419Y56005456D02*
X104986800Y56100694D01*
X104986800Y56100694D02*
X104939180Y56148313D01*
X99859180Y-86574333D02*
X99906800Y-86526714D01*
X99906800Y-86526714D02*
X99954419Y-86383857D01*
X99954419Y-86383857D02*
X99954419Y-86288619D01*
X99954419Y-86288619D02*
X99906800Y-86145762D01*
X99906800Y-86145762D02*
X99811561Y-86050524D01*
X99811561Y-86050524D02*
X99716323Y-86002905D01*
X99716323Y-86002905D02*
X99525847Y-85955286D01*
X99525847Y-85955286D02*
X99382990Y-85955286D01*
X99382990Y-85955286D02*
X99192514Y-86002905D01*
X99192514Y-86002905D02*
X99097276Y-86050524D01*
X99097276Y-86050524D02*
X99002038Y-86145762D01*
X99002038Y-86145762D02*
X98954419Y-86288619D01*
X98954419Y-86288619D02*
X98954419Y-86383857D01*
X98954419Y-86383857D02*
X99002038Y-86526714D01*
X99002038Y-86526714D02*
X99049657Y-86574333D01*
X98954419Y-86907667D02*
X98954419Y-87526714D01*
X98954419Y-87526714D02*
X99335371Y-87193381D01*
X99335371Y-87193381D02*
X99335371Y-87336238D01*
X99335371Y-87336238D02*
X99382990Y-87431476D01*
X99382990Y-87431476D02*
X99430609Y-87479095D01*
X99430609Y-87479095D02*
X99525847Y-87526714D01*
X99525847Y-87526714D02*
X99763942Y-87526714D01*
X99763942Y-87526714D02*
X99859180Y-87479095D01*
X99859180Y-87479095D02*
X99906800Y-87431476D01*
X99906800Y-87431476D02*
X99954419Y-87336238D01*
X99954419Y-87336238D02*
X99954419Y-87050524D01*
X99954419Y-87050524D02*
X99906800Y-86955286D01*
X99906800Y-86955286D02*
X99859180Y-86907667D01*
X62255304Y-13272419D02*
X62255304Y-14081942D01*
X62255304Y-14081942D02*
X62207685Y-14177180D01*
X62207685Y-14177180D02*
X62160066Y-14224800D01*
X62160066Y-14224800D02*
X62064828Y-14272419D01*
X62064828Y-14272419D02*
X61874352Y-14272419D01*
X61874352Y-14272419D02*
X61779114Y-14224800D01*
X61779114Y-14224800D02*
X61731495Y-14177180D01*
X61731495Y-14177180D02*
X61683876Y-14081942D01*
X61683876Y-14081942D02*
X61683876Y-13272419D01*
X60779114Y-13605752D02*
X60779114Y-14272419D01*
X61017209Y-13224800D02*
X61255304Y-13939085D01*
X61255304Y-13939085D02*
X60636257Y-13939085D01*
X58362361Y-17218819D02*
X58362361Y-16218819D01*
X58362361Y-16218819D02*
X58124266Y-16218819D01*
X58124266Y-16218819D02*
X57981409Y-16266438D01*
X57981409Y-16266438D02*
X57886171Y-16361676D01*
X57886171Y-16361676D02*
X57838552Y-16456914D01*
X57838552Y-16456914D02*
X57790933Y-16647390D01*
X57790933Y-16647390D02*
X57790933Y-16790247D01*
X57790933Y-16790247D02*
X57838552Y-16980723D01*
X57838552Y-16980723D02*
X57886171Y-17075961D01*
X57886171Y-17075961D02*
X57981409Y-17171200D01*
X57981409Y-17171200D02*
X58124266Y-17218819D01*
X58124266Y-17218819D02*
X58362361Y-17218819D01*
X57409980Y-16314057D02*
X57362361Y-16266438D01*
X57362361Y-16266438D02*
X57267123Y-16218819D01*
X57267123Y-16218819D02*
X57029028Y-16218819D01*
X57029028Y-16218819D02*
X56933790Y-16266438D01*
X56933790Y-16266438D02*
X56886171Y-16314057D01*
X56886171Y-16314057D02*
X56838552Y-16409295D01*
X56838552Y-16409295D02*
X56838552Y-16504533D01*
X56838552Y-16504533D02*
X56886171Y-16647390D01*
X56886171Y-16647390D02*
X57457599Y-17218819D01*
X57457599Y-17218819D02*
X56838552Y-17218819D01*
X55981409Y-16552152D02*
X55981409Y-17218819D01*
X56219504Y-16171200D02*
X56457599Y-16885485D01*
X56457599Y-16885485D02*
X55838552Y-16885485D01*
X55600456Y-16218819D02*
X55267123Y-17218819D01*
X55267123Y-17218819D02*
X54933790Y-16218819D01*
X54076647Y-17218819D02*
X54648075Y-17218819D01*
X54362361Y-17218819D02*
X54362361Y-16218819D01*
X54362361Y-16218819D02*
X54457599Y-16361676D01*
X54457599Y-16361676D02*
X54552837Y-16456914D01*
X54552837Y-16456914D02*
X54648075Y-16504533D01*
X53171885Y-16218819D02*
X53648075Y-16218819D01*
X53648075Y-16218819D02*
X53695694Y-16695009D01*
X53695694Y-16695009D02*
X53648075Y-16647390D01*
X53648075Y-16647390D02*
X53552837Y-16599771D01*
X53552837Y-16599771D02*
X53314742Y-16599771D01*
X53314742Y-16599771D02*
X53219504Y-16647390D01*
X53219504Y-16647390D02*
X53171885Y-16695009D01*
X53171885Y-16695009D02*
X53124266Y-16790247D01*
X53124266Y-16790247D02*
X53124266Y-17028342D01*
X53124266Y-17028342D02*
X53171885Y-17123580D01*
X53171885Y-17123580D02*
X53219504Y-17171200D01*
X53219504Y-17171200D02*
X53314742Y-17218819D01*
X53314742Y-17218819D02*
X53552837Y-17218819D01*
X53552837Y-17218819D02*
X53648075Y-17171200D01*
X53648075Y-17171200D02*
X53695694Y-17123580D01*
X52505218Y-16218819D02*
X52409980Y-16218819D01*
X52409980Y-16218819D02*
X52314742Y-16266438D01*
X52314742Y-16266438D02*
X52267123Y-16314057D01*
X52267123Y-16314057D02*
X52219504Y-16409295D01*
X52219504Y-16409295D02*
X52171885Y-16599771D01*
X52171885Y-16599771D02*
X52171885Y-16837866D01*
X52171885Y-16837866D02*
X52219504Y-17028342D01*
X52219504Y-17028342D02*
X52267123Y-17123580D01*
X52267123Y-17123580D02*
X52314742Y-17171200D01*
X52314742Y-17171200D02*
X52409980Y-17218819D01*
X52409980Y-17218819D02*
X52505218Y-17218819D01*
X52505218Y-17218819D02*
X52600456Y-17171200D01*
X52600456Y-17171200D02*
X52648075Y-17123580D01*
X52648075Y-17123580D02*
X52695694Y-17028342D01*
X52695694Y-17028342D02*
X52743313Y-16837866D01*
X52743313Y-16837866D02*
X52743313Y-16599771D01*
X52743313Y-16599771D02*
X52695694Y-16409295D01*
X52695694Y-16409295D02*
X52648075Y-16314057D01*
X52648075Y-16314057D02*
X52600456Y-16266438D01*
X52600456Y-16266438D02*
X52505218Y-16218819D01*
X51409980Y-16695009D02*
X51743313Y-16695009D01*
X51743313Y-17218819D02*
X51743313Y-16218819D01*
X51743313Y-16218819D02*
X51267123Y-16218819D01*
X50981408Y-17218819D02*
X50457599Y-16552152D01*
X50981408Y-16552152D02*
X50457599Y-17218819D01*
X85801104Y-18682619D02*
X85801104Y-19492142D01*
X85801104Y-19492142D02*
X85753485Y-19587380D01*
X85753485Y-19587380D02*
X85705866Y-19635000D01*
X85705866Y-19635000D02*
X85610628Y-19682619D01*
X85610628Y-19682619D02*
X85420152Y-19682619D01*
X85420152Y-19682619D02*
X85324914Y-19635000D01*
X85324914Y-19635000D02*
X85277295Y-19587380D01*
X85277295Y-19587380D02*
X85229676Y-19492142D01*
X85229676Y-19492142D02*
X85229676Y-18682619D01*
X84848723Y-18682619D02*
X84229676Y-18682619D01*
X84229676Y-18682619D02*
X84563009Y-19063571D01*
X84563009Y-19063571D02*
X84420152Y-19063571D01*
X84420152Y-19063571D02*
X84324914Y-19111190D01*
X84324914Y-19111190D02*
X84277295Y-19158809D01*
X84277295Y-19158809D02*
X84229676Y-19254047D01*
X84229676Y-19254047D02*
X84229676Y-19492142D01*
X84229676Y-19492142D02*
X84277295Y-19587380D01*
X84277295Y-19587380D02*
X84324914Y-19635000D01*
X84324914Y-19635000D02*
X84420152Y-19682619D01*
X84420152Y-19682619D02*
X84705866Y-19682619D01*
X84705866Y-19682619D02*
X84801104Y-19635000D01*
X84801104Y-19635000D02*
X84848723Y-19587380D01*
X148739123Y-46800419D02*
X148739123Y-47514704D01*
X148739123Y-47514704D02*
X148786742Y-47657561D01*
X148786742Y-47657561D02*
X148881980Y-47752800D01*
X148881980Y-47752800D02*
X149024837Y-47800419D01*
X149024837Y-47800419D02*
X149120075Y-47800419D01*
X147739123Y-47800419D02*
X148310551Y-47800419D01*
X148024837Y-47800419D02*
X148024837Y-46800419D01*
X148024837Y-46800419D02*
X148120075Y-46943276D01*
X148120075Y-46943276D02*
X148215313Y-47038514D01*
X148215313Y-47038514D02*
X148310551Y-47086133D01*
X147167694Y-47228990D02*
X147262932Y-47181371D01*
X147262932Y-47181371D02*
X147310551Y-47133752D01*
X147310551Y-47133752D02*
X147358170Y-47038514D01*
X147358170Y-47038514D02*
X147358170Y-46990895D01*
X147358170Y-46990895D02*
X147310551Y-46895657D01*
X147310551Y-46895657D02*
X147262932Y-46848038D01*
X147262932Y-46848038D02*
X147167694Y-46800419D01*
X147167694Y-46800419D02*
X146977218Y-46800419D01*
X146977218Y-46800419D02*
X146881980Y-46848038D01*
X146881980Y-46848038D02*
X146834361Y-46895657D01*
X146834361Y-46895657D02*
X146786742Y-46990895D01*
X146786742Y-46990895D02*
X146786742Y-47038514D01*
X146786742Y-47038514D02*
X146834361Y-47133752D01*
X146834361Y-47133752D02*
X146881980Y-47181371D01*
X146881980Y-47181371D02*
X146977218Y-47228990D01*
X146977218Y-47228990D02*
X147167694Y-47228990D01*
X147167694Y-47228990D02*
X147262932Y-47276609D01*
X147262932Y-47276609D02*
X147310551Y-47324228D01*
X147310551Y-47324228D02*
X147358170Y-47419466D01*
X147358170Y-47419466D02*
X147358170Y-47609942D01*
X147358170Y-47609942D02*
X147310551Y-47705180D01*
X147310551Y-47705180D02*
X147262932Y-47752800D01*
X147262932Y-47752800D02*
X147167694Y-47800419D01*
X147167694Y-47800419D02*
X146977218Y-47800419D01*
X146977218Y-47800419D02*
X146881980Y-47752800D01*
X146881980Y-47752800D02*
X146834361Y-47705180D01*
X146834361Y-47705180D02*
X146786742Y-47609942D01*
X146786742Y-47609942D02*
X146786742Y-47419466D01*
X146786742Y-47419466D02*
X146834361Y-47324228D01*
X146834361Y-47324228D02*
X146881980Y-47276609D01*
X146881980Y-47276609D02*
X146977218Y-47228990D01*
X142201619Y-26244514D02*
X142201619Y-25673086D01*
X142201619Y-25958800D02*
X141201619Y-25958800D01*
X141201619Y-25958800D02*
X141344476Y-25863562D01*
X141344476Y-25863562D02*
X141439714Y-25768324D01*
X141439714Y-25768324D02*
X141487333Y-25673086D01*
X141201619Y-43649276D02*
X141201619Y-43458800D01*
X141201619Y-43458800D02*
X141249238Y-43363562D01*
X141249238Y-43363562D02*
X141296857Y-43315943D01*
X141296857Y-43315943D02*
X141439714Y-43220705D01*
X141439714Y-43220705D02*
X141630190Y-43173086D01*
X141630190Y-43173086D02*
X142011142Y-43173086D01*
X142011142Y-43173086D02*
X142106380Y-43220705D01*
X142106380Y-43220705D02*
X142154000Y-43268324D01*
X142154000Y-43268324D02*
X142201619Y-43363562D01*
X142201619Y-43363562D02*
X142201619Y-43554038D01*
X142201619Y-43554038D02*
X142154000Y-43649276D01*
X142154000Y-43649276D02*
X142106380Y-43696895D01*
X142106380Y-43696895D02*
X142011142Y-43744514D01*
X142011142Y-43744514D02*
X141773047Y-43744514D01*
X141773047Y-43744514D02*
X141677809Y-43696895D01*
X141677809Y-43696895D02*
X141630190Y-43649276D01*
X141630190Y-43649276D02*
X141582571Y-43554038D01*
X141582571Y-43554038D02*
X141582571Y-43363562D01*
X141582571Y-43363562D02*
X141630190Y-43268324D01*
X141630190Y-43268324D02*
X141677809Y-43220705D01*
X141677809Y-43220705D02*
X141773047Y-43173086D01*
X214982323Y-88989819D02*
X214982323Y-89704104D01*
X214982323Y-89704104D02*
X215029942Y-89846961D01*
X215029942Y-89846961D02*
X215125180Y-89942200D01*
X215125180Y-89942200D02*
X215268037Y-89989819D01*
X215268037Y-89989819D02*
X215363275Y-89989819D01*
X213982323Y-89989819D02*
X214553751Y-89989819D01*
X214268037Y-89989819D02*
X214268037Y-88989819D01*
X214268037Y-88989819D02*
X214363275Y-89132676D01*
X214363275Y-89132676D02*
X214458513Y-89227914D01*
X214458513Y-89227914D02*
X214553751Y-89275533D01*
X213648989Y-88989819D02*
X212982323Y-88989819D01*
X212982323Y-88989819D02*
X213410894Y-89989819D01*
X210512819Y-86086914D02*
X210512819Y-85515486D01*
X210512819Y-85801200D02*
X209512819Y-85801200D01*
X209512819Y-85801200D02*
X209655676Y-85705962D01*
X209655676Y-85705962D02*
X209750914Y-85610724D01*
X209750914Y-85610724D02*
X209798533Y-85515486D01*
X209574219Y-68263076D02*
X209574219Y-68072600D01*
X209574219Y-68072600D02*
X209621838Y-67977362D01*
X209621838Y-67977362D02*
X209669457Y-67929743D01*
X209669457Y-67929743D02*
X209812314Y-67834505D01*
X209812314Y-67834505D02*
X210002790Y-67786886D01*
X210002790Y-67786886D02*
X210383742Y-67786886D01*
X210383742Y-67786886D02*
X210478980Y-67834505D01*
X210478980Y-67834505D02*
X210526600Y-67882124D01*
X210526600Y-67882124D02*
X210574219Y-67977362D01*
X210574219Y-67977362D02*
X210574219Y-68167838D01*
X210574219Y-68167838D02*
X210526600Y-68263076D01*
X210526600Y-68263076D02*
X210478980Y-68310695D01*
X210478980Y-68310695D02*
X210383742Y-68358314D01*
X210383742Y-68358314D02*
X210145647Y-68358314D01*
X210145647Y-68358314D02*
X210050409Y-68310695D01*
X210050409Y-68310695D02*
X210002790Y-68263076D01*
X210002790Y-68263076D02*
X209955171Y-68167838D01*
X209955171Y-68167838D02*
X209955171Y-67977362D01*
X209955171Y-67977362D02*
X210002790Y-67882124D01*
X210002790Y-67882124D02*
X210050409Y-67834505D01*
X210050409Y-67834505D02*
X210145647Y-67786886D01*
X66418619Y-23385542D02*
X65942428Y-23052209D01*
X66418619Y-22814114D02*
X65418619Y-22814114D01*
X65418619Y-22814114D02*
X65418619Y-23195066D01*
X65418619Y-23195066D02*
X65466238Y-23290304D01*
X65466238Y-23290304D02*
X65513857Y-23337923D01*
X65513857Y-23337923D02*
X65609095Y-23385542D01*
X65609095Y-23385542D02*
X65751952Y-23385542D01*
X65751952Y-23385542D02*
X65847190Y-23337923D01*
X65847190Y-23337923D02*
X65894809Y-23290304D01*
X65894809Y-23290304D02*
X65942428Y-23195066D01*
X65942428Y-23195066D02*
X65942428Y-22814114D01*
X65513857Y-23766495D02*
X65466238Y-23814114D01*
X65466238Y-23814114D02*
X65418619Y-23909352D01*
X65418619Y-23909352D02*
X65418619Y-24147447D01*
X65418619Y-24147447D02*
X65466238Y-24242685D01*
X65466238Y-24242685D02*
X65513857Y-24290304D01*
X65513857Y-24290304D02*
X65609095Y-24337923D01*
X65609095Y-24337923D02*
X65704333Y-24337923D01*
X65704333Y-24337923D02*
X65847190Y-24290304D01*
X65847190Y-24290304D02*
X66418619Y-23718876D01*
X66418619Y-23718876D02*
X66418619Y-24337923D01*
X66418619Y-25290304D02*
X66418619Y-24718876D01*
X66418619Y-25004590D02*
X65418619Y-25004590D01*
X65418619Y-25004590D02*
X65561476Y-24909352D01*
X65561476Y-24909352D02*
X65656714Y-24814114D01*
X65656714Y-24814114D02*
X65704333Y-24718876D01*
X130784504Y-16422019D02*
X130784504Y-17231542D01*
X130784504Y-17231542D02*
X130736885Y-17326780D01*
X130736885Y-17326780D02*
X130689266Y-17374400D01*
X130689266Y-17374400D02*
X130594028Y-17422019D01*
X130594028Y-17422019D02*
X130403552Y-17422019D01*
X130403552Y-17422019D02*
X130308314Y-17374400D01*
X130308314Y-17374400D02*
X130260695Y-17326780D01*
X130260695Y-17326780D02*
X130213076Y-17231542D01*
X130213076Y-17231542D02*
X130213076Y-16422019D01*
X129213076Y-17422019D02*
X129784504Y-17422019D01*
X129498790Y-17422019D02*
X129498790Y-16422019D01*
X129498790Y-16422019D02*
X129594028Y-16564876D01*
X129594028Y-16564876D02*
X129689266Y-16660114D01*
X129689266Y-16660114D02*
X129784504Y-16707733D01*
X122476419Y-46543933D02*
X122000228Y-46210600D01*
X122476419Y-45972505D02*
X121476419Y-45972505D01*
X121476419Y-45972505D02*
X121476419Y-46353457D01*
X121476419Y-46353457D02*
X121524038Y-46448695D01*
X121524038Y-46448695D02*
X121571657Y-46496314D01*
X121571657Y-46496314D02*
X121666895Y-46543933D01*
X121666895Y-46543933D02*
X121809752Y-46543933D01*
X121809752Y-46543933D02*
X121904990Y-46496314D01*
X121904990Y-46496314D02*
X121952609Y-46448695D01*
X121952609Y-46448695D02*
X122000228Y-46353457D01*
X122000228Y-46353457D02*
X122000228Y-45972505D01*
X121476419Y-47448695D02*
X121476419Y-46972505D01*
X121476419Y-46972505D02*
X121952609Y-46924886D01*
X121952609Y-46924886D02*
X121904990Y-46972505D01*
X121904990Y-46972505D02*
X121857371Y-47067743D01*
X121857371Y-47067743D02*
X121857371Y-47305838D01*
X121857371Y-47305838D02*
X121904990Y-47401076D01*
X121904990Y-47401076D02*
X121952609Y-47448695D01*
X121952609Y-47448695D02*
X122047847Y-47496314D01*
X122047847Y-47496314D02*
X122285942Y-47496314D01*
X122285942Y-47496314D02*
X122381180Y-47448695D01*
X122381180Y-47448695D02*
X122428800Y-47401076D01*
X122428800Y-47401076D02*
X122476419Y-47305838D01*
X122476419Y-47305838D02*
X122476419Y-47067743D01*
X122476419Y-47067743D02*
X122428800Y-46972505D01*
X122428800Y-46972505D02*
X122381180Y-46924886D01*
X63787257Y-60100380D02*
X63834876Y-60148000D01*
X63834876Y-60148000D02*
X63977733Y-60195619D01*
X63977733Y-60195619D02*
X64072971Y-60195619D01*
X64072971Y-60195619D02*
X64215828Y-60148000D01*
X64215828Y-60148000D02*
X64311066Y-60052761D01*
X64311066Y-60052761D02*
X64358685Y-59957523D01*
X64358685Y-59957523D02*
X64406304Y-59767047D01*
X64406304Y-59767047D02*
X64406304Y-59624190D01*
X64406304Y-59624190D02*
X64358685Y-59433714D01*
X64358685Y-59433714D02*
X64311066Y-59338476D01*
X64311066Y-59338476D02*
X64215828Y-59243238D01*
X64215828Y-59243238D02*
X64072971Y-59195619D01*
X64072971Y-59195619D02*
X63977733Y-59195619D01*
X63977733Y-59195619D02*
X63834876Y-59243238D01*
X63834876Y-59243238D02*
X63787257Y-59290857D01*
X63406304Y-59290857D02*
X63358685Y-59243238D01*
X63358685Y-59243238D02*
X63263447Y-59195619D01*
X63263447Y-59195619D02*
X63025352Y-59195619D01*
X63025352Y-59195619D02*
X62930114Y-59243238D01*
X62930114Y-59243238D02*
X62882495Y-59290857D01*
X62882495Y-59290857D02*
X62834876Y-59386095D01*
X62834876Y-59386095D02*
X62834876Y-59481333D01*
X62834876Y-59481333D02*
X62882495Y-59624190D01*
X62882495Y-59624190D02*
X63453923Y-60195619D01*
X63453923Y-60195619D02*
X62834876Y-60195619D01*
X61930114Y-59195619D02*
X62406304Y-59195619D01*
X62406304Y-59195619D02*
X62453923Y-59671809D01*
X62453923Y-59671809D02*
X62406304Y-59624190D01*
X62406304Y-59624190D02*
X62311066Y-59576571D01*
X62311066Y-59576571D02*
X62072971Y-59576571D01*
X62072971Y-59576571D02*
X61977733Y-59624190D01*
X61977733Y-59624190D02*
X61930114Y-59671809D01*
X61930114Y-59671809D02*
X61882495Y-59767047D01*
X61882495Y-59767047D02*
X61882495Y-60005142D01*
X61882495Y-60005142D02*
X61930114Y-60100380D01*
X61930114Y-60100380D02*
X61977733Y-60148000D01*
X61977733Y-60148000D02*
X62072971Y-60195619D01*
X62072971Y-60195619D02*
X62311066Y-60195619D01*
X62311066Y-60195619D02*
X62406304Y-60148000D01*
X62406304Y-60148000D02*
X62453923Y-60100380D01*
X80089333Y-57773968D02*
X80089333Y-58488253D01*
X80089333Y-58488253D02*
X80136952Y-58631110D01*
X80136952Y-58631110D02*
X80232190Y-58726349D01*
X80232190Y-58726349D02*
X80375047Y-58773968D01*
X80375047Y-58773968D02*
X80470285Y-58773968D01*
X79708380Y-57773968D02*
X79041714Y-57773968D01*
X79041714Y-57773968D02*
X79470285Y-58773968D01*
X74568085Y-68577619D02*
X75139513Y-68577619D01*
X74853799Y-68577619D02*
X74853799Y-67577619D01*
X74853799Y-67577619D02*
X74949037Y-67720476D01*
X74949037Y-67720476D02*
X75044275Y-67815714D01*
X75044275Y-67815714D02*
X75139513Y-67863333D01*
X85026476Y-68552219D02*
X85597904Y-68552219D01*
X85312190Y-68552219D02*
X85312190Y-67552219D01*
X85312190Y-67552219D02*
X85407428Y-67695076D01*
X85407428Y-67695076D02*
X85502666Y-67790314D01*
X85502666Y-67790314D02*
X85597904Y-67837933D01*
X84407428Y-67552219D02*
X84312190Y-67552219D01*
X84312190Y-67552219D02*
X84216952Y-67599838D01*
X84216952Y-67599838D02*
X84169333Y-67647457D01*
X84169333Y-67647457D02*
X84121714Y-67742695D01*
X84121714Y-67742695D02*
X84074095Y-67933171D01*
X84074095Y-67933171D02*
X84074095Y-68171266D01*
X84074095Y-68171266D02*
X84121714Y-68361742D01*
X84121714Y-68361742D02*
X84169333Y-68456980D01*
X84169333Y-68456980D02*
X84216952Y-68504600D01*
X84216952Y-68504600D02*
X84312190Y-68552219D01*
X84312190Y-68552219D02*
X84407428Y-68552219D01*
X84407428Y-68552219D02*
X84502666Y-68504600D01*
X84502666Y-68504600D02*
X84550285Y-68456980D01*
X84550285Y-68456980D02*
X84597904Y-68361742D01*
X84597904Y-68361742D02*
X84645523Y-68171266D01*
X84645523Y-68171266D02*
X84645523Y-67933171D01*
X84645523Y-67933171D02*
X84597904Y-67742695D01*
X84597904Y-67742695D02*
X84550285Y-67647457D01*
X84550285Y-67647457D02*
X84502666Y-67599838D01*
X84502666Y-67599838D02*
X84407428Y-67552219D01*
X90652504Y-68212619D02*
X90652504Y-69022142D01*
X90652504Y-69022142D02*
X90604885Y-69117380D01*
X90604885Y-69117380D02*
X90557266Y-69165000D01*
X90557266Y-69165000D02*
X90462028Y-69212619D01*
X90462028Y-69212619D02*
X90271552Y-69212619D01*
X90271552Y-69212619D02*
X90176314Y-69165000D01*
X90176314Y-69165000D02*
X90128695Y-69117380D01*
X90128695Y-69117380D02*
X90081076Y-69022142D01*
X90081076Y-69022142D02*
X90081076Y-68212619D01*
X89652504Y-68307857D02*
X89604885Y-68260238D01*
X89604885Y-68260238D02*
X89509647Y-68212619D01*
X89509647Y-68212619D02*
X89271552Y-68212619D01*
X89271552Y-68212619D02*
X89176314Y-68260238D01*
X89176314Y-68260238D02*
X89128695Y-68307857D01*
X89128695Y-68307857D02*
X89081076Y-68403095D01*
X89081076Y-68403095D02*
X89081076Y-68498333D01*
X89081076Y-68498333D02*
X89128695Y-68641190D01*
X89128695Y-68641190D02*
X89700123Y-69212619D01*
X89700123Y-69212619D02*
X89081076Y-69212619D01*
X73475838Y-56840457D02*
X73571076Y-56792838D01*
X73571076Y-56792838D02*
X73666314Y-56697600D01*
X73666314Y-56697600D02*
X73809171Y-56554742D01*
X73809171Y-56554742D02*
X73904409Y-56507123D01*
X73904409Y-56507123D02*
X73999647Y-56507123D01*
X73952028Y-56745219D02*
X74047266Y-56697600D01*
X74047266Y-56697600D02*
X74142504Y-56602361D01*
X74142504Y-56602361D02*
X74190123Y-56411885D01*
X74190123Y-56411885D02*
X74190123Y-56078552D01*
X74190123Y-56078552D02*
X74142504Y-55888076D01*
X74142504Y-55888076D02*
X74047266Y-55792838D01*
X74047266Y-55792838D02*
X73952028Y-55745219D01*
X73952028Y-55745219D02*
X73761552Y-55745219D01*
X73761552Y-55745219D02*
X73666314Y-55792838D01*
X73666314Y-55792838D02*
X73571076Y-55888076D01*
X73571076Y-55888076D02*
X73523457Y-56078552D01*
X73523457Y-56078552D02*
X73523457Y-56411885D01*
X73523457Y-56411885D02*
X73571076Y-56602361D01*
X73571076Y-56602361D02*
X73666314Y-56697600D01*
X73666314Y-56697600D02*
X73761552Y-56745219D01*
X73761552Y-56745219D02*
X73952028Y-56745219D01*
X72571076Y-56745219D02*
X73142504Y-56745219D01*
X72856790Y-56745219D02*
X72856790Y-55745219D01*
X72856790Y-55745219D02*
X72952028Y-55888076D01*
X72952028Y-55888076D02*
X73047266Y-55983314D01*
X73047266Y-55983314D02*
X73142504Y-56030933D01*
X82913457Y-55656819D02*
X83246790Y-55180628D01*
X83484885Y-55656819D02*
X83484885Y-54656819D01*
X83484885Y-54656819D02*
X83103933Y-54656819D01*
X83103933Y-54656819D02*
X83008695Y-54704438D01*
X83008695Y-54704438D02*
X82961076Y-54752057D01*
X82961076Y-54752057D02*
X82913457Y-54847295D01*
X82913457Y-54847295D02*
X82913457Y-54990152D01*
X82913457Y-54990152D02*
X82961076Y-55085390D01*
X82961076Y-55085390D02*
X83008695Y-55133009D01*
X83008695Y-55133009D02*
X83103933Y-55180628D01*
X83103933Y-55180628D02*
X83484885Y-55180628D01*
X81961076Y-55656819D02*
X82532504Y-55656819D01*
X82246790Y-55656819D02*
X82246790Y-54656819D01*
X82246790Y-54656819D02*
X82342028Y-54799676D01*
X82342028Y-54799676D02*
X82437266Y-54894914D01*
X82437266Y-54894914D02*
X82532504Y-54942533D01*
X81056314Y-54656819D02*
X81532504Y-54656819D01*
X81532504Y-54656819D02*
X81580123Y-55133009D01*
X81580123Y-55133009D02*
X81532504Y-55085390D01*
X81532504Y-55085390D02*
X81437266Y-55037771D01*
X81437266Y-55037771D02*
X81199171Y-55037771D01*
X81199171Y-55037771D02*
X81103933Y-55085390D01*
X81103933Y-55085390D02*
X81056314Y-55133009D01*
X81056314Y-55133009D02*
X81008695Y-55228247D01*
X81008695Y-55228247D02*
X81008695Y-55466342D01*
X81008695Y-55466342D02*
X81056314Y-55561580D01*
X81056314Y-55561580D02*
X81103933Y-55609200D01*
X81103933Y-55609200D02*
X81199171Y-55656819D01*
X81199171Y-55656819D02*
X81437266Y-55656819D01*
X81437266Y-55656819D02*
X81532504Y-55609200D01*
X81532504Y-55609200D02*
X81580123Y-55561580D01*
X62999857Y-55656819D02*
X63333190Y-55180628D01*
X63571285Y-55656819D02*
X63571285Y-54656819D01*
X63571285Y-54656819D02*
X63190333Y-54656819D01*
X63190333Y-54656819D02*
X63095095Y-54704438D01*
X63095095Y-54704438D02*
X63047476Y-54752057D01*
X63047476Y-54752057D02*
X62999857Y-54847295D01*
X62999857Y-54847295D02*
X62999857Y-54990152D01*
X62999857Y-54990152D02*
X63047476Y-55085390D01*
X63047476Y-55085390D02*
X63095095Y-55133009D01*
X63095095Y-55133009D02*
X63190333Y-55180628D01*
X63190333Y-55180628D02*
X63571285Y-55180628D01*
X62618904Y-54752057D02*
X62571285Y-54704438D01*
X62571285Y-54704438D02*
X62476047Y-54656819D01*
X62476047Y-54656819D02*
X62237952Y-54656819D01*
X62237952Y-54656819D02*
X62142714Y-54704438D01*
X62142714Y-54704438D02*
X62095095Y-54752057D01*
X62095095Y-54752057D02*
X62047476Y-54847295D01*
X62047476Y-54847295D02*
X62047476Y-54942533D01*
X62047476Y-54942533D02*
X62095095Y-55085390D01*
X62095095Y-55085390D02*
X62666523Y-55656819D01*
X62666523Y-55656819D02*
X62047476Y-55656819D01*
X61190333Y-54990152D02*
X61190333Y-55656819D01*
X61428428Y-54609200D02*
X61666523Y-55323485D01*
X61666523Y-55323485D02*
X61047476Y-55323485D01*
X37701457Y-60151180D02*
X37749076Y-60198800D01*
X37749076Y-60198800D02*
X37891933Y-60246419D01*
X37891933Y-60246419D02*
X37987171Y-60246419D01*
X37987171Y-60246419D02*
X38130028Y-60198800D01*
X38130028Y-60198800D02*
X38225266Y-60103561D01*
X38225266Y-60103561D02*
X38272885Y-60008323D01*
X38272885Y-60008323D02*
X38320504Y-59817847D01*
X38320504Y-59817847D02*
X38320504Y-59674990D01*
X38320504Y-59674990D02*
X38272885Y-59484514D01*
X38272885Y-59484514D02*
X38225266Y-59389276D01*
X38225266Y-59389276D02*
X38130028Y-59294038D01*
X38130028Y-59294038D02*
X37987171Y-59246419D01*
X37987171Y-59246419D02*
X37891933Y-59246419D01*
X37891933Y-59246419D02*
X37749076Y-59294038D01*
X37749076Y-59294038D02*
X37701457Y-59341657D01*
X37320504Y-59341657D02*
X37272885Y-59294038D01*
X37272885Y-59294038D02*
X37177647Y-59246419D01*
X37177647Y-59246419D02*
X36939552Y-59246419D01*
X36939552Y-59246419D02*
X36844314Y-59294038D01*
X36844314Y-59294038D02*
X36796695Y-59341657D01*
X36796695Y-59341657D02*
X36749076Y-59436895D01*
X36749076Y-59436895D02*
X36749076Y-59532133D01*
X36749076Y-59532133D02*
X36796695Y-59674990D01*
X36796695Y-59674990D02*
X37368123Y-60246419D01*
X37368123Y-60246419D02*
X36749076Y-60246419D01*
X36415742Y-59246419D02*
X35749076Y-59246419D01*
X35749076Y-59246419D02*
X36177647Y-60246419D01*
X41721066Y-51667580D02*
X41768685Y-51715200D01*
X41768685Y-51715200D02*
X41911542Y-51762819D01*
X41911542Y-51762819D02*
X42006780Y-51762819D01*
X42006780Y-51762819D02*
X42149637Y-51715200D01*
X42149637Y-51715200D02*
X42244875Y-51619961D01*
X42244875Y-51619961D02*
X42292494Y-51524723D01*
X42292494Y-51524723D02*
X42340113Y-51334247D01*
X42340113Y-51334247D02*
X42340113Y-51191390D01*
X42340113Y-51191390D02*
X42292494Y-51000914D01*
X42292494Y-51000914D02*
X42244875Y-50905676D01*
X42244875Y-50905676D02*
X42149637Y-50810438D01*
X42149637Y-50810438D02*
X42006780Y-50762819D01*
X42006780Y-50762819D02*
X41911542Y-50762819D01*
X41911542Y-50762819D02*
X41768685Y-50810438D01*
X41768685Y-50810438D02*
X41721066Y-50858057D01*
X41387732Y-50762819D02*
X40721066Y-50762819D01*
X40721066Y-50762819D02*
X41149637Y-51762819D01*
X54479723Y-57773968D02*
X54479723Y-58488253D01*
X54479723Y-58488253D02*
X54527342Y-58631110D01*
X54527342Y-58631110D02*
X54622580Y-58726349D01*
X54622580Y-58726349D02*
X54765437Y-58773968D01*
X54765437Y-58773968D02*
X54860675Y-58773968D01*
X53479723Y-58773968D02*
X54051151Y-58773968D01*
X53765437Y-58773968D02*
X53765437Y-57773968D01*
X53765437Y-57773968D02*
X53860675Y-57916825D01*
X53860675Y-57916825D02*
X53955913Y-58012063D01*
X53955913Y-58012063D02*
X54051151Y-58059682D01*
X53098770Y-57869206D02*
X53051151Y-57821587D01*
X53051151Y-57821587D02*
X52955913Y-57773968D01*
X52955913Y-57773968D02*
X52717818Y-57773968D01*
X52717818Y-57773968D02*
X52622580Y-57821587D01*
X52622580Y-57821587D02*
X52574961Y-57869206D01*
X52574961Y-57869206D02*
X52527342Y-57964444D01*
X52527342Y-57964444D02*
X52527342Y-58059682D01*
X52527342Y-58059682D02*
X52574961Y-58202539D01*
X52574961Y-58202539D02*
X53146389Y-58773968D01*
X53146389Y-58773968D02*
X52527342Y-58773968D01*
X48456885Y-68577619D02*
X49028313Y-68577619D01*
X48742599Y-68577619D02*
X48742599Y-67577619D01*
X48742599Y-67577619D02*
X48837837Y-67720476D01*
X48837837Y-67720476D02*
X48933075Y-67815714D01*
X48933075Y-67815714D02*
X49028313Y-67863333D01*
X59118476Y-68628419D02*
X59689904Y-68628419D01*
X59404190Y-68628419D02*
X59404190Y-67628419D01*
X59404190Y-67628419D02*
X59499428Y-67771276D01*
X59499428Y-67771276D02*
X59594666Y-67866514D01*
X59594666Y-67866514D02*
X59689904Y-67914133D01*
X58499428Y-67628419D02*
X58404190Y-67628419D01*
X58404190Y-67628419D02*
X58308952Y-67676038D01*
X58308952Y-67676038D02*
X58261333Y-67723657D01*
X58261333Y-67723657D02*
X58213714Y-67818895D01*
X58213714Y-67818895D02*
X58166095Y-68009371D01*
X58166095Y-68009371D02*
X58166095Y-68247466D01*
X58166095Y-68247466D02*
X58213714Y-68437942D01*
X58213714Y-68437942D02*
X58261333Y-68533180D01*
X58261333Y-68533180D02*
X58308952Y-68580800D01*
X58308952Y-68580800D02*
X58404190Y-68628419D01*
X58404190Y-68628419D02*
X58499428Y-68628419D01*
X58499428Y-68628419D02*
X58594666Y-68580800D01*
X58594666Y-68580800D02*
X58642285Y-68533180D01*
X58642285Y-68533180D02*
X58689904Y-68437942D01*
X58689904Y-68437942D02*
X58737523Y-68247466D01*
X58737523Y-68247466D02*
X58737523Y-68009371D01*
X58737523Y-68009371D02*
X58689904Y-67818895D01*
X58689904Y-67818895D02*
X58642285Y-67723657D01*
X58642285Y-67723657D02*
X58594666Y-67676038D01*
X58594666Y-67676038D02*
X58499428Y-67628419D01*
X165755675Y-76060048D02*
X165803294Y-76107668D01*
X165803294Y-76107668D02*
X165946151Y-76155287D01*
X165946151Y-76155287D02*
X166041389Y-76155287D01*
X166041389Y-76155287D02*
X166184246Y-76107668D01*
X166184246Y-76107668D02*
X166279484Y-76012429D01*
X166279484Y-76012429D02*
X166327103Y-75917191D01*
X166327103Y-75917191D02*
X166374722Y-75726715D01*
X166374722Y-75726715D02*
X166374722Y-75583858D01*
X166374722Y-75583858D02*
X166327103Y-75393382D01*
X166327103Y-75393382D02*
X166279484Y-75298144D01*
X166279484Y-75298144D02*
X166184246Y-75202906D01*
X166184246Y-75202906D02*
X166041389Y-75155287D01*
X166041389Y-75155287D02*
X165946151Y-75155287D01*
X165946151Y-75155287D02*
X165803294Y-75202906D01*
X165803294Y-75202906D02*
X165755675Y-75250525D01*
X164898532Y-75488620D02*
X164898532Y-76155287D01*
X165136627Y-75107668D02*
X165374722Y-75821953D01*
X165374722Y-75821953D02*
X164755675Y-75821953D01*
X165755675Y-79497514D02*
X165803294Y-79545134D01*
X165803294Y-79545134D02*
X165946151Y-79592753D01*
X165946151Y-79592753D02*
X166041389Y-79592753D01*
X166041389Y-79592753D02*
X166184246Y-79545134D01*
X166184246Y-79545134D02*
X166279484Y-79449895D01*
X166279484Y-79449895D02*
X166327103Y-79354657D01*
X166327103Y-79354657D02*
X166374722Y-79164181D01*
X166374722Y-79164181D02*
X166374722Y-79021324D01*
X166374722Y-79021324D02*
X166327103Y-78830848D01*
X166327103Y-78830848D02*
X166279484Y-78735610D01*
X166279484Y-78735610D02*
X166184246Y-78640372D01*
X166184246Y-78640372D02*
X166041389Y-78592753D01*
X166041389Y-78592753D02*
X165946151Y-78592753D01*
X165946151Y-78592753D02*
X165803294Y-78640372D01*
X165803294Y-78640372D02*
X165755675Y-78687991D01*
X165279484Y-79592753D02*
X165089008Y-79592753D01*
X165089008Y-79592753D02*
X164993770Y-79545134D01*
X164993770Y-79545134D02*
X164946151Y-79497514D01*
X164946151Y-79497514D02*
X164850913Y-79354657D01*
X164850913Y-79354657D02*
X164803294Y-79164181D01*
X164803294Y-79164181D02*
X164803294Y-78783229D01*
X164803294Y-78783229D02*
X164850913Y-78687991D01*
X164850913Y-78687991D02*
X164898532Y-78640372D01*
X164898532Y-78640372D02*
X164993770Y-78592753D01*
X164993770Y-78592753D02*
X165184246Y-78592753D01*
X165184246Y-78592753D02*
X165279484Y-78640372D01*
X165279484Y-78640372D02*
X165327103Y-78687991D01*
X165327103Y-78687991D02*
X165374722Y-78783229D01*
X165374722Y-78783229D02*
X165374722Y-79021324D01*
X165374722Y-79021324D02*
X165327103Y-79116562D01*
X165327103Y-79116562D02*
X165279484Y-79164181D01*
X165279484Y-79164181D02*
X165184246Y-79211800D01*
X165184246Y-79211800D02*
X164993770Y-79211800D01*
X164993770Y-79211800D02*
X164898532Y-79164181D01*
X164898532Y-79164181D02*
X164850913Y-79116562D01*
X164850913Y-79116562D02*
X164803294Y-79021324D01*
X165755675Y-72622580D02*
X165803294Y-72670200D01*
X165803294Y-72670200D02*
X165946151Y-72717819D01*
X165946151Y-72717819D02*
X166041389Y-72717819D01*
X166041389Y-72717819D02*
X166184246Y-72670200D01*
X166184246Y-72670200D02*
X166279484Y-72574961D01*
X166279484Y-72574961D02*
X166327103Y-72479723D01*
X166327103Y-72479723D02*
X166374722Y-72289247D01*
X166374722Y-72289247D02*
X166374722Y-72146390D01*
X166374722Y-72146390D02*
X166327103Y-71955914D01*
X166327103Y-71955914D02*
X166279484Y-71860676D01*
X166279484Y-71860676D02*
X166184246Y-71765438D01*
X166184246Y-71765438D02*
X166041389Y-71717819D01*
X166041389Y-71717819D02*
X165946151Y-71717819D01*
X165946151Y-71717819D02*
X165803294Y-71765438D01*
X165803294Y-71765438D02*
X165755675Y-71813057D01*
X165374722Y-71813057D02*
X165327103Y-71765438D01*
X165327103Y-71765438D02*
X165231865Y-71717819D01*
X165231865Y-71717819D02*
X164993770Y-71717819D01*
X164993770Y-71717819D02*
X164898532Y-71765438D01*
X164898532Y-71765438D02*
X164850913Y-71813057D01*
X164850913Y-71813057D02*
X164803294Y-71908295D01*
X164803294Y-71908295D02*
X164803294Y-72003533D01*
X164803294Y-72003533D02*
X164850913Y-72146390D01*
X164850913Y-72146390D02*
X165422341Y-72717819D01*
X165422341Y-72717819D02*
X164803294Y-72717819D01*
X166708057Y-82934980D02*
X166755676Y-82982600D01*
X166755676Y-82982600D02*
X166898533Y-83030219D01*
X166898533Y-83030219D02*
X166993771Y-83030219D01*
X166993771Y-83030219D02*
X167136628Y-82982600D01*
X167136628Y-82982600D02*
X167231866Y-82887361D01*
X167231866Y-82887361D02*
X167279485Y-82792123D01*
X167279485Y-82792123D02*
X167327104Y-82601647D01*
X167327104Y-82601647D02*
X167327104Y-82458790D01*
X167327104Y-82458790D02*
X167279485Y-82268314D01*
X167279485Y-82268314D02*
X167231866Y-82173076D01*
X167231866Y-82173076D02*
X167136628Y-82077838D01*
X167136628Y-82077838D02*
X166993771Y-82030219D01*
X166993771Y-82030219D02*
X166898533Y-82030219D01*
X166898533Y-82030219D02*
X166755676Y-82077838D01*
X166755676Y-82077838D02*
X166708057Y-82125457D01*
X165755676Y-83030219D02*
X166327104Y-83030219D01*
X166041390Y-83030219D02*
X166041390Y-82030219D01*
X166041390Y-82030219D02*
X166136628Y-82173076D01*
X166136628Y-82173076D02*
X166231866Y-82268314D01*
X166231866Y-82268314D02*
X166327104Y-82315933D01*
X165136628Y-82030219D02*
X165041390Y-82030219D01*
X165041390Y-82030219D02*
X164946152Y-82077838D01*
X164946152Y-82077838D02*
X164898533Y-82125457D01*
X164898533Y-82125457D02*
X164850914Y-82220695D01*
X164850914Y-82220695D02*
X164803295Y-82411171D01*
X164803295Y-82411171D02*
X164803295Y-82649266D01*
X164803295Y-82649266D02*
X164850914Y-82839742D01*
X164850914Y-82839742D02*
X164898533Y-82934980D01*
X164898533Y-82934980D02*
X164946152Y-82982600D01*
X164946152Y-82982600D02*
X165041390Y-83030219D01*
X165041390Y-83030219D02*
X165136628Y-83030219D01*
X165136628Y-83030219D02*
X165231866Y-82982600D01*
X165231866Y-82982600D02*
X165279485Y-82934980D01*
X165279485Y-82934980D02*
X165327104Y-82839742D01*
X165327104Y-82839742D02*
X165374723Y-82649266D01*
X165374723Y-82649266D02*
X165374723Y-82411171D01*
X165374723Y-82411171D02*
X165327104Y-82220695D01*
X165327104Y-82220695D02*
X165279485Y-82125457D01*
X165279485Y-82125457D02*
X165231866Y-82077838D01*
X165231866Y-82077838D02*
X165136628Y-82030219D01*
%TO.C,RC2*%
D13*
X142900600Y-56844400D02*
X142900600Y-98500400D01*
X142900600Y-98500400D02*
X191160600Y-98500400D01*
D11*
X150850600Y-94894400D02*
X155930600Y-94894400D01*
X150850600Y-98450400D02*
X150850600Y-94894400D01*
X155930600Y-94894400D02*
X155930600Y-98704400D01*
D13*
X191160600Y-56844400D02*
X142900600Y-56844400D01*
X191160600Y-98500400D02*
X191160600Y-56844400D01*
%TO.C,RC3*%
X168787225Y-14008542D02*
X168787225Y-55664542D01*
X168787225Y-55664542D02*
X217047225Y-55664542D01*
D11*
X204017225Y-17614542D02*
X204017225Y-13804542D01*
X209097225Y-14058542D02*
X209097225Y-17614542D01*
X209097225Y-17614542D02*
X204017225Y-17614542D01*
D13*
X217047225Y-14008542D02*
X168787225Y-14008542D01*
X217047225Y-55664542D02*
X217047225Y-14008542D01*
%TO.C,C1*%
D14*
X117298800Y-49511200D02*
X117298800Y-56051200D01*
X117298800Y-56051200D02*
X117628800Y-56051200D01*
X117628800Y-49511200D02*
X117298800Y-49511200D01*
X119708800Y-49511200D02*
X120038800Y-49511200D01*
X120038800Y-49511200D02*
X120038800Y-56051200D01*
X120038800Y-56051200D02*
X119708800Y-56051200D01*
%TO.C,C6*%
X99264800Y53562000D02*
X99594800Y53562000D01*
X99264800Y47022000D02*
X99264800Y53562000D01*
X99594800Y47022000D02*
X99264800Y47022000D01*
X101674800Y47022000D02*
X102004800Y47022000D01*
X102004800Y53562000D02*
X101674800Y53562000D01*
X102004800Y47022000D02*
X102004800Y53562000D01*
%TO.C,C5*%
X103201800Y53562000D02*
X103531800Y53562000D01*
X103201800Y47022000D02*
X103201800Y53562000D01*
X103531800Y47022000D02*
X103201800Y47022000D01*
X105611800Y47022000D02*
X105941800Y47022000D01*
X105941800Y53562000D02*
X105611800Y53562000D01*
X105941800Y47022000D02*
X105941800Y53562000D01*
%TO.C,C3*%
X95759600Y-83471000D02*
X96089600Y-83471000D01*
X95759600Y-90011000D02*
X95759600Y-83471000D01*
X96089600Y-90011000D02*
X95759600Y-90011000D01*
X98169600Y-90011000D02*
X98499600Y-90011000D01*
X98499600Y-83471000D02*
X98169600Y-83471000D01*
X98499600Y-90011000D02*
X98499600Y-83471000D01*
%TO.C,U4*%
X20218400Y-15087600D02*
X63398400Y-15087600D01*
X20218400Y-46837600D02*
X20218400Y-15087600D01*
X63398400Y-36677600D02*
X63398400Y-15087600D01*
X63398400Y-46837600D02*
X20218400Y-46837600D01*
X63398400Y-46837600D02*
X63398400Y-36677600D01*
%TO.C,U3*%
D10*
X68707000Y-20528600D02*
X68707000Y-38328600D01*
X68707000Y-20528600D02*
X86507000Y-20528600D01*
X86507000Y-20528600D02*
X86507000Y-38328600D01*
X86507000Y-38328600D02*
X68707000Y-38328600D01*
%TO.C,J18*%
D11*
X142644400Y-23190200D02*
X150518400Y-23190200D01*
X142646400Y-46304200D02*
X150520400Y-46304200D01*
X142648400Y-23190200D02*
X142648400Y-46304200D01*
X150518400Y-23190200D02*
X150518400Y-46304200D01*
%TO.C,J17*%
X210974400Y-88468200D02*
X210974400Y-65354200D01*
X218844400Y-88468200D02*
X218844400Y-65354200D01*
X218846400Y-65354200D02*
X210972400Y-65354200D01*
X218848400Y-88468200D02*
X210974400Y-88468200D01*
%TO.C,R21*%
D14*
X64644600Y-27311600D02*
X64974600Y-27311600D01*
X64644600Y-33851600D02*
X64644600Y-27311600D01*
X64974600Y-33851600D02*
X64644600Y-33851600D01*
X67054600Y-33851600D02*
X67384600Y-33851600D01*
X67384600Y-27311600D02*
X67054600Y-27311600D01*
X67384600Y-33851600D02*
X67384600Y-27311600D01*
%TO.C,U1*%
D11*
X108940600Y-38557200D02*
X108940600Y-20777200D01*
X129260600Y-18237200D02*
X111480600Y-18237200D01*
X129260600Y-41097200D02*
X111480600Y-41097200D01*
X131800600Y-20777200D02*
X131800600Y-38557200D01*
X108940600Y-20777200D02*
G75*
G02*
X111480600Y-18237200I2540000J0D01*
G01*
X111480600Y-41097200D02*
G75*
G02*
X108940600Y-38557200I0J2540000D01*
G01*
X129260600Y-18237200D02*
G75*
G02*
X131800600Y-20777200I0J-2540000D01*
G01*
X131800600Y-38557200D02*
G75*
G02*
X129260600Y-41097200I-2540000J0D01*
G01*
%TO.C,R5*%
D14*
X120600800Y-49485800D02*
X120930800Y-49485800D01*
X120600800Y-56025800D02*
X120600800Y-49485800D01*
X120930800Y-56025800D02*
X120600800Y-56025800D01*
X123010800Y-56025800D02*
X123340800Y-56025800D01*
X123340800Y-49485800D02*
X123010800Y-49485800D01*
X123340800Y-56025800D02*
X123340800Y-49485800D01*
%TO.C,C25*%
X66828800Y-60431600D02*
X65001800Y-60431600D01*
X66828800Y-60471600D02*
X64961800Y-60471600D01*
X66828800Y-60511600D02*
X64923800Y-60511600D01*
X66828800Y-60551600D02*
X64885800Y-60551600D01*
X66828800Y-60591600D02*
X64849800Y-60591600D01*
X66828800Y-60631600D02*
X64813800Y-60631600D01*
X66828800Y-60671600D02*
X64778800Y-60671600D01*
X66828800Y-60711600D02*
X64744800Y-60711600D01*
X66828800Y-60751600D02*
X64712800Y-60751600D01*
X66828800Y-60791600D02*
X64679800Y-60791600D01*
X66828800Y-60831600D02*
X64648800Y-60831600D01*
X66828800Y-60871600D02*
X64618800Y-60871600D01*
X66828800Y-60911600D02*
X64588800Y-60911600D01*
X66828800Y-60951600D02*
X64559800Y-60951600D01*
X66828800Y-60991600D02*
X64530800Y-60991600D01*
X66828800Y-61031600D02*
X64503800Y-61031600D01*
X66828800Y-61071600D02*
X64476800Y-61071600D01*
X66828800Y-61111600D02*
X64450800Y-61111600D01*
X66828800Y-61151600D02*
X64424800Y-61151600D01*
X66828800Y-61191600D02*
X64399800Y-61191600D01*
X66828800Y-61231600D02*
X64375800Y-61231600D01*
X66828800Y-61271600D02*
X64351800Y-61271600D01*
X66828800Y-61311600D02*
X64328800Y-61311600D01*
X66828800Y-61351600D02*
X64306800Y-61351600D01*
X66828800Y-61391600D02*
X64284800Y-61391600D01*
X66828800Y-61431600D02*
X64262800Y-61431600D01*
X66828800Y-61471600D02*
X64241800Y-61471600D01*
X66828800Y-61511600D02*
X64221800Y-61511600D01*
X66828800Y-61551600D02*
X64202800Y-61551600D01*
X66828800Y-61591600D02*
X64182800Y-61591600D01*
X66828800Y-61631600D02*
X64164800Y-61631600D01*
X66828800Y-61671600D02*
X64146800Y-61671600D01*
X66828800Y-61711600D02*
X64128800Y-61711600D01*
X66828800Y-61751600D02*
X64111800Y-61751600D01*
X66828800Y-61791600D02*
X64094800Y-61791600D01*
X66828800Y-61831600D02*
X64078800Y-61831600D01*
X66828800Y-61871600D02*
X64063800Y-61871600D01*
X66828800Y-61911600D02*
X64047800Y-61911600D01*
X66828800Y-61951600D02*
X64033800Y-61951600D01*
X66828800Y-61991600D02*
X64018800Y-61991600D01*
X66828800Y-62031600D02*
X64005800Y-62031600D01*
X66828800Y-62071600D02*
X63991800Y-62071600D01*
X66828800Y-62111600D02*
X63979800Y-62111600D01*
X66828800Y-62151600D02*
X63966800Y-62151600D01*
X66828800Y-62191600D02*
X63954800Y-62191600D01*
X66828800Y-62231600D02*
X63943800Y-62231600D01*
X66828800Y-62271600D02*
X63932800Y-62271600D01*
X66828800Y-62311600D02*
X63921800Y-62311600D01*
X66828800Y-62351600D02*
X63911800Y-62351600D01*
X66828800Y-62391600D02*
X63901800Y-62391600D01*
X66828800Y-62431600D02*
X63892800Y-62431600D01*
X66828800Y-62471600D02*
X63883800Y-62471600D01*
X68401800Y-59271600D02*
X67335800Y-59271600D01*
X68636800Y-59311600D02*
X67100800Y-59311600D01*
X68816800Y-59351600D02*
X66920800Y-59351600D01*
X68966800Y-59391600D02*
X66770800Y-59391600D01*
X69097800Y-59431600D02*
X66639800Y-59431600D01*
X69214800Y-59471600D02*
X66522800Y-59471600D01*
X69321800Y-59511600D02*
X66415800Y-59511600D01*
X69420800Y-59551600D02*
X66316800Y-59551600D01*
X69513800Y-59591600D02*
X66223800Y-59591600D01*
X69599800Y-59631600D02*
X66137800Y-59631600D01*
X69681800Y-59671600D02*
X66055800Y-59671600D01*
X69758800Y-59711600D02*
X65978800Y-59711600D01*
X69832800Y-59751600D02*
X65904800Y-59751600D01*
X69902800Y-59791600D02*
X65834800Y-59791600D01*
X69970800Y-59831600D02*
X65766800Y-59831600D01*
X70034800Y-59871600D02*
X65702800Y-59871600D01*
X70096800Y-59911600D02*
X65640800Y-59911600D01*
X70155800Y-59951600D02*
X65581800Y-59951600D01*
X70183800Y-67762298D02*
X70183800Y-66962298D01*
X70213800Y-59991600D02*
X65523800Y-59991600D01*
X70268800Y-60031600D02*
X65468800Y-60031600D01*
X70322800Y-60071600D02*
X65414800Y-60071600D01*
X70373800Y-60111600D02*
X65363800Y-60111600D01*
X70424800Y-60151600D02*
X65312800Y-60151600D01*
X70472800Y-60191600D02*
X65264800Y-60191600D01*
X70519800Y-60231600D02*
X65217800Y-60231600D01*
X70565800Y-60271600D02*
X65171800Y-60271600D01*
X70583800Y-67362298D02*
X69783800Y-67362298D01*
X70609800Y-60311600D02*
X65127800Y-60311600D01*
X70652800Y-60351600D02*
X65084800Y-60351600D01*
X70694800Y-60391600D02*
X65042800Y-60391600D01*
X70735800Y-60431600D02*
X68908800Y-60431600D01*
X70775800Y-60471600D02*
X68908800Y-60471600D01*
X70813800Y-60511600D02*
X68908800Y-60511600D01*
X70851800Y-60551600D02*
X68908800Y-60551600D01*
X70887800Y-60591600D02*
X68908800Y-60591600D01*
X70923800Y-60631600D02*
X68908800Y-60631600D01*
X70958800Y-60671600D02*
X68908800Y-60671600D01*
X70992800Y-60711600D02*
X68908800Y-60711600D01*
X71024800Y-60751600D02*
X68908800Y-60751600D01*
X71057800Y-60791600D02*
X68908800Y-60791600D01*
X71088800Y-60831600D02*
X68908800Y-60831600D01*
X71118800Y-60871600D02*
X68908800Y-60871600D01*
X71148800Y-60911600D02*
X68908800Y-60911600D01*
X71177800Y-60951600D02*
X68908800Y-60951600D01*
X71206800Y-60991600D02*
X68908800Y-60991600D01*
X71233800Y-61031600D02*
X68908800Y-61031600D01*
X71260800Y-61071600D02*
X68908800Y-61071600D01*
X71286800Y-61111600D02*
X68908800Y-61111600D01*
X71312800Y-61151600D02*
X68908800Y-61151600D01*
X71337800Y-61191600D02*
X68908800Y-61191600D01*
X71361800Y-61231600D02*
X68908800Y-61231600D01*
X71385800Y-61271600D02*
X68908800Y-61271600D01*
X71408800Y-61311600D02*
X68908800Y-61311600D01*
X71430800Y-61351600D02*
X68908800Y-61351600D01*
X71452800Y-61391600D02*
X68908800Y-61391600D01*
X71474800Y-61431600D02*
X68908800Y-61431600D01*
X71495800Y-61471600D02*
X68908800Y-61471600D01*
X71515800Y-61511600D02*
X68908800Y-61511600D01*
X71534800Y-61551600D02*
X68908800Y-61551600D01*
X71554800Y-61591600D02*
X68908800Y-61591600D01*
X71572800Y-61631600D02*
X68908800Y-61631600D01*
X71590800Y-61671600D02*
X68908800Y-61671600D01*
X71608800Y-61711600D02*
X68908800Y-61711600D01*
X71625800Y-61751600D02*
X68908800Y-61751600D01*
X71642800Y-61791600D02*
X68908800Y-61791600D01*
X71658800Y-61831600D02*
X68908800Y-61831600D01*
X71673800Y-61871600D02*
X68908800Y-61871600D01*
X71689800Y-61911600D02*
X68908800Y-61911600D01*
X71703800Y-61951600D02*
X68908800Y-61951600D01*
X71718800Y-61991600D02*
X68908800Y-61991600D01*
X71731800Y-62031600D02*
X68908800Y-62031600D01*
X71745800Y-62071600D02*
X68908800Y-62071600D01*
X71757800Y-62111600D02*
X68908800Y-62111600D01*
X71770800Y-62151600D02*
X68908800Y-62151600D01*
X71782800Y-62191600D02*
X68908800Y-62191600D01*
X71793800Y-62231600D02*
X68908800Y-62231600D01*
X71804800Y-62271600D02*
X68908800Y-62271600D01*
X71815800Y-62311600D02*
X68908800Y-62311600D01*
X71825800Y-62351600D02*
X68908800Y-62351600D01*
X71835800Y-62391600D02*
X68908800Y-62391600D01*
X71844800Y-62431600D02*
X68908800Y-62431600D01*
X71853800Y-62471600D02*
X68908800Y-62471600D01*
X71862800Y-62511600D02*
X63874800Y-62511600D01*
X71870800Y-62551600D02*
X63866800Y-62551600D01*
X71878800Y-62591600D02*
X63858800Y-62591600D01*
X71885800Y-62631600D02*
X63851800Y-62631600D01*
X71892800Y-62672600D02*
X63844800Y-62672600D01*
X71898800Y-62712600D02*
X63838800Y-62712600D01*
X71905800Y-62752600D02*
X63831800Y-62752600D01*
X71910800Y-62792600D02*
X63826800Y-62792600D01*
X71916800Y-62832600D02*
X63820800Y-62832600D01*
X71920800Y-62872600D02*
X63816800Y-62872600D01*
X71925800Y-62912600D02*
X63811800Y-62912600D01*
X71929800Y-62952600D02*
X63807800Y-62952600D01*
X71933800Y-62992600D02*
X63803800Y-62992600D01*
X71936800Y-63032600D02*
X63800800Y-63032600D01*
X71939800Y-63072600D02*
X63797800Y-63072600D01*
X71942800Y-63112600D02*
X63794800Y-63112600D01*
X71944800Y-63152600D02*
X63792800Y-63152600D01*
X71945800Y-63192600D02*
X63791800Y-63192600D01*
X71947800Y-63232600D02*
X63789800Y-63232600D01*
X71948800Y-63272600D02*
X63788800Y-63272600D01*
X71948800Y-63312600D02*
X63788800Y-63312600D01*
X71948800Y-63352600D02*
X63788800Y-63352600D01*
X71988800Y-63352600D02*
G75*
G02*
X63748800Y-63352600I-4120000J0D01*
G01*
X63748800Y-63352600D02*
G75*
G02*
X71988800Y-63352600I4120000J0D01*
G01*
%TO.C,J7*%
D11*
X74599800Y-59639949D02*
X84759800Y-59639949D01*
X74599800Y-67259949D02*
X74599800Y-59639949D01*
X84759800Y-59639949D02*
X84759800Y-67259949D01*
X84759800Y-67259949D02*
X74599800Y-67259949D01*
%TO.C,U2*%
X31572200Y-92234800D02*
X31572200Y-73202800D01*
X34874200Y-95554800D02*
X90736200Y-95554800D01*
X90736200Y-69900800D02*
X34874200Y-69900800D01*
X94056200Y-73202800D02*
X94056200Y-92234800D01*
X31572200Y-73202800D02*
G75*
G02*
X34874200Y-69900800I3302000J0D01*
G01*
X34874200Y-95554800D02*
G75*
G02*
X31554200Y-92234800I0J3320000D01*
G01*
X90736200Y-69882800D02*
G75*
G02*
X94056200Y-73202800I0J-3320000D01*
G01*
X94056200Y-92234800D02*
G75*
G02*
X90736200Y-95554800I-3319998J-2D01*
G01*
%TO.C,Q1*%
D14*
X71580600Y-50880400D02*
X75180600Y-50880400D01*
X71056416Y-51607605D02*
G75*
G02*
X71580600Y-50880400I2324184J-1122795D01*
G01*
X73380600Y-55330400D02*
G75*
G02*
X71024200Y-53829207I0J2600000D01*
G01*
X75180600Y-50880400D02*
G75*
G02*
X75704784Y-51607605I-1800000J-1850000D01*
G01*
X75737000Y-53829207D02*
G75*
G02*
X73380600Y-55330400I-2356400J1098807D01*
G01*
%TO.C,R15*%
X79000600Y-51462000D02*
X85540600Y-51462000D01*
X79000600Y-51792000D02*
X79000600Y-51462000D01*
X79000600Y-53872000D02*
X79000600Y-54202000D01*
X79000600Y-54202000D02*
X85540600Y-54202000D01*
X85540600Y-51462000D02*
X85540600Y-51792000D01*
X85540600Y-54202000D02*
X85540600Y-53872000D01*
%TO.C,R24*%
X59087000Y-51462000D02*
X65627000Y-51462000D01*
X59087000Y-51792000D02*
X59087000Y-51462000D01*
X59087000Y-53872000D02*
X59087000Y-54202000D01*
X59087000Y-54202000D02*
X65627000Y-54202000D01*
X65627000Y-51462000D02*
X65627000Y-51792000D01*
X65627000Y-54202000D02*
X65627000Y-53872000D01*
%TO.C,C27*%
X40844600Y-60431600D02*
X39017600Y-60431600D01*
X40844600Y-60471600D02*
X38977600Y-60471600D01*
X40844600Y-60511600D02*
X38939600Y-60511600D01*
X40844600Y-60551600D02*
X38901600Y-60551600D01*
X40844600Y-60591600D02*
X38865600Y-60591600D01*
X40844600Y-60631600D02*
X38829600Y-60631600D01*
X40844600Y-60671600D02*
X38794600Y-60671600D01*
X40844600Y-60711600D02*
X38760600Y-60711600D01*
X40844600Y-60751600D02*
X38728600Y-60751600D01*
X40844600Y-60791600D02*
X38695600Y-60791600D01*
X40844600Y-60831600D02*
X38664600Y-60831600D01*
X40844600Y-60871600D02*
X38634600Y-60871600D01*
X40844600Y-60911600D02*
X38604600Y-60911600D01*
X40844600Y-60951600D02*
X38575600Y-60951600D01*
X40844600Y-60991600D02*
X38546600Y-60991600D01*
X40844600Y-61031600D02*
X38519600Y-61031600D01*
X40844600Y-61071600D02*
X38492600Y-61071600D01*
X40844600Y-61111600D02*
X38466600Y-61111600D01*
X40844600Y-61151600D02*
X38440600Y-61151600D01*
X40844600Y-61191600D02*
X38415600Y-61191600D01*
X40844600Y-61231600D02*
X38391600Y-61231600D01*
X40844600Y-61271600D02*
X38367600Y-61271600D01*
X40844600Y-61311600D02*
X38344600Y-61311600D01*
X40844600Y-61351600D02*
X38322600Y-61351600D01*
X40844600Y-61391600D02*
X38300600Y-61391600D01*
X40844600Y-61431600D02*
X38278600Y-61431600D01*
X40844600Y-61471600D02*
X38257600Y-61471600D01*
X40844600Y-61511600D02*
X38237600Y-61511600D01*
X40844600Y-61551600D02*
X38218600Y-61551600D01*
X40844600Y-61591600D02*
X38198600Y-61591600D01*
X40844600Y-61631600D02*
X38180600Y-61631600D01*
X40844600Y-61671600D02*
X38162600Y-61671600D01*
X40844600Y-61711600D02*
X38144600Y-61711600D01*
X40844600Y-61751600D02*
X38127600Y-61751600D01*
X40844600Y-61791600D02*
X38110600Y-61791600D01*
X40844600Y-61831600D02*
X38094600Y-61831600D01*
X40844600Y-61871600D02*
X38079600Y-61871600D01*
X40844600Y-61911600D02*
X38063600Y-61911600D01*
X40844600Y-61951600D02*
X38049600Y-61951600D01*
X40844600Y-61991600D02*
X38034600Y-61991600D01*
X40844600Y-62031600D02*
X38021600Y-62031600D01*
X40844600Y-62071600D02*
X38007600Y-62071600D01*
X40844600Y-62111600D02*
X37995600Y-62111600D01*
X40844600Y-62151600D02*
X37982600Y-62151600D01*
X40844600Y-62191600D02*
X37970600Y-62191600D01*
X40844600Y-62231600D02*
X37959600Y-62231600D01*
X40844600Y-62271600D02*
X37948600Y-62271600D01*
X40844600Y-62311600D02*
X37937600Y-62311600D01*
X40844600Y-62351600D02*
X37927600Y-62351600D01*
X40844600Y-62391600D02*
X37917600Y-62391600D01*
X40844600Y-62431600D02*
X37908600Y-62431600D01*
X40844600Y-62471600D02*
X37899600Y-62471600D01*
X42417600Y-59271600D02*
X41351600Y-59271600D01*
X42652600Y-59311600D02*
X41116600Y-59311600D01*
X42832600Y-59351600D02*
X40936600Y-59351600D01*
X42982600Y-59391600D02*
X40786600Y-59391600D01*
X43113600Y-59431600D02*
X40655600Y-59431600D01*
X43230600Y-59471600D02*
X40538600Y-59471600D01*
X43337600Y-59511600D02*
X40431600Y-59511600D01*
X43436600Y-59551600D02*
X40332600Y-59551600D01*
X43529600Y-59591600D02*
X40239600Y-59591600D01*
X43615600Y-59631600D02*
X40153600Y-59631600D01*
X43697600Y-59671600D02*
X40071600Y-59671600D01*
X43774600Y-59711600D02*
X39994600Y-59711600D01*
X43848600Y-59751600D02*
X39920600Y-59751600D01*
X43918600Y-59791600D02*
X39850600Y-59791600D01*
X43986600Y-59831600D02*
X39782600Y-59831600D01*
X44050600Y-59871600D02*
X39718600Y-59871600D01*
X44112600Y-59911600D02*
X39656600Y-59911600D01*
X44171600Y-59951600D02*
X39597600Y-59951600D01*
X44199600Y-67762298D02*
X44199600Y-66962298D01*
X44229600Y-59991600D02*
X39539600Y-59991600D01*
X44284600Y-60031600D02*
X39484600Y-60031600D01*
X44338600Y-60071600D02*
X39430600Y-60071600D01*
X44389600Y-60111600D02*
X39379600Y-60111600D01*
X44440600Y-60151600D02*
X39328600Y-60151600D01*
X44488600Y-60191600D02*
X39280600Y-60191600D01*
X44535600Y-60231600D02*
X39233600Y-60231600D01*
X44581600Y-60271600D02*
X39187600Y-60271600D01*
X44599600Y-67362298D02*
X43799600Y-67362298D01*
X44625600Y-60311600D02*
X39143600Y-60311600D01*
X44668600Y-60351600D02*
X39100600Y-60351600D01*
X44710600Y-60391600D02*
X39058600Y-60391600D01*
X44751600Y-60431600D02*
X42924600Y-60431600D01*
X44791600Y-60471600D02*
X42924600Y-60471600D01*
X44829600Y-60511600D02*
X42924600Y-60511600D01*
X44867600Y-60551600D02*
X42924600Y-60551600D01*
X44903600Y-60591600D02*
X42924600Y-60591600D01*
X44939600Y-60631600D02*
X42924600Y-60631600D01*
X44974600Y-60671600D02*
X42924600Y-60671600D01*
X45008600Y-60711600D02*
X42924600Y-60711600D01*
X45040600Y-60751600D02*
X42924600Y-60751600D01*
X45073600Y-60791600D02*
X42924600Y-60791600D01*
X45104600Y-60831600D02*
X42924600Y-60831600D01*
X45134600Y-60871600D02*
X42924600Y-60871600D01*
X45164600Y-60911600D02*
X42924600Y-60911600D01*
X45193600Y-60951600D02*
X42924600Y-60951600D01*
X45222600Y-60991600D02*
X42924600Y-60991600D01*
X45249600Y-61031600D02*
X42924600Y-61031600D01*
X45276600Y-61071600D02*
X42924600Y-61071600D01*
X45302600Y-61111600D02*
X42924600Y-61111600D01*
X45328600Y-61151600D02*
X42924600Y-61151600D01*
X45353600Y-61191600D02*
X42924600Y-61191600D01*
X45377600Y-61231600D02*
X42924600Y-61231600D01*
X45401600Y-61271600D02*
X42924600Y-61271600D01*
X45424600Y-61311600D02*
X42924600Y-61311600D01*
X45446600Y-61351600D02*
X42924600Y-61351600D01*
X45468600Y-61391600D02*
X42924600Y-61391600D01*
X45490600Y-61431600D02*
X42924600Y-61431600D01*
X45511600Y-61471600D02*
X42924600Y-61471600D01*
X45531600Y-61511600D02*
X42924600Y-61511600D01*
X45550600Y-61551600D02*
X42924600Y-61551600D01*
X45570600Y-61591600D02*
X42924600Y-61591600D01*
X45588600Y-61631600D02*
X42924600Y-61631600D01*
X45606600Y-61671600D02*
X42924600Y-61671600D01*
X45624600Y-61711600D02*
X42924600Y-61711600D01*
X45641600Y-61751600D02*
X42924600Y-61751600D01*
X45658600Y-61791600D02*
X42924600Y-61791600D01*
X45674600Y-61831600D02*
X42924600Y-61831600D01*
X45689600Y-61871600D02*
X42924600Y-61871600D01*
X45705600Y-61911600D02*
X42924600Y-61911600D01*
X45719600Y-61951600D02*
X42924600Y-61951600D01*
X45734600Y-61991600D02*
X42924600Y-61991600D01*
X45747600Y-62031600D02*
X42924600Y-62031600D01*
X45761600Y-62071600D02*
X42924600Y-62071600D01*
X45773600Y-62111600D02*
X42924600Y-62111600D01*
X45786600Y-62151600D02*
X42924600Y-62151600D01*
X45798600Y-62191600D02*
X42924600Y-62191600D01*
X45809600Y-62231600D02*
X42924600Y-62231600D01*
X45820600Y-62271600D02*
X42924600Y-62271600D01*
X45831600Y-62311600D02*
X42924600Y-62311600D01*
X45841600Y-62351600D02*
X42924600Y-62351600D01*
X45851600Y-62391600D02*
X42924600Y-62391600D01*
X45860600Y-62431600D02*
X42924600Y-62431600D01*
X45869600Y-62471600D02*
X42924600Y-62471600D01*
X45878600Y-62511600D02*
X37890600Y-62511600D01*
X45886600Y-62551600D02*
X37882600Y-62551600D01*
X45894600Y-62591600D02*
X37874600Y-62591600D01*
X45901600Y-62631600D02*
X37867600Y-62631600D01*
X45908600Y-62672600D02*
X37860600Y-62672600D01*
X45914600Y-62712600D02*
X37854600Y-62712600D01*
X45921600Y-62752600D02*
X37847600Y-62752600D01*
X45926600Y-62792600D02*
X37842600Y-62792600D01*
X45932600Y-62832600D02*
X37836600Y-62832600D01*
X45936600Y-62872600D02*
X37832600Y-62872600D01*
X45941600Y-62912600D02*
X37827600Y-62912600D01*
X45945600Y-62952600D02*
X37823600Y-62952600D01*
X45949600Y-62992600D02*
X37819600Y-62992600D01*
X45952600Y-63032600D02*
X37816600Y-63032600D01*
X45955600Y-63072600D02*
X37813600Y-63072600D01*
X45958600Y-63112600D02*
X37810600Y-63112600D01*
X45960600Y-63152600D02*
X37808600Y-63152600D01*
X45961600Y-63192600D02*
X37807600Y-63192600D01*
X45963600Y-63232600D02*
X37805600Y-63232600D01*
X45964600Y-63272600D02*
X37804600Y-63272600D01*
X45964600Y-63312600D02*
X37804600Y-63312600D01*
X45964600Y-63352600D02*
X37804600Y-63352600D01*
X46004600Y-63352600D02*
G75*
G02*
X37764600Y-63352600I-4120000J0D01*
G01*
X37764600Y-63352600D02*
G75*
G02*
X46004600Y-63352600I4120000J0D01*
G01*
%TO.C,C7*%
X46127800Y-50347800D02*
X44300800Y-50347800D01*
X46127800Y-50387800D02*
X44260800Y-50387800D01*
X46127800Y-50427800D02*
X44222800Y-50427800D01*
X46127800Y-50467800D02*
X44184800Y-50467800D01*
X46127800Y-50507800D02*
X44148800Y-50507800D01*
X46127800Y-50547800D02*
X44112800Y-50547800D01*
X46127800Y-50587800D02*
X44077800Y-50587800D01*
X46127800Y-50627800D02*
X44043800Y-50627800D01*
X46127800Y-50667800D02*
X44011800Y-50667800D01*
X46127800Y-50707800D02*
X43978800Y-50707800D01*
X46127800Y-50747800D02*
X43947800Y-50747800D01*
X46127800Y-50787800D02*
X43917800Y-50787800D01*
X46127800Y-50827800D02*
X43887800Y-50827800D01*
X46127800Y-50867800D02*
X43858800Y-50867800D01*
X46127800Y-50907800D02*
X43829800Y-50907800D01*
X46127800Y-50947800D02*
X43802800Y-50947800D01*
X46127800Y-50987800D02*
X43775800Y-50987800D01*
X46127800Y-51027800D02*
X43749800Y-51027800D01*
X46127800Y-51067800D02*
X43723800Y-51067800D01*
X46127800Y-51107800D02*
X43698800Y-51107800D01*
X46127800Y-51147800D02*
X43674800Y-51147800D01*
X46127800Y-51187800D02*
X43650800Y-51187800D01*
X46127800Y-51227800D02*
X43627800Y-51227800D01*
X46127800Y-51267800D02*
X43605800Y-51267800D01*
X46127800Y-51307800D02*
X43583800Y-51307800D01*
X46127800Y-51347800D02*
X43561800Y-51347800D01*
X46127800Y-51387800D02*
X43540800Y-51387800D01*
X46127800Y-51427800D02*
X43520800Y-51427800D01*
X46127800Y-51467800D02*
X43501800Y-51467800D01*
X46127800Y-51507800D02*
X43481800Y-51507800D01*
X46127800Y-51547800D02*
X43463800Y-51547800D01*
X46127800Y-51587800D02*
X43445800Y-51587800D01*
X46127800Y-51627800D02*
X43427800Y-51627800D01*
X46127800Y-51667800D02*
X43410800Y-51667800D01*
X46127800Y-51707800D02*
X43393800Y-51707800D01*
X46127800Y-51747800D02*
X43377800Y-51747800D01*
X46127800Y-51787800D02*
X43362800Y-51787800D01*
X46127800Y-51827800D02*
X43346800Y-51827800D01*
X46127800Y-51867800D02*
X43332800Y-51867800D01*
X46127800Y-51907800D02*
X43317800Y-51907800D01*
X46127800Y-51947800D02*
X43304800Y-51947800D01*
X46127800Y-51987800D02*
X43290800Y-51987800D01*
X46127800Y-52027800D02*
X43278800Y-52027800D01*
X46127800Y-52067800D02*
X43265800Y-52067800D01*
X46127800Y-52107800D02*
X43253800Y-52107800D01*
X46127800Y-52147800D02*
X43242800Y-52147800D01*
X46127800Y-52187800D02*
X43231800Y-52187800D01*
X46127800Y-52227800D02*
X43220800Y-52227800D01*
X46127800Y-52267800D02*
X43210800Y-52267800D01*
X46127800Y-52307800D02*
X43200800Y-52307800D01*
X46127800Y-52347800D02*
X43191800Y-52347800D01*
X46127800Y-52387800D02*
X43182800Y-52387800D01*
X47700800Y-49187800D02*
X46634800Y-49187800D01*
X47935800Y-49227800D02*
X46399800Y-49227800D01*
X48115800Y-49267800D02*
X46219800Y-49267800D01*
X48265800Y-49307800D02*
X46069800Y-49307800D01*
X48396800Y-49347800D02*
X45938800Y-49347800D01*
X48513800Y-49387800D02*
X45821800Y-49387800D01*
X48620800Y-49427800D02*
X45714800Y-49427800D01*
X48719800Y-49467800D02*
X45615800Y-49467800D01*
X48812800Y-49507800D02*
X45522800Y-49507800D01*
X48898800Y-49547800D02*
X45436800Y-49547800D01*
X48980800Y-49587800D02*
X45354800Y-49587800D01*
X49057800Y-49627800D02*
X45277800Y-49627800D01*
X49131800Y-49667800D02*
X45203800Y-49667800D01*
X49201800Y-49707800D02*
X45133800Y-49707800D01*
X49269800Y-49747800D02*
X45065800Y-49747800D01*
X49333800Y-49787800D02*
X45001800Y-49787800D01*
X49395800Y-49827800D02*
X44939800Y-49827800D01*
X49454800Y-49867800D02*
X44880800Y-49867800D01*
X49482800Y-57678498D02*
X49482800Y-56878498D01*
X49512800Y-49907800D02*
X44822800Y-49907800D01*
X49567800Y-49947800D02*
X44767800Y-49947800D01*
X49621800Y-49987800D02*
X44713800Y-49987800D01*
X49672800Y-50027800D02*
X44662800Y-50027800D01*
X49723800Y-50067800D02*
X44611800Y-50067800D01*
X49771800Y-50107800D02*
X44563800Y-50107800D01*
X49818800Y-50147800D02*
X44516800Y-50147800D01*
X49864800Y-50187800D02*
X44470800Y-50187800D01*
X49882800Y-57278498D02*
X49082800Y-57278498D01*
X49908800Y-50227800D02*
X44426800Y-50227800D01*
X49951800Y-50267800D02*
X44383800Y-50267800D01*
X49993800Y-50307800D02*
X44341800Y-50307800D01*
X50034800Y-50347800D02*
X48207800Y-50347800D01*
X50074800Y-50387800D02*
X48207800Y-50387800D01*
X50112800Y-50427800D02*
X48207800Y-50427800D01*
X50150800Y-50467800D02*
X48207800Y-50467800D01*
X50186800Y-50507800D02*
X48207800Y-50507800D01*
X50222800Y-50547800D02*
X48207800Y-50547800D01*
X50257800Y-50587800D02*
X48207800Y-50587800D01*
X50291800Y-50627800D02*
X48207800Y-50627800D01*
X50323800Y-50667800D02*
X48207800Y-50667800D01*
X50356800Y-50707800D02*
X48207800Y-50707800D01*
X50387800Y-50747800D02*
X48207800Y-50747800D01*
X50417800Y-50787800D02*
X48207800Y-50787800D01*
X50447800Y-50827800D02*
X48207800Y-50827800D01*
X50476800Y-50867800D02*
X48207800Y-50867800D01*
X50505800Y-50907800D02*
X48207800Y-50907800D01*
X50532800Y-50947800D02*
X48207800Y-50947800D01*
X50559800Y-50987800D02*
X48207800Y-50987800D01*
X50585800Y-51027800D02*
X48207800Y-51027800D01*
X50611800Y-51067800D02*
X48207800Y-51067800D01*
X50636800Y-51107800D02*
X48207800Y-51107800D01*
X50660800Y-51147800D02*
X48207800Y-51147800D01*
X50684800Y-51187800D02*
X48207800Y-51187800D01*
X50707800Y-51227800D02*
X48207800Y-51227800D01*
X50729800Y-51267800D02*
X48207800Y-51267800D01*
X50751800Y-51307800D02*
X48207800Y-51307800D01*
X50773800Y-51347800D02*
X48207800Y-51347800D01*
X50794800Y-51387800D02*
X48207800Y-51387800D01*
X50814800Y-51427800D02*
X48207800Y-51427800D01*
X50833800Y-51467800D02*
X48207800Y-51467800D01*
X50853800Y-51507800D02*
X48207800Y-51507800D01*
X50871800Y-51547800D02*
X48207800Y-51547800D01*
X50889800Y-51587800D02*
X48207800Y-51587800D01*
X50907800Y-51627800D02*
X48207800Y-51627800D01*
X50924800Y-51667800D02*
X48207800Y-51667800D01*
X50941800Y-51707800D02*
X48207800Y-51707800D01*
X50957800Y-51747800D02*
X48207800Y-51747800D01*
X50972800Y-51787800D02*
X48207800Y-51787800D01*
X50988800Y-51827800D02*
X48207800Y-51827800D01*
X51002800Y-51867800D02*
X48207800Y-51867800D01*
X51017800Y-51907800D02*
X48207800Y-51907800D01*
X51030800Y-51947800D02*
X48207800Y-51947800D01*
X51044800Y-51987800D02*
X48207800Y-51987800D01*
X51056800Y-52027800D02*
X48207800Y-52027800D01*
X51069800Y-52067800D02*
X48207800Y-52067800D01*
X51081800Y-52107800D02*
X48207800Y-52107800D01*
X51092800Y-52147800D02*
X48207800Y-52147800D01*
X51103800Y-52187800D02*
X48207800Y-52187800D01*
X51114800Y-52227800D02*
X48207800Y-52227800D01*
X51124800Y-52267800D02*
X48207800Y-52267800D01*
X51134800Y-52307800D02*
X48207800Y-52307800D01*
X51143800Y-52347800D02*
X48207800Y-52347800D01*
X51152800Y-52387800D02*
X48207800Y-52387800D01*
X51161800Y-52427800D02*
X43173800Y-52427800D01*
X51169800Y-52467800D02*
X43165800Y-52467800D01*
X51177800Y-52507800D02*
X43157800Y-52507800D01*
X51184800Y-52547800D02*
X43150800Y-52547800D01*
X51191800Y-52588800D02*
X43143800Y-52588800D01*
X51197800Y-52628800D02*
X43137800Y-52628800D01*
X51204800Y-52668800D02*
X43130800Y-52668800D01*
X51209800Y-52708800D02*
X43125800Y-52708800D01*
X51215800Y-52748800D02*
X43119800Y-52748800D01*
X51219800Y-52788800D02*
X43115800Y-52788800D01*
X51224800Y-52828800D02*
X43110800Y-52828800D01*
X51228800Y-52868800D02*
X43106800Y-52868800D01*
X51232800Y-52908800D02*
X43102800Y-52908800D01*
X51235800Y-52948800D02*
X43099800Y-52948800D01*
X51238800Y-52988800D02*
X43096800Y-52988800D01*
X51241800Y-53028800D02*
X43093800Y-53028800D01*
X51243800Y-53068800D02*
X43091800Y-53068800D01*
X51244800Y-53108800D02*
X43090800Y-53108800D01*
X51246800Y-53148800D02*
X43088800Y-53148800D01*
X51247800Y-53188800D02*
X43087800Y-53188800D01*
X51247800Y-53228800D02*
X43087800Y-53228800D01*
X51247800Y-53268800D02*
X43087800Y-53268800D01*
X51287800Y-53268800D02*
G75*
G02*
X43047800Y-53268800I-4120000J0D01*
G01*
X43047800Y-53268800D02*
G75*
G02*
X51287800Y-53268800I4120000J0D01*
G01*
%TO.C,J12*%
D11*
X48514000Y-59639949D02*
X58674000Y-59639949D01*
X48514000Y-67259949D02*
X48514000Y-59639949D01*
X58674000Y-59639949D02*
X58674000Y-67259949D01*
X58674000Y-67259949D02*
X48514000Y-67259949D01*
%TO.C,C4*%
D14*
X156750000Y-72764134D02*
X163290000Y-72764134D01*
X156750000Y-73094134D02*
X156750000Y-72764134D01*
X156750000Y-75174134D02*
X156750000Y-75504134D01*
X156750000Y-75504134D02*
X163290000Y-75504134D01*
X163290000Y-72764134D02*
X163290000Y-73094134D01*
X163290000Y-75504134D02*
X163290000Y-75174134D01*
%TO.C,C9*%
X156750000Y-76108467D02*
X163290000Y-76108467D01*
X156750000Y-76438467D02*
X156750000Y-76108467D01*
X156750000Y-78518467D02*
X156750000Y-78848467D01*
X156750000Y-78848467D02*
X163290000Y-78848467D01*
X163290000Y-76108467D02*
X163290000Y-76438467D01*
X163290000Y-78848467D02*
X163290000Y-78518467D01*
%TO.C,C2*%
X156750000Y-69419800D02*
X163290000Y-69419800D01*
X156750000Y-69749800D02*
X156750000Y-69419800D01*
X156750000Y-71829800D02*
X156750000Y-72159800D01*
X156750000Y-72159800D02*
X163290000Y-72159800D01*
X163290000Y-69419800D02*
X163290000Y-69749800D01*
X163290000Y-72159800D02*
X163290000Y-71829800D01*
%TO.C,C10*%
X156750000Y-79452800D02*
X163290000Y-79452800D01*
X156750000Y-79782800D02*
X156750000Y-79452800D01*
X156750000Y-81862800D02*
X156750000Y-82192800D01*
X156750000Y-82192800D02*
X163290000Y-82192800D01*
X163290000Y-79452800D02*
X163290000Y-79782800D01*
X163290000Y-82192800D02*
X163290000Y-81862800D01*
%TD*%
M02*
