%TF.GenerationSoftware,KiCad,Pcbnew,10.0.5*%
%TF.CreationDate,2026-08-27T17:26:02-05:00*%
%TF.ProjectId,brain_board,62726169-6e5f-4626-9f61-72642e6b6963,rev?*%
%TF.SameCoordinates,Original*%
%TF.FileFunction,Soldermask,Bot*%
%TF.FilePolarity,Negative*%
%FSLAX46Y46*%
G04 Gerber Fmt 4.6, Leading zero omitted, Abs format (unit mm)*
G04 Created by KiCad (PCBNEW 10.0.5) date 2026-08-27 17:26:02*
%MOMM*%
%LPD*%
G01*
G04 APERTURE LIST*
%ADD10C,4.600000*%
%ADD11C,1.524000*%
%ADD12C,1.600000*%
%ADD13O,1.600000X1.600000*%
%ADD14R,1.778000X1.778000*%
%ADD15C,1.778000*%
%ADD16R,1.524000X1.524000*%
%ADD17C,1.670000*%
%ADD18R,1.670000X1.670000*%
%ADD19R,1.700000X1.700000*%
%ADD20O,1.700000X1.700000*%
%ADD21R,1.300000X1.300000*%
%ADD22R,1.500000X1.500000*%
%ADD23C,1.500000*%
%ADD24R,1.600000X1.600000*%
G04 APERTURE END LIST*
D10*
%TO.C,MH16*%
X65186600Y133158800D03*
%TD*%
%TO.C,MH14*%
X156186600Y225158800D03*
%TD*%
%TO.C,MH15*%
X156186600Y133158800D03*
%TD*%
%TO.C,MH13*%
X65186600Y225158800D03*
%TD*%
D11*
%TO.C,J23*%
X68045000Y147816900D03*
X65505000Y147816900D03*
X68045000Y150356900D03*
X65505000Y150356900D03*
X68045000Y152896900D03*
X65505000Y152896900D03*
X68045000Y155436900D03*
X65505000Y155436900D03*
X68045000Y157976900D03*
X65505000Y157976900D03*
X68045000Y160516900D03*
X65505000Y160516900D03*
X68045000Y163056900D03*
X65505000Y163056900D03*
X68045000Y165596900D03*
X65505000Y165596900D03*
X68045000Y168136900D03*
X65505000Y168136900D03*
X68045000Y170676900D03*
X65505000Y170676900D03*
X68045000Y173216900D03*
X65505000Y173216900D03*
X68045000Y175756900D03*
X65505000Y175756900D03*
X68045000Y178296900D03*
X65505000Y178296900D03*
X68045000Y180836900D03*
X65505000Y180836900D03*
X68045000Y183376900D03*
X65505000Y183376900D03*
X68045000Y185916900D03*
X65505000Y185916900D03*
X68045000Y188456900D03*
X65505000Y188456900D03*
X68045000Y190996900D03*
X65505000Y190996900D03*
X68045000Y193536900D03*
X65505000Y193536900D03*
X68045000Y196076900D03*
X65505000Y196076900D03*
%TD*%
D12*
%TO.C,R35*%
X86385400Y199948800D03*
D13*
X94005400Y199948800D03*
%TD*%
D12*
%TO.C,R34*%
X86385400Y196735700D03*
D13*
X94005400Y196735700D03*
%TD*%
D12*
%TO.C,R33*%
X86385400Y193522600D03*
D13*
X94005400Y193522600D03*
%TD*%
D12*
%TO.C,R32*%
X86385400Y190309500D03*
D13*
X94005400Y190309500D03*
%TD*%
D12*
%TO.C,R31*%
X86385400Y187096400D03*
D13*
X94005400Y187096400D03*
%TD*%
D12*
%TO.C,R29*%
X65049400Y202920600D03*
D13*
X65049400Y210540600D03*
%TD*%
D12*
%TO.C,R11*%
X87198200Y151549100D03*
D13*
X94818200Y151549100D03*
%TD*%
D14*
%TO.C,J29*%
X70813600Y136818700D03*
D15*
X70813600Y134278700D03*
%TD*%
D16*
%TO.C,J25*%
X83756500Y132956300D03*
D17*
X86296500Y132956300D03*
X88836500Y132956300D03*
X83756500Y135496300D03*
X86296500Y135496300D03*
X88836500Y135496300D03*
X83756500Y138036300D03*
X86296500Y138036300D03*
X88836500Y138036300D03*
X83756500Y140576300D03*
X86296500Y140576300D03*
X88836500Y140576300D03*
%TD*%
D11*
%TO.C,J24*%
X95046800Y143662400D03*
X95046800Y141662400D03*
X95046800Y139662400D03*
X95046800Y137662400D03*
X95046800Y135662400D03*
X95046800Y133662400D03*
%TD*%
D18*
%TO.C,U6*%
X70154800Y214630000D03*
D17*
X72694800Y214630000D03*
X75234800Y214630000D03*
X77774800Y214630000D03*
X80314800Y214630000D03*
X82854800Y214630000D03*
X85394800Y214630000D03*
X87934800Y214630000D03*
X90474800Y214630000D03*
X93014800Y214630000D03*
X93014800Y222130000D03*
X90474800Y222130000D03*
X87934800Y222130000D03*
X85394800Y222130000D03*
X82854800Y222130000D03*
X80314800Y222130000D03*
X77774800Y222130000D03*
X75234800Y222130000D03*
X72694800Y222130000D03*
X70154800Y222130000D03*
%TD*%
D19*
%TO.C,J30*%
X120929400Y133959600D03*
D20*
X118389400Y133959600D03*
X115849400Y133959600D03*
X113309400Y133959600D03*
X110769400Y133959600D03*
X108229400Y133959600D03*
X105689400Y133959600D03*
X103149400Y133959600D03*
%TD*%
D21*
%TO.C,SW1*%
X94551500Y177126900D03*
D11*
X86931500Y177126900D03*
X94551500Y174586900D03*
X86931500Y174586900D03*
X94551500Y172046900D03*
X86931500Y172046900D03*
X94551500Y169506900D03*
X86931500Y169506900D03*
X94551500Y166966900D03*
X86931500Y166966900D03*
X94551500Y164426900D03*
X86931500Y164426900D03*
X94551500Y161886900D03*
X86931500Y161886900D03*
X94551500Y159346900D03*
X86931500Y159346900D03*
%TD*%
D12*
%TO.C,R27*%
X71666100Y202920600D03*
D13*
X71666100Y210540600D03*
%TD*%
D12*
%TO.C,R28*%
X68357750Y202920600D03*
D13*
X68357750Y210540600D03*
%TD*%
D12*
%TO.C,R26*%
X74974450Y202920600D03*
D13*
X74974450Y210540600D03*
%TD*%
D12*
%TO.C,R25*%
X78282800Y202920600D03*
D13*
X78282800Y210540600D03*
%TD*%
D10*
%TO.C,M1*%
X107062800Y140075800D03*
X156062800Y140075800D03*
X107062800Y198075800D03*
X156062800Y198075800D03*
%TD*%
D14*
%TO.C,J27*%
X76655600Y136818700D03*
D15*
X76655600Y134278700D03*
%TD*%
D14*
%TO.C,J28*%
X73737599Y136801299D03*
D15*
X73737599Y134261299D03*
%TD*%
D11*
%TO.C,J22*%
X78486000Y147802600D03*
X75946000Y147802600D03*
X78486000Y150342600D03*
X75946000Y150342600D03*
X78486000Y152882600D03*
X75946000Y152882600D03*
X78486000Y155422600D03*
X75946000Y155422600D03*
X78486000Y157962600D03*
X75946000Y157962600D03*
X78486000Y160502600D03*
X75946000Y160502600D03*
X78486000Y163042600D03*
X75946000Y163042600D03*
X78486000Y165582600D03*
X75946000Y165582600D03*
X78486000Y168122600D03*
X75946000Y168122600D03*
X78486000Y170662600D03*
X75946000Y170662600D03*
X78486000Y173202600D03*
X75946000Y173202600D03*
X78486000Y175742600D03*
X75946000Y175742600D03*
X78486000Y178282600D03*
X75946000Y178282600D03*
X78486000Y180822600D03*
X75946000Y180822600D03*
X78486000Y183362600D03*
X75946000Y183362600D03*
X78486000Y185902600D03*
X75946000Y185902600D03*
X78486000Y188442600D03*
X75946000Y188442600D03*
X78486000Y190982600D03*
X75946000Y190982600D03*
X78486000Y193522600D03*
X75946000Y193522600D03*
X78486000Y196062600D03*
X75946000Y196062600D03*
%TD*%
D16*
%TO.C,T14*%
X117500400Y156641800D03*
%TD*%
%TO.C,T15*%
X117500400Y150368000D03*
%TD*%
%TO.C,T13*%
X117500400Y162839400D03*
%TD*%
D12*
%TO.C,R38*%
X129079083Y150368000D03*
D13*
X121459083Y150368000D03*
%TD*%
D12*
%TO.C,R37*%
X129079083Y156641800D03*
D13*
X121459083Y156641800D03*
%TD*%
D12*
%TO.C,R36*%
X129079083Y162839400D03*
D13*
X121459083Y162839400D03*
%TD*%
D12*
%TO.C,R19*%
X148386800Y156641800D03*
D13*
X140766800Y156641800D03*
%TD*%
D12*
%TO.C,R20*%
X148386800Y150368000D03*
D13*
X140766800Y150368000D03*
%TD*%
D22*
%TO.C,Q4*%
X132410200Y162864800D03*
D23*
X134950200Y162864800D03*
X137490200Y162864800D03*
%TD*%
D22*
%TO.C,Q5*%
X132410200Y156641800D03*
D23*
X134950200Y156641800D03*
X137490200Y156641800D03*
%TD*%
D22*
%TO.C,Q6*%
X132431883Y150393400D03*
D23*
X134971883Y150393400D03*
X137511883Y150393400D03*
%TD*%
D18*
%TO.C,J26*%
X127186600Y223158800D03*
D17*
X127186600Y220618800D03*
X124646600Y223158800D03*
X124646600Y220618800D03*
X122106600Y223158800D03*
X122106600Y220618800D03*
X119566600Y223158800D03*
X119566600Y220618800D03*
X117026600Y223158800D03*
X117026600Y220618800D03*
X114486600Y223158800D03*
X114486600Y220618800D03*
X111946600Y223158800D03*
X111946600Y220618800D03*
X109406600Y223158800D03*
X109406600Y220618800D03*
X106866600Y223158800D03*
X106866600Y220618800D03*
X104326600Y223158800D03*
X104326600Y220618800D03*
%TD*%
D12*
%TO.C,R22*%
X148310600Y182092600D03*
D13*
X140690600Y182092600D03*
%TD*%
D12*
%TO.C,R23*%
X148310600Y171678600D03*
D13*
X140690600Y171678600D03*
%TD*%
D12*
%TO.C,C32*%
X66725800Y141325600D03*
D13*
X74345800Y141325600D03*
%TD*%
D24*
%TO.C,D8*%
X111121283Y182222101D03*
D13*
X118741283Y182222101D03*
%TD*%
D24*
%TO.C,D9*%
X111121283Y171678600D03*
D13*
X118741283Y171678600D03*
%TD*%
D22*
%TO.C,Q3*%
X132334000Y171678600D03*
D23*
X134874000Y171678600D03*
X137414000Y171678600D03*
%TD*%
D22*
%TO.C,Q2*%
X132334000Y182092600D03*
D23*
X134874000Y182092600D03*
X137414000Y182092600D03*
%TD*%
D12*
%TO.C,R18*%
X148386800Y162839400D03*
D13*
X140766800Y162839400D03*
%TD*%
D12*
%TO.C,R17*%
X129002883Y170083716D03*
D13*
X121382883Y170083716D03*
%TD*%
D12*
%TO.C,R16*%
X129002883Y180467000D03*
D13*
X121382883Y180467000D03*
%TD*%
D12*
%TO.C,C34*%
X128879600Y174879000D03*
D13*
X121259600Y174879000D03*
%TD*%
D12*
%TO.C,C33*%
X128955800Y185216800D03*
D13*
X121335800Y185216800D03*
%TD*%
M02*
